%FSAX24Y24*%
%MOIN*%
G70*
G01*
G75*
G04 Layer_Physical_Order=1*
G04 Layer_Color=255*
%ADD10R,0.0787X0.0512*%
%ADD11R,0.0787X0.0787*%
%ADD12R,0.0433X0.0394*%
%ADD13R,0.0630X0.0118*%
%ADD14O,0.0217X0.0630*%
%ADD15O,0.0630X0.0217*%
%ADD16R,0.1358X0.0689*%
%ADD17R,0.0433X0.0689*%
%ADD18R,0.0433X0.0689*%
%ADD19R,0.0394X0.0433*%
%ADD20R,0.0630X0.0315*%
%ADD21R,0.1181X0.0827*%
%ADD22R,0.0709X0.0630*%
%ADD23C,0.0236*%
%ADD24C,0.0217*%
%ADD25C,0.0118*%
%ADD26C,0.0080*%
%ADD27C,0.0591*%
%ADD28R,0.0591X0.0591*%
%ADD29C,0.0665*%
%ADD30R,0.0665X0.0665*%
%ADD31C,0.1874*%
%ADD32C,0.1969*%
%ADD33C,0.0630*%
%ADD34C,0.2520*%
%ADD35C,0.1024*%
%ADD36C,0.0472*%
G36*
X067953Y075044D02*
Y074970D01*
Y074715D01*
Y074459D01*
Y074271D01*
X067915Y074238D01*
X067890Y074241D01*
Y073910D01*
Y073579D01*
X067927Y073584D01*
X068009Y073618D01*
X068079Y073671D01*
X068102Y073702D01*
X068150Y073686D01*
Y073524D01*
X068415D01*
Y073819D01*
X068515D01*
Y073524D01*
X068780D01*
Y073524D01*
X068780D01*
X068780Y073524D01*
X068819D01*
Y073524D01*
X069266D01*
X069285Y073477D01*
X068909Y073101D01*
X067541D01*
X067051Y073591D01*
Y074488D01*
X067539D01*
Y074590D01*
X067584Y074599D01*
X067656Y074647D01*
X067816Y074807D01*
X067864Y074879D01*
X067881Y074963D01*
Y075029D01*
X067922Y075057D01*
X067953Y075044D01*
D02*
G37*
G36*
X059132Y081390D02*
X059213Y081374D01*
X059278Y081387D01*
X059317Y081355D01*
Y081250D01*
X059333Y081169D01*
X059333Y081169D01*
X059333Y081169D01*
X059379Y081101D01*
X059483Y080997D01*
X059511Y080954D01*
X059583Y080906D01*
X059583Y080906D01*
X059569Y080869D01*
X059515Y080799D01*
X059481Y080717D01*
X059476Y080680D01*
X060138D01*
X060133Y080717D01*
X060100Y080799D01*
X060046Y080869D01*
X060053Y080889D01*
X060728D01*
X060741Y080871D01*
X060811Y080818D01*
X060893Y080784D01*
X060980Y080772D01*
X061067Y080784D01*
X061149Y080818D01*
X061196Y080854D01*
X061245Y080846D01*
X061278Y080796D01*
Y080779D01*
X061232Y080711D01*
X061216Y080630D01*
X061232Y080549D01*
X061278Y080481D01*
Y080464D01*
X061232Y080396D01*
X061216Y080315D01*
X061232Y080234D01*
X061278Y080166D01*
Y080149D01*
X061232Y080081D01*
X061216Y080000D01*
X061232Y079919D01*
X061278Y079851D01*
Y079834D01*
X061232Y079766D01*
X061216Y079685D01*
X061232Y079604D01*
X061278Y079536D01*
Y079519D01*
X061232Y079451D01*
X061216Y079370D01*
X061231Y079298D01*
X061203Y079257D01*
X061169Y079250D01*
X061101Y079204D01*
X060953Y079057D01*
X060908Y078988D01*
X060901Y078955D01*
X060859Y078927D01*
X060787Y078941D01*
X060707Y078925D01*
X060638Y078879D01*
X060621D01*
X060553Y078925D01*
X060472Y078941D01*
X060392Y078925D01*
X060323Y078879D01*
X060307D01*
X060238Y078925D01*
X060157Y078941D01*
X060077Y078925D01*
X060008Y078879D01*
X059992D01*
X059923Y078925D01*
X059843Y078941D01*
X059762Y078925D01*
X059693Y078879D01*
X059677D01*
X059608Y078925D01*
X059528Y078941D01*
X059447Y078925D01*
X059379Y078879D01*
X059362D01*
X059293Y078925D01*
X059213Y078941D01*
X059132Y078925D01*
X059064Y078879D01*
X059047D01*
X058978Y078925D01*
X058898Y078941D01*
X058817Y078925D01*
X058775Y078897D01*
X058739Y078932D01*
X058768Y078974D01*
X058784Y079055D01*
X058768Y079136D01*
X058722Y079204D01*
Y079221D01*
X058768Y079289D01*
X058784Y079370D01*
X058768Y079451D01*
X058722Y079519D01*
Y079536D01*
X058768Y079604D01*
X058784Y079685D01*
X058780Y079703D01*
X058822Y079730D01*
X058851Y079708D01*
X058933Y079674D01*
X059020Y079662D01*
X059107Y079674D01*
X059189Y079708D01*
X059259Y079761D01*
X059312Y079831D01*
X059346Y079913D01*
X059358Y080000D01*
X059346Y080087D01*
X059312Y080169D01*
X059259Y080239D01*
X059189Y080292D01*
X059107Y080326D01*
X059020Y080338D01*
X058933Y080326D01*
X058851Y080292D01*
X058822Y080270D01*
X058780Y080297D01*
X058784Y080315D01*
X058768Y080396D01*
X058722Y080464D01*
Y080481D01*
X058768Y080549D01*
X058774Y080580D01*
X058366D01*
Y080680D01*
X058774D01*
X058768Y080711D01*
X058722Y080779D01*
Y080796D01*
X058768Y080864D01*
X058784Y080945D01*
X058768Y081026D01*
X058722Y081094D01*
Y081111D01*
X058768Y081179D01*
X058784Y081260D01*
X058768Y081340D01*
X058739Y081383D01*
X058774Y081418D01*
X058817Y081390D01*
X058898Y081374D01*
X058978Y081390D01*
X059047Y081436D01*
X059064D01*
X059132Y081390D01*
D02*
G37*
G36*
X065372Y093252D02*
X065354Y093209D01*
X065315D01*
Y093209D01*
X064685D01*
Y092618D01*
X064779D01*
Y092343D01*
X064508D01*
Y092209D01*
X062500D01*
X062416Y092192D01*
X062344Y092144D01*
X061604Y091404D01*
X061556Y091333D01*
X061539Y091248D01*
Y082137D01*
X061413Y082011D01*
X061311D01*
X061297Y082079D01*
X061251Y082147D01*
X061183Y082193D01*
X061102Y082209D01*
X061037Y082196D01*
X060998Y082227D01*
Y082340D01*
X060998Y082340D01*
Y083091D01*
X061102D01*
Y083681D01*
X061102D01*
X061102Y083681D01*
D01*
X061102Y083681D01*
Y084272D01*
D01*
Y084272D01*
X061102Y084272D01*
Y084272D01*
X061102D01*
X061102D01*
Y084862D01*
X061008D01*
Y085678D01*
X061026Y085691D01*
X061080Y085761D01*
X061113Y085843D01*
X061125Y085930D01*
X061113Y086017D01*
X061080Y086099D01*
X061026Y086169D01*
X060956Y086222D01*
X060875Y086256D01*
X060787Y086268D01*
X060700Y086256D01*
X060619Y086222D01*
X060549Y086169D01*
X060495Y086099D01*
X060461Y086017D01*
X060450Y085930D01*
X060461Y085843D01*
X060495Y085761D01*
X060549Y085691D01*
X060567Y085678D01*
Y084862D01*
X060472D01*
D01*
D01*
X060472Y084862D01*
X060433D01*
Y084862D01*
X059803D01*
Y084788D01*
X059429D01*
Y084882D01*
X058839D01*
Y084862D01*
X058819D01*
Y084862D01*
X058250D01*
X058231Y084908D01*
X060074Y086752D01*
X060097Y086749D01*
X060184Y086761D01*
X060265Y086794D01*
X060335Y086848D01*
X060389Y086918D01*
X060423Y086999D01*
X060434Y087087D01*
X060423Y087174D01*
X060389Y087255D01*
X060335Y087325D01*
X060265Y087379D01*
X060184Y087413D01*
X060097Y087424D01*
X060009Y087413D01*
X059928Y087379D01*
X059858Y087325D01*
X059804Y087255D01*
X059771Y087174D01*
X059759Y087087D01*
X059762Y087064D01*
X057679Y084981D01*
X057631Y084909D01*
X057621Y084862D01*
X057520D01*
Y084272D01*
X058150D01*
Y084272D01*
X058150D01*
X058150Y084272D01*
X058189D01*
Y084272D01*
X058819D01*
Y084272D01*
X058819D01*
X058839Y084252D01*
Y084252D01*
X058839D01*
X058839Y084213D01*
X058839D01*
Y083948D01*
X059429D01*
Y084213D01*
D01*
Y084213D01*
X059429Y084213D01*
Y084252D01*
X059429D01*
Y084346D01*
X059803D01*
Y084307D01*
X059803Y084307D01*
X059803D01*
X059803Y084272D01*
X059803Y084272D01*
D01*
D01*
Y084272D01*
X059803D01*
D01*
Y084026D01*
X060118D01*
Y083926D01*
X059803D01*
Y083716D01*
X059803Y083716D01*
X059803D01*
X059803Y083681D01*
D01*
X059803D01*
D01*
Y083681D01*
Y083681D01*
X059803Y083681D01*
D01*
Y083681D01*
D01*
D01*
X059803Y083681D01*
X059803D01*
D01*
Y083436D01*
X060118D01*
Y083386D01*
X060168D01*
Y083091D01*
X060433D01*
Y083091D01*
X060433D01*
X060433Y083091D01*
X060472D01*
Y083091D01*
X060577D01*
Y082340D01*
X060577Y082340D01*
Y082227D01*
X060538Y082196D01*
X060472Y082209D01*
X060392Y082193D01*
X060323Y082147D01*
X060307D01*
X060238Y082193D01*
X060200Y082200D01*
X060192Y082221D01*
X060226Y082303D01*
X060238Y082390D01*
X060226Y082477D01*
X060192Y082559D01*
X060139Y082629D01*
X060069Y082682D01*
X059987Y082716D01*
X059900Y082728D01*
X059830Y082718D01*
X059800Y082758D01*
X059806Y082773D01*
X059818Y082860D01*
X059806Y082947D01*
X059772Y083029D01*
X059719Y083099D01*
X059649Y083152D01*
X059567Y083186D01*
X059480Y083198D01*
X059393Y083186D01*
X059311Y083152D01*
X059241Y083099D01*
X059228Y083081D01*
X058500D01*
X058416Y083064D01*
X058344Y083016D01*
X057633Y082306D01*
X057629Y082298D01*
X057581Y082313D01*
Y082909D01*
X057774Y083101D01*
X057791Y083088D01*
X057873Y083054D01*
X057960Y083042D01*
X058047Y083054D01*
X058129Y083088D01*
X058199Y083141D01*
X058252Y083211D01*
X058286Y083293D01*
X058298Y083380D01*
X058286Y083467D01*
X058252Y083549D01*
X058199Y083619D01*
X058129Y083672D01*
X058047Y083706D01*
X057960Y083718D01*
X057873Y083706D01*
X057791Y083672D01*
X057721Y083619D01*
X057702Y083593D01*
X057656Y083584D01*
X057584Y083536D01*
X057204Y083156D01*
X057156Y083084D01*
X057139Y083000D01*
Y080860D01*
X057156Y080776D01*
X057158Y080772D01*
X057135Y080728D01*
X056979D01*
Y080433D01*
X056929D01*
Y080383D01*
X056614D01*
Y080161D01*
X055591D01*
X055181Y080571D01*
Y092000D01*
X055164Y092084D01*
X055116Y092156D01*
X054498Y092774D01*
X054426Y092822D01*
X054342Y092839D01*
X053287D01*
Y092854D01*
Y092889D01*
X057369D01*
X057625Y092633D01*
X057622Y092610D01*
X057634Y092523D01*
X057668Y092441D01*
X057721Y092372D01*
X057791Y092318D01*
X057873Y092284D01*
X057960Y092273D01*
X058047Y092284D01*
X058129Y092318D01*
X058199Y092372D01*
X058252Y092441D01*
X058286Y092523D01*
X058298Y092610D01*
X058293Y092642D01*
X058326Y092679D01*
X058800D01*
X058884Y092696D01*
X058956Y092744D01*
X059306Y093094D01*
X059354Y093166D01*
X059371Y093250D01*
Y093716D01*
X064909D01*
X065372Y093252D01*
D02*
G37*
G36*
X072182Y097776D02*
Y095079D01*
X072193Y095025D01*
X072224Y094979D01*
X072266Y094937D01*
X072247Y094891D01*
X054750D01*
X054666Y094874D01*
X054594Y094826D01*
X054253Y094486D01*
X054205Y094414D01*
X054189Y094329D01*
Y094232D01*
X054094D01*
D01*
D01*
X054094Y094232D01*
X054055D01*
Y094232D01*
X053425D01*
Y094149D01*
X053383Y094141D01*
X053311Y094093D01*
X052929Y093711D01*
X052450D01*
X052421Y093734D01*
Y094626D01*
X051043D01*
Y093602D01*
X052185D01*
X052204Y093556D01*
X052134Y093486D01*
X052086Y093414D01*
X052069Y093330D01*
Y092336D01*
X052086Y092251D01*
X052134Y092180D01*
X052344Y091970D01*
X052416Y091922D01*
X052461Y091913D01*
Y091870D01*
Y091684D01*
X053287D01*
Y091870D01*
Y092362D01*
Y092397D01*
X054250D01*
X054739Y091909D01*
Y080480D01*
X054756Y080396D01*
X054804Y080324D01*
X054804Y080324D01*
X054804Y080324D01*
X055344Y079784D01*
X055344Y079784D01*
X055344D01*
X055344Y079784D01*
X055344D01*
X055344Y079784D01*
Y079784D01*
Y079784D01*
D01*
D01*
X055344D01*
Y079784D01*
X055416Y079736D01*
X055500Y079719D01*
X057508D01*
X057603Y079624D01*
X057588Y079577D01*
X057576Y079574D01*
X057504Y079526D01*
X057134Y079156D01*
X057086Y079084D01*
X057069Y079000D01*
Y066091D01*
X056553Y065575D01*
X055138D01*
Y065669D01*
X054547D01*
Y065039D01*
X054547Y065039D01*
X054547Y065000D01*
X054547D01*
Y064906D01*
X053689D01*
X053630Y064918D01*
X052793D01*
X052736Y064992D01*
X052649Y065058D01*
X052549Y065100D01*
X052441Y065114D01*
X052333Y065100D01*
X052232Y065058D01*
X052146Y064992D01*
X052080Y064905D01*
X052038Y064805D01*
X052024Y064697D01*
X052038Y064589D01*
X052080Y064488D01*
X052146Y064402D01*
X052232Y064336D01*
X052333Y064294D01*
X052441Y064280D01*
X052549Y064294D01*
X052649Y064336D01*
X052736Y064402D01*
X052793Y064476D01*
X053582D01*
X053642Y064464D01*
X054547D01*
Y064370D01*
X055138D01*
Y065000D01*
D01*
Y065000D01*
X055138Y065000D01*
Y065039D01*
X055138D01*
Y065134D01*
X056644D01*
X056729Y065150D01*
X056800Y065198D01*
X056800Y065198D01*
X056800Y065198D01*
X057446Y065844D01*
X057494Y065916D01*
X057511Y066000D01*
Y078152D01*
X057558Y078168D01*
X057601Y078111D01*
X057671Y078058D01*
X057753Y078024D01*
X057840Y078012D01*
X057927Y078024D01*
X058009Y078058D01*
X058079Y078111D01*
X058132Y078181D01*
X058166Y078263D01*
X058178Y078350D01*
X058166Y078437D01*
X058132Y078519D01*
X058079Y078589D01*
X058051Y078610D01*
Y078808D01*
X058087Y078844D01*
X058573D01*
X058653Y078860D01*
X058696Y078889D01*
X058731Y078853D01*
X058703Y078811D01*
X058687Y078730D01*
Y078524D01*
Y078317D01*
Y077590D01*
X058659Y077569D01*
X058605Y077499D01*
X058572Y077417D01*
X058560Y077330D01*
X058572Y077243D01*
X058605Y077161D01*
X058659Y077091D01*
X058729Y077038D01*
X058810Y077004D01*
X058898Y076992D01*
X058985Y077004D01*
X059066Y077038D01*
X059136Y077091D01*
X059190Y077161D01*
X059224Y077243D01*
X059235Y077330D01*
X059224Y077417D01*
X059190Y077499D01*
X059136Y077569D01*
X059108Y077590D01*
Y078088D01*
X059147Y078119D01*
X059198Y078109D01*
X059220Y078067D01*
X059221Y078064D01*
X059202Y078017D01*
X059190Y077930D01*
X059202Y077843D01*
X059235Y077761D01*
X059289Y077691D01*
X059359Y077638D01*
X059440Y077604D01*
X059528Y077592D01*
X059615Y077604D01*
X059696Y077638D01*
X059766Y077691D01*
X059820Y077761D01*
X059854Y077843D01*
X059865Y077930D01*
X059854Y078017D01*
X059834Y078064D01*
X059843Y078106D01*
X059923Y078122D01*
X059992Y078168D01*
X060008D01*
X060077Y078122D01*
X060157Y078106D01*
X060238Y078122D01*
X060307Y078168D01*
X060323D01*
X060392Y078122D01*
X060472Y078106D01*
X060553Y078122D01*
X060621Y078168D01*
X060638D01*
X060707Y078122D01*
X060787Y078106D01*
X060868Y078122D01*
X060936Y078168D01*
X060953D01*
X061022Y078122D01*
X061102Y078106D01*
X061183Y078122D01*
X061251Y078168D01*
X061297Y078236D01*
X061313Y078317D01*
Y078473D01*
X061323Y078524D01*
X061313Y078574D01*
Y078820D01*
X061337Y078844D01*
X061841D01*
X061921Y078860D01*
X061990Y078906D01*
X062035Y078974D01*
X062051Y079055D01*
X062035Y079136D01*
X061990Y079204D01*
Y079221D01*
X062035Y079289D01*
X062051Y079370D01*
X062035Y079451D01*
X062048Y079474D01*
X062450D01*
X062500Y079464D01*
X062584Y079481D01*
X062656Y079529D01*
X063456Y080329D01*
X063456Y080329D01*
X063456Y080329D01*
X063504Y080401D01*
X063521Y080485D01*
Y085689D01*
X064091Y086259D01*
X064646D01*
Y085768D01*
X064740D01*
Y085453D01*
X064469D01*
Y084744D01*
X065263D01*
X065317Y084588D01*
X065287Y084547D01*
X064469D01*
Y083839D01*
X065453D01*
Y084250D01*
X065499Y084269D01*
X066274Y083494D01*
X066346Y083446D01*
X066430Y083429D01*
X066850D01*
X066934Y083446D01*
X067006Y083494D01*
X068094Y084582D01*
X068151Y084552D01*
X068266Y084517D01*
X068386Y084505D01*
X068505Y084517D01*
X068621Y084552D01*
X068727Y084608D01*
X068819Y084685D01*
X068896Y084777D01*
X068952Y084883D01*
X068987Y084998D01*
X068999Y085118D01*
X068987Y085238D01*
X068952Y085353D01*
X068896Y085459D01*
X068849Y085516D01*
X069276Y085944D01*
X069324Y086016D01*
X069329Y086043D01*
X069379Y086038D01*
Y081291D01*
X066301Y078213D01*
X066253Y078141D01*
X066236Y078057D01*
Y069384D01*
Y066821D01*
X066142D01*
Y066599D01*
X065940D01*
X065939Y066599D01*
X065886D01*
Y066791D01*
X064980D01*
Y066051D01*
X063890D01*
X063806Y066034D01*
X063734Y065986D01*
X062614Y064866D01*
X060787D01*
Y065039D01*
X060000D01*
Y064252D01*
X060787D01*
Y064425D01*
X062706D01*
X062790Y064442D01*
X062862Y064490D01*
X062862Y064490D01*
X062862Y064490D01*
X063981Y065609D01*
X064980D01*
Y065326D01*
X065886D01*
Y065517D01*
X065924Y065548D01*
X065970Y065539D01*
X066750D01*
X066834Y065556D01*
X066906Y065604D01*
X067066Y065764D01*
X067114Y065836D01*
X067131Y065920D01*
Y065935D01*
X067312D01*
Y066378D01*
X067362D01*
Y066428D01*
X067677D01*
Y066719D01*
X067953D01*
Y065935D01*
X068583D01*
Y066157D01*
X068679D01*
X068680Y066157D01*
X068799D01*
Y066063D01*
X068799Y066063D01*
X068799Y066024D01*
X068799D01*
Y065759D01*
X069390D01*
Y066024D01*
D01*
Y066024D01*
X069390Y066024D01*
Y066063D01*
X069390D01*
Y066693D01*
X068799D01*
Y066599D01*
X068681D01*
X068680Y066599D01*
X068583D01*
Y066821D01*
X068484D01*
X068472Y066882D01*
X068424Y066953D01*
X068281Y067096D01*
X068209Y067144D01*
X068125Y067161D01*
X066910D01*
X066826Y067144D01*
X066754Y067096D01*
X066726Y067054D01*
X066678Y067068D01*
Y069292D01*
X067091Y069706D01*
X071222D01*
X071307Y069723D01*
X071378Y069771D01*
X071378Y069771D01*
X071378Y069771D01*
X072451Y070844D01*
X072499Y070916D01*
X072516Y071000D01*
X072516Y071000D01*
X072516Y071000D01*
Y071000D01*
Y077000D01*
X072499Y077084D01*
X072451Y077156D01*
X072171Y077436D01*
X072100Y077484D01*
X072015Y077501D01*
X071500D01*
X071416Y077484D01*
X071344Y077436D01*
X071296Y077364D01*
X071281Y077288D01*
X070877Y076884D01*
X070831Y076903D01*
Y076951D01*
X070834Y076955D01*
X070851Y077040D01*
Y077106D01*
X070945D01*
Y077697D01*
X070315D01*
D01*
D01*
X070315Y077697D01*
X070276D01*
Y077697D01*
X070011D01*
Y077401D01*
Y077106D01*
X070276D01*
Y077106D01*
X070276D01*
X070276Y077106D01*
X070315D01*
Y077106D01*
X070367D01*
X070399Y077068D01*
X070389Y077020D01*
Y076824D01*
X070176D01*
X070114Y076812D01*
X070062Y076777D01*
X070028Y076725D01*
X070015Y076663D01*
Y076407D01*
X070028Y076346D01*
X070062Y076294D01*
X070114Y076259D01*
X070176Y076247D01*
X070197D01*
Y076202D01*
X070610D01*
Y076102D01*
X070197D01*
Y076046D01*
X070189Y076044D01*
X070136Y076009D01*
X069954Y075827D01*
X069873Y075816D01*
X069791Y075782D01*
X069721Y075729D01*
X069668Y075659D01*
X069634Y075577D01*
X069622Y075490D01*
X069634Y075403D01*
X069645Y075377D01*
X069603Y075349D01*
X069156Y075796D01*
X069084Y075844D01*
X069000Y075861D01*
X068916Y075844D01*
X068851Y075800D01*
X068780D01*
Y075961D01*
X068785Y075991D01*
X068837Y076001D01*
X068847Y076003D01*
X068899Y076038D01*
X068899Y076038D01*
X068899Y076038D01*
X069142Y076281D01*
X069218Y076296D01*
X069290Y076344D01*
X069338Y076416D01*
X069355Y076500D01*
Y077106D01*
X069449D01*
Y077697D01*
X068819D01*
D01*
D01*
X068819Y077697D01*
X068780D01*
Y077697D01*
X068515D01*
Y077401D01*
Y077106D01*
X068780D01*
Y077106D01*
X068780D01*
X068780Y077106D01*
X068819D01*
Y077106D01*
X068913D01*
Y076506D01*
X068826Y076419D01*
X068780Y076438D01*
Y076506D01*
Y076613D01*
X068366D01*
Y076663D01*
X068316D01*
Y076821D01*
X067953D01*
Y076747D01*
X067907Y076728D01*
X067855Y076780D01*
X067840Y076856D01*
X067792Y076928D01*
X067720Y076976D01*
X067636Y076992D01*
X067539D01*
Y077087D01*
X066949D01*
Y076457D01*
X066949Y076457D01*
X066949Y076417D01*
X066949D01*
Y075787D01*
Y075590D01*
X066746Y075507D01*
X066746Y075507D01*
X066746Y075506D01*
X066722Y075491D01*
X066678Y075514D01*
Y077966D01*
X069756Y081044D01*
X069756Y081044D01*
X069756Y081044D01*
X069804Y081116D01*
X069821Y081200D01*
Y090409D01*
X070471Y091059D01*
X074909D01*
X075031Y090937D01*
X075009Y090892D01*
X075050Y090887D01*
Y090496D01*
Y090106D01*
X075103Y090112D01*
X075199Y090152D01*
X075254Y090195D01*
X075299Y090173D01*
Y089819D01*
X075254Y089797D01*
X075199Y089840D01*
X075103Y089880D01*
X075000Y089893D01*
X074897Y089880D01*
X074801Y089840D01*
X074719Y089777D01*
X074656Y089695D01*
X074616Y089599D01*
X074603Y089496D01*
X074616Y089393D01*
X074656Y089298D01*
X074719Y089215D01*
X074801Y089152D01*
X074897Y089112D01*
X075000Y089099D01*
X075103Y089112D01*
X075199Y089152D01*
X075254Y089195D01*
X075299Y089173D01*
Y088819D01*
X075254Y088797D01*
X075199Y088840D01*
X075103Y088880D01*
X075000Y088893D01*
X074897Y088880D01*
X074801Y088840D01*
X074719Y088777D01*
X074656Y088695D01*
X074616Y088599D01*
X074603Y088496D01*
X074616Y088393D01*
X074656Y088298D01*
X074719Y088215D01*
X074801Y088152D01*
X074897Y088112D01*
X075000Y088099D01*
X075103Y088112D01*
X075199Y088152D01*
X075254Y088195D01*
X075299Y088173D01*
Y087819D01*
X075254Y087797D01*
X075199Y087840D01*
X075103Y087880D01*
X075000Y087893D01*
X074897Y087880D01*
X074801Y087840D01*
X074719Y087777D01*
X074656Y087695D01*
X074616Y087599D01*
X074603Y087496D01*
X074616Y087393D01*
X074656Y087298D01*
X074719Y087215D01*
X074801Y087152D01*
X074897Y087112D01*
X075000Y087099D01*
X075103Y087112D01*
X075199Y087152D01*
X075254Y087195D01*
X075299Y087173D01*
Y086890D01*
X074606D01*
Y086102D01*
X075215D01*
X075234Y086056D01*
X074909Y085731D01*
X074581D01*
X074221Y086091D01*
Y086169D01*
X074281Y086215D01*
X074344Y086298D01*
X074384Y086393D01*
X074397Y086496D01*
X074384Y086599D01*
X074344Y086695D01*
X074281Y086777D01*
X074199Y086840D01*
X074103Y086880D01*
X074000Y086893D01*
X073897Y086880D01*
X073801Y086840D01*
X073719Y086777D01*
X073656Y086695D01*
X073616Y086599D01*
X073603Y086496D01*
X073616Y086393D01*
X073656Y086298D01*
X073719Y086215D01*
X073779Y086169D01*
Y086000D01*
X073796Y085916D01*
X073844Y085844D01*
X074334Y085354D01*
X074406Y085306D01*
X074490Y085289D01*
X075000D01*
X075084Y085306D01*
X075156Y085354D01*
X075156Y085354D01*
X075156Y085354D01*
X075676Y085874D01*
X075724Y085946D01*
X075741Y086030D01*
Y090760D01*
Y091510D01*
X075724Y091594D01*
X075676Y091666D01*
X072647Y094695D01*
X072666Y094741D01*
X076871D01*
X077104Y094509D01*
Y063916D01*
X076910Y063723D01*
X072520D01*
X072466Y063712D01*
X072420Y063682D01*
X072263Y063525D01*
X072232Y063479D01*
X072222Y063425D01*
Y060767D01*
X072107Y060652D01*
X071727D01*
X071706Y060698D01*
X071772Y060774D01*
X071883Y060956D01*
X071965Y061154D01*
X072015Y061362D01*
X072032Y061575D01*
X072015Y061788D01*
X071965Y061996D01*
X071883Y062193D01*
X071772Y062376D01*
X071633Y062538D01*
X071470Y062677D01*
X071288Y062789D01*
X071090Y062871D01*
X070882Y062920D01*
X070669Y062937D01*
X070456Y062920D01*
X070248Y062871D01*
X070051Y062789D01*
X069868Y062677D01*
X069706Y062538D01*
X069567Y062376D01*
X069455Y062193D01*
X069374Y061996D01*
X069324Y061788D01*
X069307Y061575D01*
X069324Y061362D01*
X069374Y061154D01*
X069455Y060956D01*
X069567Y060774D01*
X069632Y060698D01*
X069611Y060652D01*
X054011D01*
X053990Y060698D01*
X054055Y060774D01*
X054167Y060956D01*
X054249Y061154D01*
X054298Y061362D01*
X054315Y061575D01*
X054298Y061788D01*
X054249Y061996D01*
X054167Y062193D01*
X054055Y062376D01*
X053916Y062538D01*
X053754Y062677D01*
X053571Y062789D01*
X053374Y062871D01*
X053166Y062920D01*
X052953Y062937D01*
X052740Y062920D01*
X052532Y062871D01*
X052334Y062789D01*
X052152Y062677D01*
X051989Y062538D01*
X051851Y062376D01*
X051739Y062193D01*
X051657Y061996D01*
X051607Y061788D01*
X051590Y061575D01*
X051607Y061362D01*
X051657Y061154D01*
X051739Y060956D01*
X051851Y060774D01*
X051916Y060698D01*
X051895Y060652D01*
X050889D01*
Y098009D01*
X051962D01*
X051983Y097964D01*
X051851Y097809D01*
X051739Y097626D01*
X051657Y097429D01*
X051607Y097221D01*
X051590Y097008D01*
X051607Y096795D01*
X051657Y096587D01*
X051739Y096389D01*
X051851Y096207D01*
X051989Y096044D01*
X052152Y095906D01*
X052334Y095794D01*
X052532Y095712D01*
X052740Y095662D01*
X052953Y095645D01*
X053166Y095662D01*
X053374Y095712D01*
X053571Y095794D01*
X053754Y095906D01*
X053916Y096044D01*
X054055Y096207D01*
X054167Y096389D01*
X054249Y096587D01*
X054298Y096795D01*
X054315Y097008D01*
X054298Y097221D01*
X054249Y097429D01*
X054167Y097626D01*
X054055Y097809D01*
X053916Y097971D01*
X053930Y098009D01*
X069678D01*
X069699Y097964D01*
X069567Y097809D01*
X069455Y097626D01*
X069374Y097429D01*
X069324Y097221D01*
X069307Y097008D01*
X069324Y096795D01*
X069374Y096587D01*
X069455Y096389D01*
X069567Y096207D01*
X069706Y096044D01*
X069868Y095906D01*
X070051Y095794D01*
X070248Y095712D01*
X070456Y095662D01*
X070669Y095645D01*
X070882Y095662D01*
X071090Y095712D01*
X071288Y095794D01*
X071470Y095906D01*
X071633Y096044D01*
X071772Y096207D01*
X071883Y096389D01*
X071965Y096587D01*
X072015Y096795D01*
X072032Y097008D01*
X072015Y097221D01*
X071965Y097429D01*
X071883Y097626D01*
X071772Y097809D01*
X071633Y097971D01*
X071647Y098009D01*
X071950D01*
X072182Y097776D01*
D02*
G37*
G36*
X075299Y091419D02*
Y091358D01*
X075253Y091339D01*
X075156Y091436D01*
X075084Y091484D01*
X075000Y091501D01*
X070380D01*
X070296Y091484D01*
X070224Y091436D01*
X069444Y090656D01*
X069396Y090584D01*
X069379Y090500D01*
Y089229D01*
X069334Y089207D01*
X069289Y089242D01*
X069207Y089276D01*
X069120Y089288D01*
X069033Y089276D01*
X068951Y089242D01*
X068881Y089189D01*
X068828Y089119D01*
X068794Y089037D01*
X068782Y088950D01*
X068794Y088863D01*
X068828Y088781D01*
X068881Y088711D01*
X068899Y088698D01*
Y087497D01*
X068852Y087480D01*
X068819Y087520D01*
X068727Y087596D01*
X068621Y087653D01*
X068505Y087688D01*
X068386Y087700D01*
X068266Y087688D01*
X068151Y087653D01*
X068045Y087596D01*
X067952Y087520D01*
X067876Y087427D01*
X067819Y087321D01*
X067784Y087206D01*
X067773Y087087D01*
X067784Y086967D01*
X067819Y086852D01*
X067876Y086746D01*
X067952Y086653D01*
X068045Y086577D01*
X068151Y086520D01*
X068266Y086485D01*
X068386Y086473D01*
X068505Y086485D01*
X068621Y086520D01*
X068727Y086577D01*
X068819Y086653D01*
X068852Y086693D01*
X068899Y086676D01*
Y086191D01*
X068434Y085727D01*
X068386Y085731D01*
X068266Y085720D01*
X068151Y085685D01*
X068045Y085628D01*
X067952Y085552D01*
X067876Y085459D01*
X067819Y085353D01*
X067784Y085238D01*
X067773Y085118D01*
X067784Y084998D01*
X067808Y084920D01*
X067074Y084186D01*
X067028Y084205D01*
Y084596D01*
X066043D01*
Y084414D01*
X065997Y084395D01*
X065772Y084620D01*
X065584Y085170D01*
X065580Y085176D01*
X065579Y085183D01*
X065559Y085213D01*
X065541Y085244D01*
X065535Y085249D01*
X065531Y085255D01*
X065501Y085275D01*
X065472Y085297D01*
X065465Y085299D01*
X065459Y085302D01*
X065453Y085304D01*
Y085453D01*
X065181D01*
Y085768D01*
X065276D01*
Y085768D01*
X065276D01*
X065276Y085768D01*
X065315D01*
Y085768D01*
X065945D01*
Y086358D01*
X065849D01*
X065834Y086435D01*
X065786Y086506D01*
X065656Y086636D01*
X065584Y086684D01*
X065500Y086701D01*
X064000D01*
X063916Y086684D01*
X063844Y086636D01*
X063144Y085936D01*
X063096Y085864D01*
X063079Y085780D01*
Y080576D01*
X062399Y079896D01*
X062070D01*
X062038Y079934D01*
X062051Y080000D01*
X062035Y080081D01*
X061990Y080149D01*
Y080166D01*
X062035Y080234D01*
X062051Y080315D01*
X062035Y080396D01*
X061990Y080464D01*
Y080481D01*
X062035Y080549D01*
X062051Y080630D01*
X062035Y080711D01*
X061990Y080779D01*
Y080796D01*
X062035Y080864D01*
X062051Y080945D01*
X062035Y081026D01*
X061990Y081094D01*
Y081111D01*
X062035Y081179D01*
X062051Y081260D01*
X062035Y081340D01*
X061990Y081409D01*
X061921Y081455D01*
X061841Y081471D01*
X061427D01*
X061347Y081455D01*
X061304Y081426D01*
X061269Y081461D01*
X061297Y081504D01*
X061313Y081585D01*
Y081589D01*
X061500D01*
X061581Y081605D01*
X061649Y081651D01*
X061873Y081875D01*
X061916Y081904D01*
X061964Y081976D01*
X061981Y082060D01*
Y091157D01*
X062591Y091767D01*
X064508D01*
Y091634D01*
X065492D01*
Y091767D01*
X065740D01*
X065824Y091784D01*
X065896Y091832D01*
X066036Y091972D01*
X066083Y091953D01*
Y091585D01*
X066525D01*
Y092028D01*
X066157D01*
X066138Y092074D01*
X067746Y093682D01*
X067795Y093674D01*
X067837Y093596D01*
X067913Y093503D01*
X068006Y093427D01*
X068112Y093370D01*
X068227Y093336D01*
X068346Y093324D01*
X068466Y093336D01*
X068581Y093370D01*
X068687Y093427D01*
X068780Y093503D01*
X068856Y093596D01*
X068913Y093702D01*
X068948Y093817D01*
X068960Y093937D01*
X068948Y094057D01*
X068913Y094172D01*
X068856Y094278D01*
X068780Y094371D01*
X068687Y094447D01*
X068688Y094449D01*
X072269D01*
X075299Y091419D01*
D02*
G37*
%LPC*%
G36*
X054843Y078688D02*
X054755Y078676D01*
X054674Y078642D01*
X054604Y078589D01*
X054550Y078519D01*
X054516Y078437D01*
X054505Y078350D01*
X054516Y078263D01*
X054550Y078181D01*
X054604Y078111D01*
X054622Y078098D01*
Y074016D01*
X054547D01*
Y073386D01*
X054547Y073386D01*
X054547Y073346D01*
X054547D01*
Y073252D01*
X053668D01*
X053583Y073235D01*
X053567Y073225D01*
X052832D01*
X052775Y073299D01*
X052689Y073365D01*
X052588Y073407D01*
X052480Y073421D01*
X052372Y073407D01*
X052272Y073365D01*
X052185Y073299D01*
X052119Y073212D01*
X052078Y073112D01*
X052063Y073004D01*
X052078Y072896D01*
X052119Y072795D01*
X052185Y072709D01*
X052272Y072643D01*
X052372Y072601D01*
X052480Y072587D01*
X052588Y072601D01*
X052689Y072643D01*
X052775Y072709D01*
X052832Y072783D01*
X053640D01*
X053724Y072800D01*
X053741Y072811D01*
X054547D01*
Y072717D01*
X055138D01*
Y073346D01*
D01*
Y073346D01*
X055138Y073346D01*
Y073386D01*
X055138D01*
Y074016D01*
X055063D01*
Y078098D01*
X055081Y078111D01*
X055135Y078181D01*
X055169Y078263D01*
X055180Y078350D01*
X055169Y078437D01*
X055135Y078519D01*
X055081Y078589D01*
X055011Y078642D01*
X054930Y078676D01*
X054843Y078688D01*
D02*
G37*
G36*
X073407Y073877D02*
X073344Y073869D01*
X073239Y073825D01*
X073149Y073756D01*
X073080Y073666D01*
X073037Y073561D01*
X073028Y073499D01*
X073407D01*
Y073877D01*
D02*
G37*
G36*
X067790Y073860D02*
X067509D01*
X067514Y073823D01*
X067548Y073741D01*
X067601Y073671D01*
X067671Y073618D01*
X067753Y073584D01*
X067790Y073579D01*
Y073860D01*
D02*
G37*
G36*
X074575Y074429D02*
X074462Y074414D01*
X074357Y074371D01*
X074267Y074302D01*
X074198Y074212D01*
X074155Y074107D01*
X074140Y073994D01*
X074155Y073882D01*
X074198Y073777D01*
X074267Y073687D01*
X074357Y073618D01*
X074462Y073574D01*
X074575Y073559D01*
X074687Y073574D01*
X074792Y073618D01*
X074882Y073687D01*
X074951Y073777D01*
X074995Y073882D01*
X075010Y073994D01*
X074995Y074107D01*
X074951Y074212D01*
X074882Y074302D01*
X074792Y074371D01*
X074687Y074414D01*
X074575Y074429D01*
D02*
G37*
G36*
X073507Y073877D02*
Y073499D01*
X073885D01*
X073877Y073561D01*
X073833Y073666D01*
X073764Y073756D01*
X073674Y073825D01*
X073569Y073869D01*
X073507Y073877D01*
D02*
G37*
G36*
X052430Y071855D02*
X052372Y071848D01*
X052272Y071806D01*
X052185Y071740D01*
X052119Y071653D01*
X052078Y071553D01*
X052070Y071495D01*
X052430D01*
Y071855D01*
D02*
G37*
G36*
X055690Y077668D02*
X055603Y077656D01*
X055521Y077622D01*
X055451Y077569D01*
X055398Y077499D01*
X055364Y077417D01*
X055352Y077330D01*
X055364Y077243D01*
X055398Y077161D01*
X055451Y077091D01*
X055469Y077078D01*
Y071591D01*
X055201Y071323D01*
X055138D01*
Y071417D01*
X054547D01*
Y070787D01*
X054547Y070787D01*
X054547Y070748D01*
X054547D01*
Y070654D01*
X053709D01*
X053650Y070666D01*
X052832D01*
X052775Y070740D01*
X052689Y070806D01*
X052588Y070848D01*
X052480Y070862D01*
X052372Y070848D01*
X052272Y070806D01*
X052185Y070740D01*
X052119Y070653D01*
X052078Y070553D01*
X052063Y070445D01*
X052078Y070337D01*
X052119Y070236D01*
X052185Y070150D01*
X052272Y070084D01*
X052372Y070042D01*
X052480Y070028D01*
X052588Y070042D01*
X052689Y070084D01*
X052775Y070150D01*
X052832Y070224D01*
X053602D01*
X053662Y070212D01*
X054547D01*
Y070118D01*
X055138D01*
Y070748D01*
D01*
Y070748D01*
X055138Y070748D01*
Y070787D01*
X055138D01*
Y070882D01*
X055292D01*
X055377Y070898D01*
X055448Y070946D01*
X055846Y071344D01*
X055894Y071416D01*
X055911Y071500D01*
X055911Y071500D01*
X055911Y071500D01*
Y071500D01*
Y077078D01*
X055929Y077091D01*
X055982Y077161D01*
X056016Y077243D01*
X056028Y077330D01*
X056016Y077417D01*
X055982Y077499D01*
X055929Y077569D01*
X055859Y077622D01*
X055777Y077656D01*
X055690Y077668D01*
D02*
G37*
G36*
X052530Y071855D02*
Y071495D01*
X052891D01*
X052883Y071553D01*
X052841Y071653D01*
X052775Y071740D01*
X052689Y071806D01*
X052588Y071848D01*
X052530Y071855D01*
D02*
G37*
G36*
X073885Y073399D02*
X073507D01*
Y073021D01*
X073569Y073029D01*
X073674Y073072D01*
X073764Y073141D01*
X073833Y073231D01*
X073877Y073336D01*
X073885Y073399D01*
D02*
G37*
G36*
X073407D02*
X073028D01*
X073037Y073336D01*
X073080Y073231D01*
X073149Y073141D01*
X073239Y073072D01*
X073344Y073029D01*
X073407Y073021D01*
Y073399D01*
D02*
G37*
G36*
X052430Y073954D02*
X052070D01*
X052078Y073896D01*
X052119Y073795D01*
X052185Y073709D01*
X052272Y073643D01*
X052372Y073601D01*
X052430Y073594D01*
Y073954D01*
D02*
G37*
G36*
X074575Y076610D02*
X074462Y076595D01*
X074357Y076552D01*
X074267Y076483D01*
X074198Y076393D01*
X074155Y076288D01*
X074140Y076175D01*
X074155Y076063D01*
X074198Y075958D01*
X074267Y075868D01*
X074357Y075799D01*
X074462Y075755D01*
X074575Y075740D01*
X074687Y075755D01*
X074792Y075799D01*
X074882Y075868D01*
X074951Y075958D01*
X074995Y076063D01*
X075010Y076175D01*
X074995Y076288D01*
X074951Y076393D01*
X074882Y076483D01*
X074792Y076552D01*
X074687Y076595D01*
X074575Y076610D01*
D02*
G37*
G36*
X073457Y076065D02*
X073344Y076050D01*
X073239Y076007D01*
X073149Y075937D01*
X073080Y075847D01*
X073037Y075742D01*
X073022Y075630D01*
X073037Y075517D01*
X073080Y075413D01*
X073149Y075322D01*
X073239Y075253D01*
X073344Y075210D01*
X073457Y075195D01*
X073569Y075210D01*
X073674Y075253D01*
X073764Y075322D01*
X073833Y075413D01*
X073877Y075517D01*
X073892Y075630D01*
X073877Y075742D01*
X073833Y075847D01*
X073764Y075937D01*
X073674Y076007D01*
X073569Y076050D01*
X073457Y076065D01*
D02*
G37*
G36*
Y077155D02*
X073344Y077140D01*
X073239Y077097D01*
X073149Y077028D01*
X073080Y076938D01*
X073037Y076833D01*
X073022Y076720D01*
X073037Y076608D01*
X073080Y076503D01*
X073149Y076413D01*
X073239Y076344D01*
X073344Y076300D01*
X073457Y076286D01*
X073569Y076300D01*
X073674Y076344D01*
X073764Y076413D01*
X073833Y076503D01*
X073877Y076608D01*
X073892Y076720D01*
X073877Y076833D01*
X073833Y076938D01*
X073764Y077028D01*
X073674Y077097D01*
X073569Y077140D01*
X073457Y077155D01*
D02*
G37*
G36*
X074575Y077701D02*
X074462Y077686D01*
X074357Y077642D01*
X074267Y077573D01*
X074198Y077483D01*
X074155Y077378D01*
X074140Y077266D01*
X074155Y077153D01*
X074198Y077048D01*
X074267Y076958D01*
X074357Y076889D01*
X074462Y076846D01*
X074575Y076831D01*
X074687Y076846D01*
X074792Y076889D01*
X074882Y076958D01*
X074951Y077048D01*
X074995Y077153D01*
X075010Y077266D01*
X074995Y077378D01*
X074951Y077483D01*
X074882Y077573D01*
X074792Y077642D01*
X074687Y077686D01*
X074575Y077701D01*
D02*
G37*
G36*
X068780Y076821D02*
X068416D01*
Y076713D01*
X068780D01*
Y076821D01*
D02*
G37*
G36*
X074575Y075519D02*
X074462Y075505D01*
X074357Y075461D01*
X074267Y075392D01*
X074198Y075302D01*
X074155Y075197D01*
X074140Y075085D01*
X074155Y074972D01*
X074198Y074867D01*
X074267Y074777D01*
X074357Y074708D01*
X074462Y074665D01*
X074575Y074650D01*
X074687Y074665D01*
X074792Y074708D01*
X074882Y074777D01*
X074951Y074867D01*
X074995Y074972D01*
X075010Y075085D01*
X074995Y075197D01*
X074951Y075302D01*
X074882Y075392D01*
X074792Y075461D01*
X074687Y075505D01*
X074575Y075519D01*
D02*
G37*
G36*
X067790Y074241D02*
X067753Y074236D01*
X067671Y074202D01*
X067601Y074149D01*
X067548Y074079D01*
X067514Y073997D01*
X067509Y073960D01*
X067790D01*
Y074241D01*
D02*
G37*
G36*
X052891Y073954D02*
X052530D01*
Y073594D01*
X052588Y073601D01*
X052689Y073643D01*
X052775Y073709D01*
X052841Y073795D01*
X052883Y073896D01*
X052891Y073954D01*
D02*
G37*
G36*
X052430Y074414D02*
X052372Y074407D01*
X052272Y074365D01*
X052185Y074299D01*
X052119Y074212D01*
X052078Y074112D01*
X052070Y074054D01*
X052430D01*
Y074414D01*
D02*
G37*
G36*
X073457Y074974D02*
X073344Y074959D01*
X073239Y074916D01*
X073149Y074847D01*
X073080Y074757D01*
X073037Y074652D01*
X073022Y074539D01*
X073037Y074427D01*
X073080Y074322D01*
X073149Y074232D01*
X073239Y074163D01*
X073344Y074119D01*
X073457Y074105D01*
X073569Y074119D01*
X073674Y074163D01*
X073764Y074232D01*
X073833Y074322D01*
X073877Y074427D01*
X073892Y074539D01*
X073877Y074652D01*
X073833Y074757D01*
X073764Y074847D01*
X073674Y074916D01*
X073569Y074959D01*
X073457Y074974D01*
D02*
G37*
G36*
X052530Y074414D02*
Y074054D01*
X052891D01*
X052883Y074112D01*
X052841Y074212D01*
X052775Y074299D01*
X052689Y074365D01*
X052588Y074407D01*
X052530Y074414D01*
D02*
G37*
G36*
X052891Y071395D02*
X052530D01*
Y071035D01*
X052588Y071042D01*
X052689Y071084D01*
X052775Y071150D01*
X052841Y071236D01*
X052883Y071337D01*
X052891Y071395D01*
D02*
G37*
G36*
X075921Y066143D02*
X074889D01*
Y065111D01*
X075008Y065120D01*
X075174Y065160D01*
X075332Y065225D01*
X075477Y065314D01*
X075607Y065425D01*
X075717Y065555D01*
X075806Y065700D01*
X075871Y065857D01*
X075911Y066023D01*
X075921Y066143D01*
D02*
G37*
G36*
X074789D02*
X073757D01*
X073766Y066023D01*
X073806Y065857D01*
X073871Y065700D01*
X073960Y065555D01*
X074071Y065425D01*
X074200Y065314D01*
X074346Y065225D01*
X074503Y065160D01*
X074669Y065120D01*
X074789Y065111D01*
Y066143D01*
D02*
G37*
G36*
X072083Y067279D02*
X071913Y067266D01*
X071747Y067226D01*
X071590Y067161D01*
X071444Y067072D01*
X071315Y066961D01*
X071204Y066831D01*
X071115Y066686D01*
X071050Y066529D01*
X071010Y066363D01*
X070997Y066193D01*
X071010Y066023D01*
X071050Y065857D01*
X071115Y065700D01*
X071204Y065555D01*
X071315Y065425D01*
X071444Y065314D01*
X071590Y065225D01*
X071747Y065160D01*
X071913Y065120D01*
X072083Y065107D01*
X072253Y065120D01*
X072418Y065160D01*
X072576Y065225D01*
X072721Y065314D01*
X072851Y065425D01*
X072961Y065555D01*
X073050Y065700D01*
X073116Y065857D01*
X073155Y066023D01*
X073169Y066193D01*
X073155Y066363D01*
X073116Y066529D01*
X073050Y066686D01*
X072961Y066831D01*
X072851Y066961D01*
X072721Y067072D01*
X072576Y067161D01*
X072418Y067226D01*
X072253Y067266D01*
X072083Y067279D01*
D02*
G37*
G36*
X052851Y065647D02*
X052491D01*
Y065286D01*
X052549Y065294D01*
X052649Y065336D01*
X052736Y065402D01*
X052802Y065488D01*
X052844Y065589D01*
X052851Y065647D01*
D02*
G37*
G36*
X052391D02*
X052031D01*
X052038Y065589D01*
X052080Y065488D01*
X052146Y065402D01*
X052232Y065336D01*
X052333Y065294D01*
X052391Y065286D01*
Y065647D01*
D02*
G37*
G36*
X060394Y066043D02*
X060291Y066029D01*
X060195Y065990D01*
X060113Y065926D01*
X060050Y065844D01*
X060010Y065748D01*
X059997Y065646D01*
X060010Y065543D01*
X060050Y065447D01*
X060113Y065365D01*
X060195Y065302D01*
X060291Y065262D01*
X060394Y065249D01*
X060496Y065262D01*
X060592Y065302D01*
X060674Y065365D01*
X060738Y065447D01*
X060777Y065543D01*
X060791Y065646D01*
X060777Y065748D01*
X060738Y065844D01*
X060674Y065926D01*
X060592Y065990D01*
X060496Y066029D01*
X060394Y066043D01*
D02*
G37*
G36*
X067312Y064242D02*
X066585D01*
Y063849D01*
X067312D01*
Y064242D01*
D02*
G37*
G36*
X068140Y063749D02*
X067412D01*
Y063356D01*
X068140D01*
Y063749D01*
D02*
G37*
G36*
X067312D02*
X066585D01*
Y063356D01*
X067312D01*
Y063749D01*
D02*
G37*
G36*
X065886Y065226D02*
X065483D01*
Y064862D01*
X065886D01*
Y065226D01*
D02*
G37*
G36*
X065383D02*
X064980D01*
Y064862D01*
X065383D01*
Y065226D01*
D02*
G37*
G36*
X068140Y064242D02*
X067412D01*
Y063849D01*
X068140D01*
Y064242D01*
D02*
G37*
G36*
X073608Y069047D02*
X073488Y069037D01*
X073322Y068997D01*
X073164Y068932D01*
X073019Y068843D01*
X072890Y068733D01*
X072779Y068603D01*
X072690Y068458D01*
X072625Y068300D01*
X072585Y068134D01*
X072575Y068015D01*
X073608D01*
Y069047D01*
D02*
G37*
G36*
Y067915D02*
X072575D01*
X072585Y067795D01*
X072625Y067629D01*
X072690Y067472D01*
X072779Y067326D01*
X072890Y067197D01*
X073019Y067086D01*
X073164Y066997D01*
X073322Y066932D01*
X073488Y066892D01*
X073608Y066882D01*
Y067915D01*
D02*
G37*
G36*
X074889Y067275D02*
Y066243D01*
X075921D01*
X075911Y066363D01*
X075871Y066529D01*
X075806Y066686D01*
X075717Y066831D01*
X075607Y066961D01*
X075477Y067072D01*
X075332Y067161D01*
X075174Y067226D01*
X075008Y067266D01*
X074889Y067275D01*
D02*
G37*
G36*
X052430Y071395D02*
X052070D01*
X052078Y071337D01*
X052119Y071236D01*
X052185Y071150D01*
X052272Y071084D01*
X052372Y071042D01*
X052430Y071035D01*
Y071395D01*
D02*
G37*
G36*
X074016Y071749D02*
X073853Y071736D01*
X073695Y071698D01*
X073544Y071636D01*
X073405Y071551D01*
X073281Y071445D01*
X073175Y071321D01*
X073090Y071182D01*
X073028Y071032D01*
X072990Y070873D01*
X072977Y070711D01*
X072990Y070548D01*
X073028Y070390D01*
X073090Y070239D01*
X073175Y070100D01*
X073281Y069976D01*
X073405Y069870D01*
X073544Y069785D01*
X073695Y069723D01*
X073853Y069685D01*
X074016Y069672D01*
X074178Y069685D01*
X074337Y069723D01*
X074487Y069785D01*
X074626Y069870D01*
X074750Y069976D01*
X074856Y070100D01*
X074941Y070239D01*
X075004Y070390D01*
X075042Y070548D01*
X075054Y070711D01*
X075042Y070873D01*
X075004Y071032D01*
X074941Y071182D01*
X074856Y071321D01*
X074750Y071445D01*
X074626Y071551D01*
X074487Y071636D01*
X074337Y071698D01*
X074178Y071736D01*
X074016Y071749D01*
D02*
G37*
G36*
X073707Y069047D02*
Y068015D01*
X074740D01*
X074730Y068134D01*
X074690Y068300D01*
X074625Y068458D01*
X074536Y068603D01*
X074425Y068733D01*
X074296Y068843D01*
X074151Y068932D01*
X073993Y068997D01*
X073827Y069037D01*
X073707Y069047D01*
D02*
G37*
G36*
X052391Y066107D02*
X052333Y066100D01*
X052232Y066058D01*
X052146Y065992D01*
X052080Y065905D01*
X052038Y065805D01*
X052031Y065747D01*
X052391D01*
Y066107D01*
D02*
G37*
G36*
X069390Y065659D02*
X069144D01*
Y065394D01*
X069390D01*
Y065659D01*
D02*
G37*
G36*
X069044D02*
X068799D01*
Y065394D01*
X069044D01*
Y065659D01*
D02*
G37*
G36*
X074740Y067915D02*
X073707D01*
Y066882D01*
X073827Y066892D01*
X073981Y066929D01*
X074007Y066886D01*
X073960Y066831D01*
X073871Y066686D01*
X073806Y066529D01*
X073766Y066363D01*
X073757Y066243D01*
X074789D01*
Y067275D01*
X074669Y067266D01*
X074515Y067229D01*
X074489Y067271D01*
X074536Y067326D01*
X074625Y067472D01*
X074690Y067629D01*
X074730Y067795D01*
X074740Y067915D01*
D02*
G37*
G36*
X067677Y066328D02*
X067412D01*
Y065935D01*
X067677D01*
Y066328D01*
D02*
G37*
G36*
X052491Y066107D02*
Y065747D01*
X052851D01*
X052844Y065805D01*
X052802Y065905D01*
X052736Y065992D01*
X052649Y066058D01*
X052549Y066100D01*
X052491Y066107D01*
D02*
G37*
G36*
X074391Y090446D02*
X074050D01*
Y090106D01*
X074103Y090112D01*
X074199Y090152D01*
X074281Y090215D01*
X074344Y090298D01*
X074384Y090393D01*
X074391Y090446D01*
D02*
G37*
G36*
X073950D02*
X073610D01*
X073616Y090393D01*
X073656Y090298D01*
X073719Y090215D01*
X073801Y090152D01*
X073897Y090112D01*
X073950Y090106D01*
Y090446D01*
D02*
G37*
G36*
X068346Y090613D02*
X068227Y090601D01*
X068112Y090567D01*
X068006Y090510D01*
X067913Y090434D01*
X067837Y090341D01*
X067780Y090235D01*
X067745Y090120D01*
X067733Y090000D01*
X067745Y089880D01*
X067780Y089765D01*
X067837Y089659D01*
X067913Y089566D01*
X068006Y089490D01*
X068112Y089433D01*
X068227Y089399D01*
X068346Y089387D01*
X068466Y089399D01*
X068581Y089433D01*
X068687Y089490D01*
X068780Y089566D01*
X068856Y089659D01*
X068913Y089765D01*
X068948Y089880D01*
X068960Y090000D01*
X068948Y090120D01*
X068913Y090235D01*
X068856Y090341D01*
X068780Y090434D01*
X068687Y090510D01*
X068581Y090567D01*
X068466Y090601D01*
X068346Y090613D01*
D02*
G37*
G36*
X073950Y090887D02*
X073897Y090880D01*
X073801Y090840D01*
X073719Y090777D01*
X073656Y090695D01*
X073616Y090599D01*
X073610Y090546D01*
X073950D01*
Y090887D01*
D02*
G37*
G36*
X052421Y091142D02*
X051043D01*
Y090118D01*
X052421D01*
Y091142D01*
D02*
G37*
G36*
X074950Y090446D02*
X074610D01*
X074616Y090393D01*
X074656Y090298D01*
X074719Y090215D01*
X074801Y090152D01*
X074897Y090112D01*
X074950Y090106D01*
Y090446D01*
D02*
G37*
G36*
X067028Y085138D02*
X066585D01*
Y084696D01*
X067028D01*
Y085138D01*
D02*
G37*
G36*
X066485D02*
X066043D01*
Y084696D01*
X066485D01*
Y085138D01*
D02*
G37*
G36*
X059429Y083848D02*
X059184D01*
Y083583D01*
X059429D01*
Y083848D01*
D02*
G37*
G36*
X074000Y089893D02*
X073897Y089880D01*
X073801Y089840D01*
X073719Y089777D01*
X073656Y089695D01*
X073616Y089599D01*
X073603Y089496D01*
X073616Y089393D01*
X073656Y089298D01*
X073719Y089215D01*
X073801Y089152D01*
X073897Y089112D01*
X074000Y089099D01*
X074103Y089112D01*
X074199Y089152D01*
X074281Y089215D01*
X074344Y089298D01*
X074384Y089393D01*
X074397Y089496D01*
X074384Y089599D01*
X074344Y089695D01*
X074281Y089777D01*
X074199Y089840D01*
X074103Y089880D01*
X074000Y089893D01*
D02*
G37*
G36*
Y088893D02*
X073897Y088880D01*
X073801Y088840D01*
X073719Y088777D01*
X073656Y088695D01*
X073616Y088599D01*
X073603Y088496D01*
X073616Y088393D01*
X073656Y088298D01*
X073719Y088215D01*
X073801Y088152D01*
X073897Y088112D01*
X074000Y088099D01*
X074103Y088112D01*
X074199Y088152D01*
X074281Y088215D01*
X074344Y088298D01*
X074384Y088393D01*
X074397Y088496D01*
X074384Y088599D01*
X074344Y088695D01*
X074281Y088777D01*
X074199Y088840D01*
X074103Y088880D01*
X074000Y088893D01*
D02*
G37*
G36*
Y087893D02*
X073897Y087880D01*
X073801Y087840D01*
X073719Y087777D01*
X073656Y087695D01*
X073616Y087599D01*
X073603Y087496D01*
X073616Y087393D01*
X073656Y087298D01*
X073719Y087215D01*
X073801Y087152D01*
X073897Y087112D01*
X074000Y087099D01*
X074103Y087112D01*
X074199Y087152D01*
X074281Y087215D01*
X074344Y087298D01*
X074384Y087393D01*
X074397Y087496D01*
X074384Y087599D01*
X074344Y087695D01*
X074281Y087777D01*
X074199Y087840D01*
X074103Y087880D01*
X074000Y087893D01*
D02*
G37*
G36*
X053287Y091584D02*
X052924D01*
Y091378D01*
X053287D01*
Y091584D01*
D02*
G37*
G36*
X052824D02*
X052461D01*
Y091378D01*
X052824D01*
Y091584D01*
D02*
G37*
G36*
X068955Y091918D02*
X068396D01*
Y091360D01*
X068466Y091367D01*
X068581Y091402D01*
X068687Y091459D01*
X068780Y091535D01*
X068856Y091628D01*
X068913Y091734D01*
X068948Y091849D01*
X068955Y091918D01*
D02*
G37*
G36*
X068396Y092577D02*
Y092018D01*
X068955D01*
X068948Y092088D01*
X068913Y092203D01*
X068856Y092309D01*
X068780Y092402D01*
X068687Y092478D01*
X068581Y092535D01*
X068466Y092570D01*
X068396Y092577D01*
D02*
G37*
G36*
X068296D02*
X068227Y092570D01*
X068112Y092535D01*
X068006Y092478D01*
X067913Y092402D01*
X067837Y092309D01*
X067780Y092203D01*
X067745Y092088D01*
X067738Y092018D01*
X068296D01*
Y092577D01*
D02*
G37*
G36*
X067067Y092028D02*
X066625D01*
Y091585D01*
X067067D01*
Y092028D01*
D02*
G37*
G36*
X065492Y091437D02*
X064508D01*
Y090728D01*
X065492D01*
Y091437D01*
D02*
G37*
G36*
X074950Y090887D02*
X074897Y090880D01*
X074801Y090840D01*
X074719Y090777D01*
X074656Y090695D01*
X074616Y090599D01*
X074610Y090546D01*
X074950D01*
Y090887D01*
D02*
G37*
G36*
X074050D02*
Y090546D01*
X074391D01*
X074384Y090599D01*
X074344Y090695D01*
X074281Y090777D01*
X074199Y090840D01*
X074103Y090880D01*
X074050Y090887D01*
D02*
G37*
G36*
X068296Y091918D02*
X067738D01*
X067745Y091849D01*
X067780Y091734D01*
X067837Y091628D01*
X067913Y091535D01*
X068006Y091459D01*
X068112Y091402D01*
X068227Y091367D01*
X068296Y091360D01*
Y091918D01*
D02*
G37*
G36*
X067067Y091485D02*
X066625D01*
Y091043D01*
X067067D01*
Y091485D01*
D02*
G37*
G36*
X066525D02*
X066083D01*
Y091043D01*
X066525D01*
Y091485D01*
D02*
G37*
G36*
X052477Y080241D02*
X052137D01*
Y079901D01*
X052189Y079908D01*
X052285Y079947D01*
X052367Y080011D01*
X052431Y080093D01*
X052470Y080189D01*
X052477Y080241D01*
D02*
G37*
G36*
X052037D02*
X051696D01*
X051703Y080189D01*
X051743Y080093D01*
X051806Y080011D01*
X051888Y079947D01*
X051984Y079908D01*
X052037Y079901D01*
Y080241D01*
D02*
G37*
G36*
X074016Y081588D02*
X073853Y081575D01*
X073695Y081537D01*
X073544Y081475D01*
X073405Y081389D01*
X073281Y081284D01*
X073175Y081160D01*
X073090Y081021D01*
X073028Y080870D01*
X072990Y080712D01*
X072977Y080549D01*
X072990Y080387D01*
X073028Y080228D01*
X073090Y080078D01*
X073175Y079939D01*
X073281Y079815D01*
X073405Y079709D01*
X073544Y079624D01*
X073695Y079561D01*
X073853Y079523D01*
X074016Y079511D01*
X074178Y079523D01*
X074337Y079561D01*
X074487Y079624D01*
X074626Y079709D01*
X074750Y079815D01*
X074856Y079939D01*
X074941Y080078D01*
X075004Y080228D01*
X075042Y080387D01*
X075054Y080549D01*
X075042Y080712D01*
X075004Y080870D01*
X074941Y081021D01*
X074856Y081160D01*
X074750Y081284D01*
X074626Y081389D01*
X074487Y081475D01*
X074337Y081537D01*
X074178Y081575D01*
X074016Y081588D01*
D02*
G37*
G36*
X052037Y080682D02*
X051984Y080675D01*
X051888Y080635D01*
X051806Y080572D01*
X051743Y080490D01*
X051703Y080394D01*
X051696Y080341D01*
X052037D01*
Y080682D01*
D02*
G37*
G36*
X060138Y080580D02*
X059857D01*
Y080299D01*
X059895Y080304D01*
X059976Y080338D01*
X060046Y080391D01*
X060100Y080461D01*
X060133Y080543D01*
X060138Y080580D01*
D02*
G37*
G36*
X059757D02*
X059476D01*
X059481Y080543D01*
X059515Y080461D01*
X059569Y080391D01*
X059639Y080338D01*
X059720Y080304D01*
X059757Y080299D01*
Y080580D01*
D02*
G37*
G36*
X073888Y078242D02*
X073026D01*
Y077380D01*
X073888D01*
Y078242D01*
D02*
G37*
G36*
X069911Y077352D02*
X069646D01*
Y077106D01*
X069911D01*
Y077352D01*
D02*
G37*
G36*
X068415D02*
X068150D01*
Y077106D01*
X068415D01*
Y077352D01*
D02*
G37*
G36*
X052480Y079685D02*
X051693D01*
Y078898D01*
X052480D01*
Y079685D01*
D02*
G37*
G36*
X069911Y077697D02*
X069646D01*
Y077452D01*
X069911D01*
Y077697D01*
D02*
G37*
G36*
X068415D02*
X068150D01*
Y077452D01*
X068415D01*
Y077697D01*
D02*
G37*
G36*
X060068Y083336D02*
X059803D01*
Y083091D01*
X060068D01*
Y083336D01*
D02*
G37*
G36*
X068994Y083100D02*
X068436D01*
Y082541D01*
X068505Y082548D01*
X068621Y082583D01*
X068727Y082640D01*
X068819Y082716D01*
X068896Y082809D01*
X068952Y082915D01*
X068987Y083030D01*
X068994Y083100D01*
D02*
G37*
G36*
X068336D02*
X067778D01*
X067784Y083030D01*
X067819Y082915D01*
X067876Y082809D01*
X067952Y082716D01*
X068045Y082640D01*
X068151Y082583D01*
X068266Y082548D01*
X068336Y082541D01*
Y083100D01*
D02*
G37*
G36*
X059084Y083848D02*
X058839D01*
Y083583D01*
X059084D01*
Y083848D01*
D02*
G37*
G36*
X068436Y083758D02*
Y083200D01*
X068994D01*
X068987Y083269D01*
X068952Y083384D01*
X068896Y083490D01*
X068819Y083583D01*
X068727Y083659D01*
X068621Y083716D01*
X068505Y083751D01*
X068436Y083758D01*
D02*
G37*
G36*
X068336D02*
X068266Y083751D01*
X068151Y083716D01*
X068045Y083659D01*
X067952Y083583D01*
X067876Y083490D01*
X067819Y083384D01*
X067784Y083269D01*
X067778Y083200D01*
X068336D01*
Y083758D01*
D02*
G37*
G36*
X056450Y081160D02*
X056169D01*
X056174Y081123D01*
X056208Y081041D01*
X056261Y080971D01*
X056331Y080918D01*
X056413Y080884D01*
X056450Y080879D01*
Y081160D01*
D02*
G37*
G36*
X056879Y080728D02*
X056614D01*
Y080483D01*
X056879D01*
Y080728D01*
D02*
G37*
G36*
X052137Y080682D02*
Y080341D01*
X052477D01*
X052470Y080394D01*
X052431Y080490D01*
X052367Y080572D01*
X052285Y080635D01*
X052189Y080675D01*
X052137Y080682D01*
D02*
G37*
G36*
X056550Y081541D02*
Y081260D01*
X056831D01*
X056826Y081297D01*
X056792Y081379D01*
X056739Y081449D01*
X056669Y081502D01*
X056587Y081536D01*
X056550Y081541D01*
D02*
G37*
G36*
X056450D02*
X056413Y081536D01*
X056331Y081502D01*
X056261Y081449D01*
X056208Y081379D01*
X056174Y081297D01*
X056169Y081260D01*
X056450D01*
Y081541D01*
D02*
G37*
G36*
X056831Y081160D02*
X056550D01*
Y080879D01*
X056587Y080884D01*
X056669Y080918D01*
X056739Y080971D01*
X056792Y081041D01*
X056826Y081123D01*
X056831Y081160D01*
D02*
G37*
%LPD*%
D10*
X064961Y085098D02*
D03*
Y084193D02*
D03*
X065000Y091988D02*
D03*
Y091083D02*
D03*
D11*
X066535Y084646D02*
D03*
X066575Y091535D02*
D03*
D12*
X064961Y086063D02*
D03*
X065630D02*
D03*
X065000Y092913D02*
D03*
X065669D02*
D03*
X060118Y083386D02*
D03*
X060787D02*
D03*
X060787Y084567D02*
D03*
X060118D02*
D03*
X054409Y093937D02*
D03*
X053740D02*
D03*
X068465Y073819D02*
D03*
X069134D02*
D03*
Y077402D02*
D03*
X068465D02*
D03*
X069961D02*
D03*
X070630D02*
D03*
X060118Y083976D02*
D03*
X060787D02*
D03*
X057835Y084567D02*
D03*
X058504D02*
D03*
X057598Y080433D02*
D03*
X056929D02*
D03*
D13*
X068366Y076663D02*
D03*
Y076407D02*
D03*
Y076152D02*
D03*
Y075896D02*
D03*
Y075640D02*
D03*
Y075384D02*
D03*
Y075128D02*
D03*
Y074872D02*
D03*
Y074616D02*
D03*
Y074360D02*
D03*
X070610Y076663D02*
D03*
Y076407D02*
D03*
Y076152D02*
D03*
Y075896D02*
D03*
Y075640D02*
D03*
Y075384D02*
D03*
Y075128D02*
D03*
Y074872D02*
D03*
Y074616D02*
D03*
Y074360D02*
D03*
D14*
X058898Y081791D02*
D03*
X059213D02*
D03*
X059528D02*
D03*
X059843D02*
D03*
X060157D02*
D03*
X060472D02*
D03*
X060787D02*
D03*
X061102D02*
D03*
Y078524D02*
D03*
X060787D02*
D03*
X060472D02*
D03*
X060157D02*
D03*
X059843D02*
D03*
X059528D02*
D03*
X059213D02*
D03*
X058898D02*
D03*
D15*
X061634Y081260D02*
D03*
Y080945D02*
D03*
Y080630D02*
D03*
Y080315D02*
D03*
Y080000D02*
D03*
Y079685D02*
D03*
Y079370D02*
D03*
Y079055D02*
D03*
X058366Y079055D02*
D03*
Y079370D02*
D03*
Y079685D02*
D03*
Y080000D02*
D03*
Y080315D02*
D03*
Y080630D02*
D03*
Y080945D02*
D03*
Y081260D02*
D03*
D16*
X067362Y063799D02*
D03*
D17*
X066457Y066378D02*
D03*
X067362D02*
D03*
D18*
X068268D02*
D03*
D19*
X054843Y064685D02*
D03*
Y065354D02*
D03*
Y073032D02*
D03*
Y073701D02*
D03*
Y070433D02*
D03*
Y071102D02*
D03*
X059134Y083898D02*
D03*
Y084567D02*
D03*
X067244Y074803D02*
D03*
Y075472D02*
D03*
Y076772D02*
D03*
Y076102D02*
D03*
X069094Y065709D02*
D03*
Y066378D02*
D03*
D20*
X052874Y091634D02*
D03*
Y092126D02*
D03*
Y092618D02*
D03*
Y093110D02*
D03*
D21*
X051732Y090630D02*
D03*
Y094114D02*
D03*
D22*
X065433Y065276D02*
D03*
Y066378D02*
D03*
D23*
X065630Y086063D02*
Y086350D01*
X065500Y086480D02*
X065630Y086350D01*
X064000Y086480D02*
X065500D01*
X063300Y085780D02*
X064000Y086480D01*
X063300Y080485D02*
Y085780D01*
X062500Y079685D02*
X063300Y080485D01*
X065000Y091988D02*
Y092913D01*
X061760Y082060D02*
Y091248D01*
X062500Y091988D01*
X065000D01*
X067689Y093937D02*
X068346D01*
X065740Y091988D02*
X067689Y093937D01*
X065000Y091988D02*
X065740D01*
X071660Y076700D02*
X071910D01*
X071564Y075404D02*
X071910Y075750D01*
X059668Y081110D02*
X060980D01*
X069960Y075490D02*
Y075606D01*
X052441Y064697D02*
X053630D01*
X053642Y064685D01*
X054843D01*
X052480Y073004D02*
X053640D01*
X053668Y073032D01*
X054843D01*
X052480Y070445D02*
X053650D01*
X053662Y070433D01*
X054843D01*
X069134Y073819D02*
Y074750D01*
Y076500D02*
Y077402D01*
X066830Y075302D02*
X067244Y075472D01*
X066830Y073500D02*
Y075302D01*
Y073500D02*
X067450Y072880D01*
X069000D01*
X069570Y073450D01*
Y075070D01*
X069000Y075640D02*
X069570Y075070D01*
X067244Y074803D02*
X067500D01*
X067660Y074963D01*
Y075044D01*
X067244Y076102D02*
X067473D01*
X067680Y075896D01*
X067244Y076772D02*
X067636D01*
X058504Y084567D02*
X059134D01*
X060118D01*
X054843Y073701D02*
Y078350D01*
X055690Y071500D02*
Y077330D01*
X055292Y071102D02*
X055690Y071500D01*
X054843Y071102D02*
X055292D01*
X054843Y065354D02*
X056644D01*
X057290Y066000D01*
Y079000D01*
X057660Y079370D01*
X064961Y085098D02*
Y086063D01*
X068318Y085118D02*
X068386D01*
X066850Y083650D02*
X068318Y085118D01*
X066430Y083650D02*
X066850D01*
X065580Y084500D02*
X066430Y083650D01*
X065375Y085098D02*
X065580Y084500D01*
X064961Y085098D02*
X065375D01*
X069120Y086100D02*
Y088950D01*
X068386Y085366D02*
X069120Y086100D01*
X068386Y085118D02*
Y085366D01*
X057835Y084825D02*
X060097Y087087D01*
X057835Y084567D02*
Y084825D01*
X057789Y082149D02*
X058500Y082860D01*
X059480D01*
X060787Y083976D02*
Y084567D01*
X060787Y083386D02*
Y083680D01*
X060787Y083680D02*
X060787Y083680D01*
X060787Y083680D02*
Y083976D01*
Y084567D02*
Y085930D01*
X068465Y077402D02*
X068470D01*
X069961D02*
Y077750D01*
X070091Y077880D02*
X072250D01*
X072630Y077500D01*
Y073750D02*
Y077500D01*
Y073750D02*
X072931Y073449D01*
X073457D01*
X068465Y077402D02*
Y077750D01*
X068595Y077880D01*
X069831D01*
X070500Y090496D02*
X074000D01*
X069961Y089957D02*
X070500Y090496D01*
X069580Y076300D02*
X069750Y076130D01*
X069580Y076300D02*
Y077250D01*
X069732Y077402D01*
X069961D01*
X067840Y073819D02*
Y073910D01*
X073457Y072390D02*
Y073449D01*
X072820Y071753D02*
X073457Y072390D01*
X072820Y069750D02*
Y071753D01*
Y069750D02*
X073657Y068913D01*
Y067965D02*
Y068913D01*
X074839Y066193D02*
Y066480D01*
X073657Y067661D02*
X074839Y066480D01*
X073657Y067661D02*
Y067965D01*
X074080Y066193D02*
X074839D01*
X071450Y067440D02*
X072833D01*
X069719Y065709D02*
X071450Y067440D01*
X069094Y065709D02*
X069719D01*
X067654D02*
X069094D01*
X067362Y066000D02*
Y066378D01*
X065433Y065276D02*
X067000D01*
X060118Y083386D02*
Y083680D01*
X060118Y083680D02*
X060118Y083680D01*
X060118Y083680D02*
Y083976D01*
X059134Y083898D02*
X059580D01*
X059659Y083976D01*
X060118D01*
X052850Y091634D02*
X052874D01*
X052500Y080291D02*
X052850Y080641D01*
X052087Y080291D02*
X052500D01*
X056929Y080433D02*
Y080781D01*
Y083577D02*
X057250Y083898D01*
X059134D01*
X052000Y074004D02*
X052480D01*
X051570Y074434D02*
X052000Y074004D01*
X051570Y074434D02*
Y080125D01*
X051736Y080291D01*
X052087D01*
X052480Y071445D02*
Y071950D01*
X051940Y072490D02*
X052480Y071950D01*
X051940Y072490D02*
Y073240D01*
X052480Y073780D01*
Y074004D01*
Y071230D02*
Y071445D01*
X051900Y070650D02*
X052480Y071230D01*
X051900Y068340D02*
Y070650D01*
Y068340D02*
X052441Y067799D01*
Y065697D02*
Y067799D01*
X066575Y091535D02*
Y091968D01*
X066530Y084646D02*
X066535D01*
X066530Y091535D02*
X066575D01*
X055500Y079940D02*
X057585D01*
X054960Y080480D02*
X055500Y079940D01*
X054960Y080480D02*
Y092000D01*
X054342Y092618D02*
X054960Y092000D01*
X052874Y092618D02*
X054342D01*
X053467Y093937D02*
X053740D01*
X053020Y093490D02*
X053467Y093937D01*
X052450Y093490D02*
X053020D01*
X052290Y093330D02*
X052450Y093490D01*
X052290Y092336D02*
Y093330D01*
Y092336D02*
X052500Y092126D01*
X052874D01*
X053740Y093710D02*
Y093937D01*
Y093710D02*
X054000Y093450D01*
X058690D01*
X060157Y078524D02*
X060472D01*
X059843D02*
X060157D01*
X060472D02*
X060787D01*
X061102D01*
X066457Y066378D02*
Y069384D01*
X067000Y069927D02*
X070217D01*
X071290Y071000D02*
Y074838D01*
X070610Y076663D02*
Y077020D01*
X070630Y077040D01*
Y077402D01*
X065669Y092913D02*
Y093268D01*
X065000Y093937D02*
X065669Y093268D01*
X066457Y078057D02*
X069600Y081200D01*
Y090500D01*
X070380Y091280D01*
X075000D01*
X075520Y086030D02*
Y090760D01*
X075000Y085510D02*
X075520Y086030D01*
X074000Y086000D02*
X074490Y085510D01*
X074000Y086000D02*
Y086496D01*
X071222Y069927D02*
X072295Y071000D01*
Y077000D01*
X072015Y077280D02*
X072295Y077000D01*
X071500Y077280D02*
X072015D01*
X054409Y093937D02*
Y094329D01*
X054750Y094670D01*
X072360D01*
X075520Y091510D01*
X074490Y085510D02*
X075000D01*
X065433Y066378D02*
X065940D01*
X065940Y066378D01*
X066457D01*
X057750Y093110D02*
X057960Y092900D01*
X058800D02*
X059150Y093250D01*
Y093787D01*
X054409Y093937D02*
X059000D01*
X057598Y080433D02*
Y080720D01*
X057360Y080860D02*
X057500Y080720D01*
X057360Y080860D02*
Y083000D01*
X057740Y083380D01*
X057960D01*
X052874Y093110D02*
X057460D01*
X068268Y066378D02*
X068680D01*
X068680Y066378D01*
X069094D01*
X060394Y064646D02*
X062706D01*
X063890Y065830D01*
X065900D01*
X065970Y065760D01*
X066750D01*
X066910Y065920D01*
Y066940D01*
X068125D01*
X068268Y066797D01*
Y066378D02*
Y066797D01*
X071910Y075750D02*
Y076700D01*
X056500Y081210D02*
X056929Y080781D01*
X052850Y080641D02*
Y091634D01*
X056929Y080433D02*
Y080781D01*
Y083577D01*
X066530Y084646D02*
Y091535D01*
X066575Y091968D02*
X068346D01*
X067000Y065276D02*
X067362Y065638D01*
Y063799D02*
Y065638D01*
Y066000D01*
Y066378D01*
Y065638D02*
Y066000D01*
Y066378D01*
Y066000D02*
X067654Y065709D01*
X072983Y067290D02*
X074080Y066193D01*
X072833Y067440D02*
X072983Y067290D01*
X067840Y073819D02*
X068465D01*
X069961Y077750D02*
X070091Y077880D01*
X069831D02*
X069961Y077750D01*
Y077402D02*
Y077750D01*
Y089957D01*
X057500Y080720D02*
X057598D01*
X066457Y066378D02*
Y069384D01*
Y078057D01*
X052874Y093110D02*
X057460D01*
X057750D01*
X057460D02*
X057960Y092610D01*
Y092900D02*
X058800D01*
X054409Y093937D02*
X059000D01*
X065000D01*
X059000D02*
X059150Y093787D01*
X066457Y069384D02*
X067000Y069927D01*
X070217D02*
X071290Y071000D01*
X067000Y069927D02*
X070217D01*
X071222D01*
X075000Y091280D02*
X075520Y090760D01*
Y086030D02*
Y090760D01*
Y091510D01*
D24*
X061634Y079685D02*
X062500D01*
X061102Y081791D02*
Y081800D01*
X061500D02*
X061760Y082060D01*
X059843Y082390D02*
X059900D01*
X059528Y081250D02*
Y081791D01*
Y081250D02*
X059668Y081110D01*
X057840Y078350D02*
Y078895D01*
X058000Y079055D01*
X058366D01*
X058898Y077330D02*
Y078524D01*
X057660Y079370D02*
X058366D01*
X057895Y080945D02*
X058366D01*
X057789Y081050D02*
X057895Y080945D01*
X057789Y081050D02*
Y082149D01*
X060787Y082340D02*
Y083386D01*
X060787Y082340D02*
X060787Y082340D01*
X060787Y081791D02*
Y082340D01*
X058366Y080630D02*
X059807D01*
X057840Y079685D02*
X058366D01*
X057585Y079940D02*
X057840Y079685D01*
X058366Y080000D02*
X059020D01*
X061102Y078907D02*
X061250Y079055D01*
X061102Y078524D02*
Y078907D01*
X059528Y078520D02*
Y078524D01*
X059843Y078520D02*
Y078524D01*
X061630Y079370D02*
X061634D01*
X061630Y079055D02*
X061634D01*
X057598Y080433D02*
X057890D01*
X058008Y080315D01*
X058366D01*
X061102Y081800D02*
X061500D01*
X059843Y081791D02*
Y082390D01*
X059528Y077930D02*
Y078520D01*
Y078524D01*
Y078520D02*
X059843D01*
X061250Y079055D02*
X061630D01*
X061634D01*
X061630D02*
Y079370D01*
D25*
X071037Y075404D02*
X071564D01*
X071017Y075384D02*
X071037Y075404D01*
X070610Y075384D02*
X071017D01*
X071084Y075904D02*
X071260Y076080D01*
X071084Y075640D02*
Y075904D01*
X070610Y075640D02*
X071084D01*
X070110Y073280D02*
Y074732D01*
X070250Y074872D01*
X070610D01*
X070250Y075896D02*
X070610D01*
X069960Y075606D02*
X070250Y075896D01*
X068366Y075128D02*
X068756D01*
X069134Y074750D01*
X068785Y076152D02*
X069134Y076500D01*
X068366Y076152D02*
X068785D01*
X068366Y075640D02*
X069000D01*
X067660Y075044D02*
X068000Y075384D01*
X068366D01*
X067680Y075896D02*
X068366D01*
X067636Y076772D02*
X068000Y076407D01*
X068366D01*
Y076663D02*
X068470D01*
X070290Y076152D02*
X070610D01*
X070268Y076130D02*
X070290Y076152D01*
X069750Y076130D02*
X070268D01*
X070176Y076663D02*
X070610D01*
X070176Y076407D02*
Y076663D01*
Y076407D02*
X070610D01*
X071000Y075128D02*
X071290Y074838D01*
X070610Y075128D02*
X071000D01*
X070870Y076650D02*
X071500Y077280D01*
X070610Y076407D02*
X070870D01*
X068470Y076663D02*
Y077402D01*
X070870Y076407D02*
Y076650D01*
D26*
X072638Y095433D02*
Y098583D01*
Y095433D02*
X077756D01*
X072638Y063150D02*
X077756D01*
X072638Y060000D02*
Y063150D01*
X050197Y060000D02*
Y098583D01*
X077756Y063150D02*
Y095433D01*
X050197Y098583D02*
X072638D01*
X050197Y060000D02*
X072638D01*
D27*
X060394Y065646D02*
D03*
X052087Y080291D02*
D03*
X074000Y090496D02*
D03*
X075000D02*
D03*
X074000Y089496D02*
D03*
X075000D02*
D03*
X074000Y088496D02*
D03*
X075000D02*
D03*
X074000Y087496D02*
D03*
X075000D02*
D03*
X074000Y086496D02*
D03*
D28*
X060394Y064646D02*
D03*
X052087Y079291D02*
D03*
X075000Y086496D02*
D03*
D29*
X073457Y073449D02*
D03*
X074575Y073994D02*
D03*
X073457Y074539D02*
D03*
X074575Y075085D02*
D03*
X073457Y075630D02*
D03*
X074575Y076175D02*
D03*
X073457Y076720D02*
D03*
X074575Y077266D02*
D03*
D30*
X073457Y077811D02*
D03*
D31*
X074016Y080549D02*
D03*
Y070711D02*
D03*
D32*
X072083Y066193D02*
D03*
X074839D02*
D03*
X073657Y067965D02*
D03*
D33*
X052441Y065697D02*
D03*
Y064697D02*
D03*
X052480Y074004D02*
D03*
Y073004D02*
D03*
Y071445D02*
D03*
Y070445D02*
D03*
D34*
X052953Y097008D02*
D03*
X070669Y061575D02*
D03*
Y097008D02*
D03*
X052953Y061575D02*
D03*
D35*
X068346Y090000D02*
D03*
Y091968D02*
D03*
Y093937D02*
D03*
X068386Y083150D02*
D03*
Y087087D02*
D03*
Y085118D02*
D03*
D36*
X059900Y082390D02*
D03*
X071660Y076700D02*
D03*
X071260Y076080D02*
D03*
X060980Y081110D02*
D03*
X070110Y073280D02*
D03*
X069960Y075490D02*
D03*
X054843Y078350D02*
D03*
X057840D02*
D03*
X058898Y077330D02*
D03*
X055690D02*
D03*
X069120Y088950D02*
D03*
X060097Y087087D02*
D03*
X059480Y082860D02*
D03*
X060787Y085930D02*
D03*
X067840Y073910D02*
D03*
X059807Y080630D02*
D03*
X056500Y081210D02*
D03*
X058690Y093450D02*
D03*
X059020Y080000D02*
D03*
X059528Y077930D02*
D03*
X057960Y083380D02*
D03*
Y092610D02*
D03*
M02*
