%FSAX24Y24*%
%MOIN*%
G70*
G01*
G75*
G04 Layer_Color=16711935*
%ADD10R,0.0787X0.0512*%
%ADD11R,0.0787X0.0787*%
%ADD12R,0.0433X0.0394*%
%ADD13R,0.0630X0.0118*%
%ADD14O,0.0217X0.0630*%
%ADD15O,0.0630X0.0217*%
%ADD16R,0.1358X0.0689*%
%ADD17R,0.0433X0.0689*%
%ADD18R,0.0433X0.0689*%
%ADD19R,0.0394X0.0433*%
%ADD20R,0.0630X0.0315*%
%ADD21R,0.1181X0.0827*%
%ADD22R,0.0709X0.0630*%
%ADD23C,0.0236*%
%ADD24C,0.0217*%
%ADD25C,0.0118*%
%ADD26C,0.0080*%
%ADD27C,0.0591*%
%ADD28R,0.0591X0.0591*%
%ADD29C,0.0665*%
%ADD30R,0.0665X0.0665*%
%ADD31C,0.1874*%
%ADD32C,0.1969*%
%ADD33C,0.0630*%
%ADD34C,0.2520*%
%ADD35C,0.1024*%
%ADD36C,0.0472*%
%ADD37C,0.0197*%
%ADD38C,0.0098*%
%ADD39C,0.0079*%
%ADD40C,0.0050*%
%ADD41C,0.0100*%
%ADD42C,0.0140*%
%ADD43C,0.0080*%
%ADD44C,0.0059*%
%ADD45R,0.0867X0.0592*%
%ADD46R,0.0867X0.0867*%
%ADD47R,0.0513X0.0474*%
%ADD48R,0.0710X0.0198*%
%ADD49O,0.0297X0.0710*%
%ADD50O,0.0710X0.0297*%
%ADD51R,0.1438X0.0769*%
%ADD52R,0.0513X0.0769*%
%ADD53R,0.0513X0.0769*%
%ADD54R,0.0474X0.0513*%
%ADD55R,0.0710X0.0395*%
%ADD56R,0.1261X0.0907*%
%ADD57R,0.0789X0.0710*%
%ADD58C,0.0671*%
%ADD59R,0.0671X0.0671*%
%ADD60C,0.0745*%
%ADD61R,0.0745X0.0745*%
%ADD62C,0.1954*%
%ADD63C,0.2049*%
%ADD64C,0.0710*%
%ADD65C,0.2600*%
%ADD66C,0.1104*%
%ADD67C,0.0552*%
D26*
X072638Y095433D02*
Y098583D01*
Y095433D02*
X077756D01*
X072638Y063150D02*
X077756D01*
X072638Y060000D02*
Y063150D01*
X050197Y060000D02*
Y098583D01*
X077756Y063150D02*
Y095433D01*
X050197Y098583D02*
X072638D01*
X050197Y060000D02*
X072638D01*
D39*
X076929Y094882D02*
X077244Y094567D01*
X072520Y094882D02*
X076929D01*
X072008Y098150D02*
X072323Y097835D01*
Y095079D02*
Y097835D01*
X050748Y098150D02*
X072008D01*
X072323Y095079D02*
X072520Y094882D01*
X077244Y063858D02*
Y094567D01*
X076968Y063583D02*
X077244Y063858D01*
X072520Y063583D02*
X076968D01*
X072165Y060512D02*
X072362Y060709D01*
Y063425D01*
X072520Y063583D01*
X050748Y060512D02*
X072165D01*
X050748D02*
Y098150D01*
M02*
