%FSAX24Y24*%
%MOIN*%
G70*
G01*
G75*
G04 Layer_Color=255*
%ADD10R,0.0787X0.0512*%
%ADD11R,0.0787X0.0787*%
%ADD12R,0.0433X0.0394*%
%ADD13R,0.0630X0.0118*%
%ADD14O,0.0217X0.0630*%
%ADD15O,0.0630X0.0217*%
%ADD16R,0.1358X0.0689*%
%ADD17R,0.0433X0.0689*%
%ADD18R,0.0433X0.0689*%
%ADD19R,0.0394X0.0433*%
%ADD20R,0.0630X0.0315*%
%ADD21R,0.1181X0.0827*%
%ADD22R,0.0709X0.0630*%
%ADD23C,0.0236*%
%ADD24C,0.0217*%
%ADD25C,0.0118*%
%ADD26C,0.0080*%
%ADD27C,0.0591*%
%ADD28R,0.0591X0.0591*%
%ADD29C,0.0665*%
%ADD30R,0.0665X0.0665*%
%ADD31C,0.1874*%
%ADD32C,0.1969*%
%ADD33C,0.0630*%
%ADD34C,0.2520*%
%ADD35C,0.1024*%
%ADD36C,0.0472*%
%ADD37C,0.0197*%
D26*
X072638Y095433D02*
Y098583D01*
Y095433D02*
X077756D01*
X072638Y063150D02*
X077756D01*
X072638Y060000D02*
Y063150D01*
X050197Y060000D02*
Y098583D01*
X077756Y063150D02*
Y095433D01*
X050197Y098583D02*
X072638D01*
X050197Y060000D02*
X072638D01*
D27*
X060394Y065646D02*
D03*
X052087Y080291D02*
D03*
X074000Y090496D02*
D03*
X075000D02*
D03*
X074000Y089496D02*
D03*
X075000D02*
D03*
X074000Y088496D02*
D03*
X075000D02*
D03*
X074000Y087496D02*
D03*
X075000D02*
D03*
X074000Y086496D02*
D03*
D28*
X060394Y064646D02*
D03*
X052087Y079291D02*
D03*
X075000Y086496D02*
D03*
D29*
X073457Y073449D02*
D03*
X074575Y073994D02*
D03*
X073457Y074539D02*
D03*
X074575Y075085D02*
D03*
X073457Y075630D02*
D03*
X074575Y076175D02*
D03*
X073457Y076720D02*
D03*
X074575Y077266D02*
D03*
D30*
X073457Y077811D02*
D03*
D31*
X074016Y080549D02*
D03*
Y070711D02*
D03*
D32*
X072083Y066193D02*
D03*
X074839D02*
D03*
X073657Y067965D02*
D03*
D33*
X052441Y065697D02*
D03*
Y064697D02*
D03*
X052480Y074004D02*
D03*
Y073004D02*
D03*
Y071445D02*
D03*
Y070445D02*
D03*
D34*
X052953Y097008D02*
D03*
X070669Y061575D02*
D03*
Y097008D02*
D03*
X052953Y061575D02*
D03*
M02*
