M48
;Layer_Color=9474304
;FILE_FORMAT=2:4
INCH
;TYPE=PLATED
T1F00S00C0.0236
T2F00S00C0.0315
T3F00S00C0.0354
T4F00S00C0.0394
T5F00S00C0.0429
T6F00S00C0.1260
T7F00S00C0.1283
T8F00S00C0.1299
%
T01
X055690Y077330
X058898
X059528Y077930
X067840Y073910
X070110Y073280
X069960Y075490
X071260Y076080
X071660Y076700
X069120Y088950
X060097Y087087
X060787Y085930
X059480Y082860
X059900Y082390
X059807Y080630
X059020Y080000
X057840Y078350
X054843
X056500Y081210
X057960Y083380
X060980Y081110
X057960Y092610
X058690Y093450
T02
X052441Y064697
Y065697
X052480Y070445
Y071445
Y073004
Y074004
T03
X060394Y064646
Y065646
X074000Y086496
Y087496
Y088496
Y089496
Y090496
X075000
Y089496
Y088496
Y087496
Y086496
X052087Y080291
Y079291
T04
X068386Y083150
Y085118
Y087087
X068346Y090000
Y091968
Y093937
T05
X073457Y073449
Y074539
Y075630
Y076720
Y077811
X074575Y077266
Y076175
Y075085
Y073994
T06
X070669Y061575
X052953
Y097008
X070669
T07
X074016Y070711
Y080549
T08
X072083Y066193
X074839
X073657Y067965
M30
