%FSAX24Y24*%
%MOIN*%
G70*
G01*
G75*
G04 Layer_Color=2752767*
%ADD10R,0.0787X0.0512*%
%ADD11R,0.0787X0.0787*%
%ADD12R,0.0433X0.0394*%
%ADD13R,0.0630X0.0118*%
%ADD14O,0.0217X0.0630*%
%ADD15O,0.0630X0.0217*%
%ADD16R,0.1358X0.0689*%
%ADD17R,0.0433X0.0689*%
%ADD18R,0.0433X0.0689*%
%ADD19R,0.0394X0.0433*%
%ADD20R,0.0630X0.0315*%
%ADD21R,0.1181X0.0827*%
%ADD22R,0.0709X0.0630*%
%ADD23C,0.0236*%
%ADD24C,0.0217*%
%ADD25C,0.0118*%
%ADD26C,0.0080*%
%ADD27C,0.0591*%
%ADD28R,0.0591X0.0591*%
%ADD29C,0.0665*%
%ADD30R,0.0665X0.0665*%
%ADD31C,0.1874*%
%ADD32C,0.1969*%
%ADD33C,0.0630*%
%ADD34C,0.2520*%
%ADD35C,0.1024*%
%ADD36C,0.0472*%
%ADD37C,0.0197*%
%ADD38C,0.0098*%
%ADD39C,0.0079*%
%ADD40C,0.0050*%
%ADD41C,0.0100*%
%ADD42C,0.0140*%
%ADD43C,0.0080*%
%ADD44C,0.0059*%
%ADD45R,0.0867X0.0592*%
%ADD46R,0.0867X0.0867*%
%ADD47R,0.0513X0.0474*%
%ADD48R,0.0710X0.0198*%
%ADD49O,0.0297X0.0710*%
%ADD50O,0.0710X0.0297*%
%ADD51R,0.1438X0.0769*%
%ADD52R,0.0513X0.0769*%
%ADD53R,0.0513X0.0769*%
%ADD54R,0.0474X0.0513*%
%ADD55R,0.0710X0.0395*%
%ADD56R,0.1261X0.0907*%
%ADD57R,0.0789X0.0710*%
%ADD58C,0.0671*%
%ADD59R,0.0671X0.0671*%
%ADD60C,0.0745*%
%ADD61R,0.0745X0.0745*%
%ADD62C,0.1954*%
%ADD63C,0.2049*%
%ADD64C,0.0710*%
%ADD65C,0.2600*%
%ADD66C,0.1104*%
%ADD67C,0.0552*%
%ADD68C,0.0067*%
D26*
X072638Y095433D02*
Y098583D01*
Y095433D02*
X077756D01*
X072638Y063150D02*
X077756D01*
X072638Y060000D02*
Y063150D01*
X050197Y060000D02*
Y098583D01*
X077756Y063150D02*
Y095433D01*
X050197Y098583D02*
X072638D01*
X050197Y060000D02*
X072638D01*
D40*
X060194Y065446D02*
Y065846D01*
X060594D01*
Y065446D01*
X060194D01*
Y064446D02*
Y064846D01*
X060594D01*
Y064446D01*
X060194D01*
X051887Y079091D02*
Y079491D01*
X052287D01*
Y079091D01*
X051887D01*
Y080091D02*
Y080491D01*
X052287D01*
Y080091D01*
X051887D01*
X073800Y090296D02*
Y090696D01*
X074200D01*
Y090296D01*
X073800D01*
X074800D02*
Y090696D01*
X075200D01*
Y090296D01*
X074800D01*
X073800Y089296D02*
Y089696D01*
X074200D01*
Y089296D01*
X073800D01*
X074800D02*
Y089696D01*
X075200D01*
Y089296D01*
X074800D01*
X073800Y088296D02*
Y088696D01*
X074200D01*
Y088296D01*
X073800D01*
X074800D02*
Y088696D01*
X075200D01*
Y088296D01*
X074800D01*
X073800Y087296D02*
Y087696D01*
X074200D01*
Y087296D01*
X073800D01*
X074800D02*
Y087696D01*
X075200D01*
Y087296D01*
X074800D01*
X073800Y086296D02*
Y086696D01*
X074200D01*
Y086296D01*
X073800D01*
X074800D02*
Y086696D01*
X075200D01*
Y086296D01*
X074800D01*
X074016Y080349D02*
X073816Y080749D01*
X074216D01*
X074016Y080349D01*
Y070511D02*
X073816Y070911D01*
X074216D01*
X074016Y070511D01*
X072083Y065993D02*
X072183Y066093D01*
X072283D01*
X072183Y066193D01*
X072283Y066293D01*
X072183D01*
X072083Y066393D01*
X071983Y066293D01*
X071883D01*
X071983Y066193D01*
X071883Y066093D01*
X071983D01*
X072083Y065993D01*
X074839D02*
X074939Y066093D01*
X075039D01*
X074939Y066193D01*
X075039Y066293D01*
X074939D01*
X074839Y066393D01*
X074739Y066293D01*
X074639D01*
X074739Y066193D01*
X074639Y066093D01*
X074739D01*
X074839Y065993D01*
X073657Y067765D02*
X073758Y067865D01*
X073857D01*
X073758Y067965D01*
X073857Y068065D01*
X073758D01*
X073657Y068165D01*
X073558Y068065D01*
X073457D01*
X073558Y067965D01*
X073457Y067865D01*
X073558D01*
X073657Y067765D01*
X052241Y065497D02*
X052341Y065697D01*
X052241Y065897D01*
X052441Y065797D01*
X052641Y065897D01*
X052541Y065697D01*
X052641Y065497D01*
X052441Y065597D01*
X052241Y065497D01*
Y064497D02*
X052341Y064697D01*
X052241Y064897D01*
X052441Y064797D01*
X052641Y064897D01*
X052541Y064697D01*
X052641Y064497D01*
X052441Y064597D01*
X052241Y064497D01*
X052280Y073804D02*
X052380Y074004D01*
X052280Y074204D01*
X052480Y074104D01*
X052680Y074204D01*
X052580Y074004D01*
X052680Y073804D01*
X052480Y073904D01*
X052280Y073804D01*
Y072804D02*
X052380Y073004D01*
X052280Y073204D01*
X052480Y073104D01*
X052680Y073204D01*
X052580Y073004D01*
X052680Y072804D01*
X052480Y072904D01*
X052280Y072804D01*
Y071245D02*
X052380Y071445D01*
X052280Y071645D01*
X052480Y071545D01*
X052680Y071645D01*
X052580Y071445D01*
X052680Y071245D01*
X052480Y071345D01*
X052280Y071245D01*
Y070245D02*
X052380Y070445D01*
X052280Y070645D01*
X052480Y070545D01*
X052680Y070645D01*
X052580Y070445D01*
X052680Y070245D01*
X052480Y070345D01*
X052280Y070245D01*
X052853Y096908D02*
Y096808D01*
X053053D01*
Y096908D01*
X053153D01*
Y097108D01*
X053053D01*
Y097208D01*
X052853D01*
Y097108D01*
X052753D01*
Y096908D01*
X052853D01*
X070569Y061475D02*
Y061375D01*
X070769D01*
Y061475D01*
X070869D01*
Y061675D01*
X070769D01*
Y061775D01*
X070569D01*
Y061675D01*
X070469D01*
Y061475D01*
X070569D01*
Y096908D02*
Y096808D01*
X070769D01*
Y096908D01*
X070869D01*
Y097108D01*
X070769D01*
Y097208D01*
X070569D01*
Y097108D01*
X070469D01*
Y096908D01*
X070569D01*
X052853Y061475D02*
Y061375D01*
X053053D01*
Y061475D01*
X053153D01*
Y061675D01*
X053053D01*
Y061775D01*
X052853D01*
Y061675D01*
X052753D01*
Y061475D01*
X052853D01*
X068146Y089800D02*
X068246D01*
X068346Y089900D01*
X068446Y089800D01*
X068546D01*
Y089900D01*
X068446Y090000D01*
X068546Y090100D01*
Y090200D01*
X068446D01*
X068346Y090100D01*
X068246Y090200D01*
X068146D01*
Y090100D01*
X068246Y090000D01*
X068146Y089900D01*
Y089800D01*
Y091769D02*
X068246D01*
X068346Y091868D01*
X068446Y091769D01*
X068546D01*
Y091868D01*
X068446Y091968D01*
X068546Y092069D01*
Y092169D01*
X068446D01*
X068346Y092069D01*
X068246Y092169D01*
X068146D01*
Y092069D01*
X068246Y091968D01*
X068146Y091868D01*
Y091769D01*
Y093737D02*
X068246D01*
X068346Y093837D01*
X068446Y093737D01*
X068546D01*
Y093837D01*
X068446Y093937D01*
X068546Y094037D01*
Y094137D01*
X068446D01*
X068346Y094037D01*
X068246Y094137D01*
X068146D01*
Y094037D01*
X068246Y093937D01*
X068146Y093837D01*
Y093737D01*
X068186Y082950D02*
X068286D01*
X068386Y083050D01*
X068486Y082950D01*
X068586D01*
Y083050D01*
X068486Y083150D01*
X068586Y083250D01*
Y083350D01*
X068486D01*
X068386Y083250D01*
X068286Y083350D01*
X068186D01*
Y083250D01*
X068286Y083150D01*
X068186Y083050D01*
Y082950D01*
Y086887D02*
X068286D01*
X068386Y086987D01*
X068486Y086887D01*
X068586D01*
Y086987D01*
X068486Y087087D01*
X068586Y087187D01*
Y087287D01*
X068486D01*
X068386Y087187D01*
X068286Y087287D01*
X068186D01*
Y087187D01*
X068286Y087087D01*
X068186Y086987D01*
Y086887D01*
Y084918D02*
X068286D01*
X068386Y085018D01*
X068486Y084918D01*
X068586D01*
Y085018D01*
X068486Y085118D01*
X068586Y085218D01*
Y085318D01*
X068486D01*
X068386Y085218D01*
X068286Y085318D01*
X068186D01*
Y085218D01*
X068286Y085118D01*
X068186Y085018D01*
Y084918D01*
X059700Y082390D02*
X059900Y082590D01*
X060100Y082390D01*
X059900Y082190D01*
X059700Y082390D01*
X071460Y076700D02*
X071660Y076900D01*
X071860Y076700D01*
X071660Y076500D01*
X071460Y076700D01*
X071060Y076080D02*
X071260Y076280D01*
X071460Y076080D01*
X071260Y075880D01*
X071060Y076080D01*
X060780Y081110D02*
X060980Y081310D01*
X061180Y081110D01*
X060980Y080910D01*
X060780Y081110D01*
X069910Y073280D02*
X070110Y073480D01*
X070310Y073280D01*
X070110Y073080D01*
X069910Y073280D01*
X069760Y075490D02*
X069960Y075690D01*
X070160Y075490D01*
X069960Y075290D01*
X069760Y075490D01*
X054643Y078350D02*
X054843Y078550D01*
X055043Y078350D01*
X054843Y078150D01*
X054643Y078350D01*
X057640D02*
X057840Y078550D01*
X058040Y078350D01*
X057840Y078150D01*
X057640Y078350D01*
X058698Y077330D02*
X058898Y077530D01*
X059098Y077330D01*
X058898Y077130D01*
X058698Y077330D01*
X055490D02*
X055690Y077530D01*
X055890Y077330D01*
X055690Y077130D01*
X055490Y077330D01*
X068920Y088950D02*
X069120Y089150D01*
X069320Y088950D01*
X069120Y088750D01*
X068920Y088950D01*
X059897Y087087D02*
X060097Y087287D01*
X060297Y087087D01*
X060097Y086887D01*
X059897Y087087D01*
X059280Y082860D02*
X059480Y083060D01*
X059680Y082860D01*
X059480Y082660D01*
X059280Y082860D01*
X060587Y085930D02*
X060787Y086130D01*
X060987Y085930D01*
X060787Y085730D01*
X060587Y085930D01*
X067640Y073910D02*
X067840Y074110D01*
X068040Y073910D01*
X067840Y073710D01*
X067640Y073910D01*
X059607Y080630D02*
X059807Y080830D01*
X060007Y080630D01*
X059807Y080430D01*
X059607Y080630D01*
X056300Y081210D02*
X056500Y081410D01*
X056700Y081210D01*
X056500Y081010D01*
X056300Y081210D01*
X058490Y093450D02*
X058690Y093650D01*
X058890Y093450D01*
X058690Y093250D01*
X058490Y093450D01*
X058820Y080000D02*
X059020Y080200D01*
X059220Y080000D01*
X059020Y079800D01*
X058820Y080000D01*
X059328Y077930D02*
X059528Y078130D01*
X059728Y077930D01*
X059528Y077730D01*
X059328Y077930D01*
X057760Y083380D02*
X057960Y083580D01*
X058160Y083380D01*
X057960Y083180D01*
X057760Y083380D01*
Y092610D02*
X057960Y092810D01*
X058160Y092610D01*
X057960Y092410D01*
X057760Y092610D01*
D68*
X073657Y073449D02*
G03*
X073657Y073449I-000200J000000D01*
G01*
X074775Y073994D02*
G03*
X074775Y073994I-000200J000000D01*
G01*
X073657Y074539D02*
G03*
X073657Y074539I-000200J000000D01*
G01*
X074775Y075085D02*
G03*
X074775Y075085I-000200J000000D01*
G01*
X073657Y075630D02*
G03*
X073657Y075630I-000200J000000D01*
G01*
X074775Y076175D02*
G03*
X074775Y076175I-000200J000000D01*
G01*
X073657Y076720D02*
G03*
X073657Y076720I-000200J000000D01*
G01*
X074775Y077266D02*
G03*
X074775Y077266I-000200J000000D01*
G01*
X073657Y077811D02*
G03*
X073657Y077811I-000200J000000D01*
G01*
M02*
