%FSAX24Y24*%
%MOIN*%
G70*
G01*
G75*
%ADD10R,0.0787X0.0512*%
%ADD11R,0.0787X0.0787*%
%ADD12R,0.0433X0.0394*%
%ADD13R,0.0630X0.0118*%
%ADD14O,0.0217X0.0630*%
%ADD15O,0.0630X0.0217*%
%ADD16R,0.1358X0.0689*%
%ADD17R,0.0433X0.0689*%
%ADD18R,0.0433X0.0689*%
%ADD19R,0.0394X0.0433*%
%ADD20R,0.0630X0.0315*%
%ADD21R,0.1181X0.0827*%
%ADD22R,0.0709X0.0630*%
%ADD23C,0.0236*%
%ADD24C,0.0217*%
%ADD25C,0.0118*%
%ADD26C,0.0080*%
%ADD27C,0.0591*%
%ADD28R,0.0591X0.0591*%
%ADD29C,0.0665*%
%ADD30R,0.0665X0.0665*%
%ADD31C,0.1874*%
%ADD32C,0.1969*%
%ADD33C,0.0630*%
%ADD34C,0.2520*%
%ADD35C,0.1024*%
%ADD36C,0.0472*%
%ADD37C,0.0197*%
%ADD38C,0.0098*%
%ADD39C,0.0079*%
%ADD40C,0.0050*%
%ADD41C,0.0100*%
%ADD42C,0.0140*%
%ADD43C,0.0080*%
%ADD44C,0.0059*%
D23*
X059350Y080925D02*
G03*
X059350Y080925I-000118J000000D01*
G01*
D26*
X072638Y095433D02*
Y098583D01*
Y095433D02*
X077756D01*
X072638Y063150D02*
X077756D01*
X072638Y060000D02*
Y063150D01*
X050197Y060000D02*
Y098583D01*
X077756Y063150D02*
Y095433D01*
X050197Y098583D02*
X072638D01*
X050197Y060000D02*
X072638D01*
D38*
X068415Y076939D02*
G03*
X068415Y076939I-000049J000000D01*
G01*
X058415Y081585D02*
G03*
X058415Y081585I-000049J000000D01*
G01*
X067412Y063238D02*
G03*
X067412Y063238I-000049J000000D01*
G01*
D39*
X069272Y076811D02*
G03*
X069705Y076811I000217J000000D01*
G01*
X077758Y079394D02*
G03*
X078032Y079120I000274J000000D01*
G01*
X080118Y078844D02*
G03*
X079844Y079118I-000274J000000D01*
G01*
X078032Y072140D02*
G03*
X077758Y071866I000000J-000274D01*
G01*
X079844Y072142D02*
G03*
X080118Y072415I000000J000274D01*
G01*
X059894Y064146D02*
Y066146D01*
Y064146D02*
X060894D01*
Y066146D01*
X059894D02*
X060894D01*
X051587Y080791D02*
X052587D01*
Y078791D02*
Y080791D01*
X051587Y078791D02*
X052587D01*
X051587D02*
Y080791D01*
X068839Y076811D02*
X069272D01*
X069705D02*
X070138D01*
X068839Y074213D02*
X070138D01*
X068839D02*
Y076811D01*
X070138Y074213D02*
Y076811D01*
X058839Y078996D02*
X061161D01*
X058839Y081319D02*
X061161D01*
Y078996D02*
Y081319D01*
X058839Y078996D02*
Y081319D01*
X068681Y064360D02*
Y065817D01*
X066044D02*
X068681D01*
X066044Y064360D02*
Y065817D01*
Y064360D02*
X068681D01*
X075500Y085996D02*
Y090996D01*
X073500Y085996D02*
Y090996D01*
Y085996D02*
X075500D01*
X073500Y090996D02*
X075500D01*
X076575Y069567D02*
Y081693D01*
X072874Y069567D02*
X077756D01*
X072874Y081693D02*
X077756D01*
X080118Y072415D02*
Y078844D01*
X072874Y069567D02*
Y081693D01*
X072874Y072874D02*
X076575D01*
X077756Y069567D02*
Y081693D01*
X072874Y078386D02*
X076575D01*
X078032Y079120D02*
X079843D01*
X078032Y072140D02*
X079843D01*
D40*
X050276Y065768D02*
G03*
X050276Y064626I000000J-000571D01*
G01*
X050315Y074075D02*
G03*
X050315Y072933I000000J-000571D01*
G01*
Y071516D02*
G03*
X050315Y070374I000000J-000571D01*
G01*
X050276Y065768D02*
X050709D01*
X050276Y064626D02*
X050709D01*
Y066063D02*
X053228D01*
X050709Y064331D02*
Y066063D01*
Y064331D02*
X053228D01*
Y066063D01*
X050315Y074075D02*
X050748D01*
X050315Y072933D02*
X050748D01*
Y074370D02*
X053268D01*
X050748Y072638D02*
Y074370D01*
Y072638D02*
X053268D01*
Y074370D01*
X050315Y071516D02*
X050748D01*
X050315Y070374D02*
X050748D01*
Y071811D02*
X053268D01*
X050748Y070079D02*
Y071811D01*
Y070079D02*
X053268D01*
Y071811D01*
D41*
X066732Y085138D02*
Y085630D01*
Y083661D02*
Y084154D01*
X064764Y085433D02*
Y085630D01*
Y083661D02*
Y083858D01*
Y085630D02*
X066732D01*
X064764Y083661D02*
X066732D01*
X066772Y092028D02*
Y092520D01*
Y090551D02*
Y091043D01*
X064803Y092323D02*
Y092520D01*
Y090551D02*
Y090748D01*
Y092520D02*
X066772D01*
X064803Y090551D02*
X066772D01*
X059959Y066481D02*
Y067080D01*
X060259D01*
X060359Y066981D01*
Y066781D01*
X060259Y066681D01*
X059959D01*
X060858Y066481D02*
Y067080D01*
X060559Y066781D01*
X060958D01*
X055839Y080715D02*
X055739Y080615D01*
Y080415D01*
X055839Y080315D01*
X056239D01*
X056339Y080415D01*
Y080615D01*
X056239Y080715D01*
X056339Y080915D02*
Y081115D01*
Y081015D01*
X055739D01*
X055839Y080915D01*
X056339Y081415D02*
Y081615D01*
Y081515D01*
X055739D01*
X055839Y081415D01*
X070027Y066096D02*
X070127Y066196D01*
Y066396D01*
X070027Y066496D01*
X069628D01*
X069528Y066396D01*
Y066196D01*
X069628Y066096D01*
X069528Y065896D02*
Y065696D01*
Y065796D01*
X070127D01*
X070027Y065896D01*
X064791Y066175D02*
X064891Y066275D01*
Y066475D01*
X064791Y066575D01*
X064391D01*
X064291Y066475D01*
Y066275D01*
X064391Y066175D01*
X064291Y065575D02*
Y065975D01*
X064691Y065575D01*
X064791D01*
X064891Y065675D01*
Y065875D01*
X064791Y065975D01*
X057880Y085421D02*
X057780Y085521D01*
X057580D01*
X057480Y085421D01*
Y085021D01*
X057580Y084921D01*
X057780D01*
X057880Y085021D01*
X058080Y085421D02*
X058180Y085521D01*
X058380D01*
X058480Y085421D01*
Y085321D01*
X058380Y085221D01*
X058280D01*
X058380D01*
X058480Y085121D01*
Y085021D01*
X058380Y084921D01*
X058180D01*
X058080Y085021D01*
X061581Y084279D02*
X061481Y084379D01*
X061281D01*
X061181Y084279D01*
Y083879D01*
X061281Y083780D01*
X061481D01*
X061581Y083879D01*
X062081Y083780D02*
Y084379D01*
X061781Y084079D01*
X062181D01*
X070203Y078295D02*
X070103Y078395D01*
X069903D01*
X069803Y078295D01*
Y077895D01*
X069903Y077795D01*
X070103D01*
X070203Y077895D01*
X070803Y078395D02*
X070603Y078295D01*
X070403Y078095D01*
Y077895D01*
X070503Y077795D01*
X070703D01*
X070803Y077895D01*
Y077995D01*
X070703Y078095D01*
X070403D01*
X066351Y076345D02*
X066251Y076245D01*
Y076045D01*
X066351Y075945D01*
X066750D01*
X066850Y076045D01*
Y076245D01*
X066750Y076345D01*
X066251Y076545D02*
Y076945D01*
X066351D01*
X066750Y076545D01*
X066850D01*
X066351Y075046D02*
X066251Y074946D01*
Y074746D01*
X066351Y074646D01*
X066750D01*
X066850Y074746D01*
Y074946D01*
X066750Y075046D01*
X066351Y075245D02*
X066251Y075345D01*
Y075545D01*
X066351Y075645D01*
X066451D01*
X066550Y075545D01*
X066650Y075645D01*
X066750D01*
X066850Y075545D01*
Y075345D01*
X066750Y075245D01*
X066650D01*
X066550Y075345D01*
X066451Y075245D01*
X066351D01*
X066550Y075345D02*
Y075545D01*
X068707Y078334D02*
X068607Y078434D01*
X068407D01*
X068307Y078334D01*
Y077935D01*
X068407Y077835D01*
X068607D01*
X068707Y077935D01*
X068907D02*
X069007Y077835D01*
X069207D01*
X069307Y077935D01*
Y078334D01*
X069207Y078434D01*
X069007D01*
X068907Y078334D01*
Y078235D01*
X069007Y078135D01*
X069307D01*
X068668Y073334D02*
X068568Y073434D01*
X068368D01*
X068268Y073334D01*
Y072935D01*
X068368Y072835D01*
X068568D01*
X068668Y072935D01*
X068868Y072835D02*
X069067D01*
X068967D01*
Y073434D01*
X068868Y073334D01*
X069367D02*
X069467Y073434D01*
X069667D01*
X069767Y073334D01*
Y072935D01*
X069667Y072835D01*
X069467D01*
X069367Y072935D01*
Y073334D01*
X052235Y068504D02*
X052835D01*
Y068804D01*
X052735Y068904D01*
X052335D01*
X052235Y068804D01*
Y068504D01*
X052835Y069104D02*
Y069304D01*
Y069204D01*
X052235D01*
X052335Y069104D01*
X052077Y074882D02*
X052677D01*
Y075182D01*
X052577Y075282D01*
X052177D01*
X052077Y075182D01*
Y074882D01*
X052677Y075882D02*
Y075482D01*
X052277Y075882D01*
X052177D01*
X052077Y075782D01*
Y075582D01*
X052177Y075482D01*
X052156Y066457D02*
X052756D01*
Y066757D01*
X052656Y066857D01*
X052256D01*
X052156Y066757D01*
Y066457D01*
X052256Y067056D02*
X052156Y067156D01*
Y067356D01*
X052256Y067456D01*
X052356D01*
X052456Y067356D01*
Y067256D01*
Y067356D01*
X052556Y067456D01*
X052656D01*
X052756Y067356D01*
Y067156D01*
X052656Y067056D01*
X072002Y069715D02*
X072202D01*
X072102D01*
Y070215D01*
X072202Y070315D01*
X072302D01*
X072402Y070215D01*
X071402Y070315D02*
X071802D01*
X071402Y069915D01*
Y069815D01*
X071502Y069715D01*
X071702D01*
X071802Y069815D01*
X052795Y090709D02*
X053395D01*
Y090409D01*
X053295Y090309D01*
X053095D01*
X052995Y090409D01*
Y090709D01*
X053295Y090109D02*
X053395Y090009D01*
Y089809D01*
X053295Y089709D01*
X053195D01*
X053095Y089809D01*
Y089909D01*
Y089809D01*
X052995Y089709D01*
X052895D01*
X052795Y089809D01*
Y090009D01*
X052895Y090109D01*
X073565Y092221D02*
Y092821D01*
X073865D01*
X073965Y092721D01*
Y092521D01*
X073865Y092421D01*
X073565D01*
X074565Y092221D02*
X074165D01*
X074565Y092621D01*
Y092721D01*
X074465Y092821D01*
X074265D01*
X074165Y092721D01*
X053898Y094449D02*
Y095049D01*
X054198D01*
X054298Y094949D01*
Y094749D01*
X054198Y094649D01*
X053898D01*
X054098D02*
X054298Y094449D01*
X054497D02*
X054697D01*
X054597D01*
Y095049D01*
X054497Y094949D01*
X054997D02*
X055097Y095049D01*
X055297D01*
X055397Y094949D01*
Y094549D01*
X055297Y094449D01*
X055097D01*
X054997Y094549D01*
Y094949D01*
X059882Y085000D02*
Y085600D01*
X060182D01*
X060282Y085500D01*
Y085300D01*
X060182Y085200D01*
X059882D01*
X060082D02*
X060282Y085000D01*
X060482D02*
X060682D01*
X060582D01*
Y085600D01*
X060482Y085500D01*
X059331Y085000D02*
X058731D01*
Y085300D01*
X058831Y085400D01*
X059031D01*
X059131Y085300D01*
Y085000D01*
Y085200D02*
X059331Y085400D01*
Y086000D02*
Y085600D01*
X058931Y086000D01*
X058831D01*
X058731Y085900D01*
Y085700D01*
X058831Y085600D01*
X054308Y070278D02*
X053708D01*
Y070578D01*
X053808Y070678D01*
X054008D01*
X054108Y070578D01*
Y070278D01*
Y070478D02*
X054308Y070678D01*
X053708Y070878D02*
Y071278D01*
X053808D01*
X054208Y070878D01*
X054308D01*
Y072877D02*
X053708D01*
Y073176D01*
X053808Y073276D01*
X054008D01*
X054108Y073176D01*
Y072877D01*
Y073076D02*
X054308Y073276D01*
X053808Y073476D02*
X053708Y073576D01*
Y073776D01*
X053808Y073876D01*
X053908D01*
X054008Y073776D01*
X054108Y073876D01*
X054208D01*
X054308Y073776D01*
Y073576D01*
X054208Y073476D01*
X054108D01*
X054008Y073576D01*
X053908Y073476D01*
X053808D01*
X054008Y073576D02*
Y073776D01*
X054308Y064530D02*
X053708D01*
Y064830D01*
X053808Y064930D01*
X054008D01*
X054108Y064830D01*
Y064530D01*
Y064730D02*
X054308Y064930D01*
X054208Y065130D02*
X054308Y065230D01*
Y065430D01*
X054208Y065530D01*
X053808D01*
X053708Y065430D01*
Y065230D01*
X053808Y065130D01*
X053908D01*
X054008Y065230D01*
Y065530D01*
X068425Y064518D02*
Y065018D01*
X068325Y065118D01*
X068125D01*
X068025Y065018D01*
Y064518D01*
X067825Y065118D02*
X067625D01*
X067725D01*
Y064518D01*
X067825Y064618D01*
X059764Y081033D02*
Y080533D01*
X059864Y080433D01*
X060064D01*
X060164Y080533D01*
Y081033D01*
X060364Y080933D02*
X060464Y081033D01*
X060663D01*
X060763Y080933D01*
Y080833D01*
X060663Y080733D01*
X060564D01*
X060663D01*
X060763Y080633D01*
Y080533D01*
X060663Y080433D01*
X060464D01*
X060364Y080533D01*
X069055Y076387D02*
Y075887D01*
X069155Y075787D01*
X069355D01*
X069455Y075887D01*
Y076387D01*
X070055Y075787D02*
X069655D01*
X070055Y076187D01*
Y076287D01*
X069955Y076387D01*
X069755D01*
X069655Y076287D01*
X061581Y083610D02*
X061481Y083710D01*
X061281D01*
X061181Y083610D01*
Y083210D01*
X061281Y083110D01*
X061481D01*
X061581Y083210D01*
X062181Y083710D02*
X061781D01*
Y083410D01*
X061981Y083510D01*
X062081D01*
X062181Y083410D01*
Y083210D01*
X062081Y083110D01*
X061881D01*
X061781Y083210D01*
X051652Y081126D02*
Y081726D01*
X051952D01*
X052051Y081626D01*
Y081426D01*
X051952Y081326D01*
X051652D01*
X052251Y081126D02*
X052451D01*
X052351D01*
Y081726D01*
X052251Y081626D01*
X064843Y093346D02*
Y093946D01*
X065142D01*
X065242Y093846D01*
Y093646D01*
X065142Y093546D01*
X064843D01*
X065042D02*
X065242Y093346D01*
X065442Y093846D02*
X065542Y093946D01*
X065742D01*
X065842Y093846D01*
Y093746D01*
X065742Y093646D01*
X065642D01*
X065742D01*
X065842Y093546D01*
Y093446D01*
X065742Y093346D01*
X065542D01*
X065442Y093446D01*
X064806Y086598D02*
Y087198D01*
X065106D01*
X065205Y087098D01*
Y086898D01*
X065106Y086798D01*
X064806D01*
X065006D02*
X065205Y086598D01*
X065705D02*
Y087198D01*
X065405Y086898D01*
X065805D01*
X065551Y090354D02*
Y090954D01*
X065851D01*
X065951Y090854D01*
Y090654D01*
X065851Y090554D01*
X065551D01*
X065751D02*
X065951Y090354D01*
X066551Y090954D02*
X066151D01*
Y090654D01*
X066351Y090754D01*
X066451D01*
X066551Y090654D01*
Y090454D01*
X066451Y090354D01*
X066251D01*
X066151Y090454D01*
X065630Y083504D02*
Y084104D01*
X065930D01*
X066030Y084004D01*
Y083804D01*
X065930Y083704D01*
X065630D01*
X065830D02*
X066030Y083504D01*
X066630Y084104D02*
X066430Y084004D01*
X066230Y083804D01*
Y083604D01*
X066330Y083504D01*
X066530D01*
X066630Y083604D01*
Y083704D01*
X066530Y083804D01*
X066230D01*
X054843Y097411D02*
Y096811D01*
X055242D01*
X055442D02*
X055642D01*
X055542D01*
Y097211D01*
X055442D01*
X055942Y097411D02*
Y096811D01*
X056242D01*
X056342Y096911D01*
Y097011D01*
Y097111D01*
X056242Y097211D01*
X055942D01*
X056542D02*
Y096811D01*
Y097011D01*
X056642Y097111D01*
X056742Y097211D01*
X056842D01*
X057442Y096811D02*
X057242D01*
X057142Y096911D01*
Y097111D01*
X057242Y097211D01*
X057442D01*
X057542Y097111D01*
Y097011D01*
X057142D01*
X058141Y097311D02*
X058041Y097411D01*
X057842D01*
X057742Y097311D01*
Y096911D01*
X057842Y096811D01*
X058041D01*
X058141Y096911D01*
X058341Y097211D02*
Y096911D01*
X058441Y096811D01*
X058741D01*
Y097211D01*
X058941Y097411D02*
Y096811D01*
X059241D01*
X059341Y096911D01*
Y097011D01*
Y097111D01*
X059241Y097211D01*
X058941D01*
X059841Y096811D02*
X059641D01*
X059541Y096911D01*
Y097111D01*
X059641Y097211D01*
X059841D01*
X059941Y097111D01*
Y097011D01*
X059541D01*
X060741Y097411D02*
Y096811D01*
X061140D01*
X061740Y097311D02*
X061640Y097411D01*
X061440D01*
X061340Y097311D01*
Y096911D01*
X061440Y096811D01*
X061640D01*
X061740Y096911D01*
X061940Y097111D02*
X062340D01*
X062840Y096811D02*
Y097411D01*
X062540Y097111D01*
X062940D01*
X063140Y096811D02*
X063340D01*
X063240D01*
Y097411D01*
X063140Y097311D01*
X063640D02*
X063740Y097411D01*
X063940D01*
X064040Y097311D01*
Y096911D01*
X063940Y096811D01*
X063740D01*
X063640Y096911D01*
Y097311D01*
X064639Y096811D02*
X064239D01*
X064639Y097211D01*
Y097311D01*
X064539Y097411D01*
X064339D01*
X064239Y097311D01*
X064939Y097211D02*
X065139D01*
X065239Y097111D01*
Y096811D01*
X064939D01*
X064839Y096911D01*
X064939Y097011D01*
X065239D01*
D42*
X052283Y093504D02*
Y094291D01*
Y093504D02*
X052677D01*
Y091256D02*
Y093504D01*
X052283Y091256D02*
X052677D01*
X052283Y090453D02*
Y091256D01*
X051299Y090453D02*
X052283D01*
X051299D02*
Y091055D01*
X050906D02*
X051299D01*
X050906D02*
Y093701D01*
X051299D01*
Y094291D01*
X052283D01*
D43*
X074200Y091096D02*
Y091263D01*
Y091179D01*
X073700D01*
X073783Y091096D01*
Y091513D02*
X073700Y091596D01*
Y091763D01*
X073783Y091846D01*
X074117D01*
X074200Y091763D01*
Y091596D01*
X074117Y091513D01*
X073783D01*
X075117Y091096D02*
X075200Y091179D01*
Y091346D01*
X075117Y091429D01*
X074783D01*
X074700Y091346D01*
Y091179D01*
X074783Y091096D01*
X074867D01*
X074950Y091179D01*
Y091429D01*
X075200Y085696D02*
Y085863D01*
Y085779D01*
X074700D01*
X074783Y085696D01*
X074200Y085829D02*
Y085496D01*
X073867Y085829D01*
X073783D01*
X073700Y085746D01*
Y085579D01*
X073783Y085496D01*
D44*
X072096Y077909D02*
Y077713D01*
Y077811D01*
X072687D01*
X072588Y077909D01*
X072687Y073252D02*
Y073646D01*
X072392D01*
X072490Y073449D01*
Y073350D01*
X072392Y073252D01*
X072195D01*
X072096Y073350D01*
Y073547D01*
X072195Y073646D01*
X075896Y074191D02*
X075797Y074093D01*
Y073896D01*
X075896Y073797D01*
X076289D01*
X076388Y073896D01*
Y074093D01*
X076289Y074191D01*
X076191D01*
X076092Y074093D01*
Y073797D01*
X076388Y077069D02*
X076289Y077266D01*
X076092Y077463D01*
X075896D01*
X075797Y077364D01*
Y077167D01*
X075896Y077069D01*
X075994D01*
X076092Y077167D01*
Y077463D01*
M02*
