solid CATIA STL
  facet normal  0.000000e+000  0.000000e+000 -1.000000e+000
    outer loop
      vertex  1.000000e+000 -3.400000e+001  3.000000e+000
      vertex  0.000000e+000 -3.400000e+001  3.000000e+000
      vertex  1.000000e+000 -9.916080e+000  3.000000e+000
    endloop
  endfacet
  facet normal  -0.000000e+000  0.000000e+000 -1.000000e+000
    outer loop
      vertex  1.000000e+000 -9.916080e+000  3.000000e+000
      vertex  0.000000e+000 -3.400000e+001  3.000000e+000
      vertex  0.000000e+000 -9.916080e+000  3.000000e+000
    endloop
  endfacet
  facet normal  0.000000e+000  1.000000e+000  -0.000000e+000
    outer loop
      vertex  1.000000e+000 -3.700000e+001 -1.065814e-014
      vertex  1.000000e+000 -3.700000e+001 -2.000000e+001
      vertex  0.000000e+000 -3.700000e+001 -1.243450e-014
    endloop
  endfacet
  facet normal  0.000000e+000  1.000000e+000  0.000000e+000
    outer loop
      vertex  0.000000e+000 -3.700000e+001 -1.243450e-014
      vertex  1.000000e+000 -3.700000e+001 -2.000000e+001
      vertex  0.000000e+000 -3.700000e+001 -2.000000e+001
    endloop
  endfacet
  facet normal -1.000000e+000  0.000000e+000  0.000000e+000
    outer loop
      vertex  0.000000e+000  3.226091e+001 -4.468875e+000
      vertex  0.000000e+000  2.559808e+001 -3.500000e+000
      vertex  0.000000e+000  2.450000e+001 -2.401924e+000
    endloop
  endfacet
  facet normal -1.000000e+000  3.387488e-016 -8.482479e-017
    outer loop
      vertex  0.000000e+000  2.600000e+001 -2.000000e+001
      vertex  0.000000e+000  2.903289e+001 -7.888133e+000
      vertex  3.608225e-016  2.948967e+001 -1.031770e+001
    endloop
  endfacet
  facet normal -9.999999e-001 -1.235144e-016  8.178296e-017
    outer loop
      vertex  0.000000e+000  2.600000e+001 -2.000000e+001
      vertex  3.608225e-016  2.948967e+001 -1.031770e+001
      vertex  0.000000e+000  3.128728e+001 -1.201477e+001
    endloop
  endfacet
  facet normal -1.000000e+000  0.000000e+000  -0.000000e+000
    outer loop
      vertex  0.000000e+000  2.600000e+001 -2.000000e+001
      vertex  0.000000e+000  3.128728e+001 -1.201477e+001
      vertex  0.000000e+000  3.373909e+001 -1.233113e+001
    endloop
  endfacet
  facet normal -1.000000e+000  0.000000e+000  -0.000000e+000
    outer loop
      vertex  0.000000e+000  2.600000e+001 -2.000000e+001
      vertex  0.000000e+000  3.373909e+001 -1.233113e+001
      vertex  0.000000e+000  5.200000e+001 -2.000000e+001
    endloop
  endfacet
  facet normal -1.000000e+000  0.000000e+000  0.000000e+000
    outer loop
      vertex  0.000000e+000  2.300000e+001 -2.000000e+000
      vertex  0.000000e+000 -4.000000e+000 -2.000000e+000
      vertex  0.000000e+000 -5.936491e+000 -1.291288e+000
    endloop
  endfacet
  facet normal -1.000000e+000  0.000000e+000  0.000000e+000
    outer loop
      vertex  0.000000e+000  2.300000e+001 -2.000000e+000
      vertex  0.000000e+000 -5.936491e+000 -1.291288e+000
      vertex  0.000000e+000 -6.958040e+000  5.000000e-001
    endloop
  endfacet
  facet normal -1.000000e+000  0.000000e+000  0.000000e+000
    outer loop
      vertex  0.000000e+000  2.300000e+001 -2.000000e+000
      vertex  0.000000e+000 -6.958040e+000  5.000000e-001
      vertex  0.000000e+000 -7.979588e+000  2.291288e+000
    endloop
  endfacet
  facet normal -1.000000e+000  0.000000e+000  0.000000e+000
    outer loop
      vertex  0.000000e+000  2.300000e+001 -2.000000e+000
      vertex  0.000000e+000 -7.979588e+000  2.291288e+000
      vertex  0.000000e+000 -9.916080e+000  3.000000e+000
    endloop
  endfacet
  facet normal -9.999999e-001  0.000000e+000  0.000000e+000
    outer loop
      vertex  0.000000e+000  2.300000e+001 -2.000000e+000
      vertex  0.000000e+000 -9.916080e+000  3.000000e+000
      vertex  0.000000e+000 -5.200000e+001  2.000000e+001
    endloop
  endfacet
  facet normal -1.000000e+000  0.000000e+000  0.000000e+000
    outer loop
      vertex  0.000000e+000  2.300000e+001 -2.000000e+000
      vertex  0.000000e+000 -5.200000e+001  2.000000e+001
      vertex  0.000000e+000  2.450000e+001 -2.401924e+000
    endloop
  endfacet
  facet normal -1.000000e+000  -0.000000e+000  0.000000e+000
    outer loop
      vertex  0.000000e+000 -5.200000e+001  2.000000e+001
      vertex  0.000000e+000  5.200000e+001  2.000000e+001
      vertex  0.000000e+000  3.471272e+001 -4.785226e+000
    endloop
  endfacet
  facet normal -1.000000e+000  0.000000e+000  0.000000e+000
    outer loop
      vertex  0.000000e+000 -5.200000e+001  2.000000e+001
      vertex  0.000000e+000  3.471272e+001 -4.785226e+000
      vertex  0.000000e+000  3.226091e+001 -4.468875e+000
    endloop
  endfacet
  facet normal -1.000000e+000  0.000000e+000  0.000000e+000
    outer loop
      vertex  0.000000e+000 -5.200000e+001  2.000000e+001
      vertex  0.000000e+000  3.226091e+001 -4.468875e+000
      vertex  0.000000e+000  2.450000e+001 -2.401924e+000
    endloop
  endfacet
  facet normal -1.000000e+000  0.000000e+000  0.000000e+000
    outer loop
      vertex  0.000000e+000 -5.200000e+001  2.000000e+001
      vertex  0.000000e+000 -9.916080e+000  3.000000e+000
      vertex  0.000000e+000 -3.400000e+001  3.000000e+000
    endloop
  endfacet
  facet normal -1.000000e+000  -0.000000e+000  0.000000e+000
    outer loop
      vertex  0.000000e+000 -5.200000e+001  2.000000e+001
      vertex  0.000000e+000 -3.400000e+001  3.000000e+000
      vertex  0.000000e+000 -3.550000e+001  2.598076e+000
    endloop
  endfacet
  facet normal -1.000000e+000  -0.000000e+000  0.000000e+000
    outer loop
      vertex  0.000000e+000 -5.200000e+001  2.000000e+001
      vertex  0.000000e+000 -3.550000e+001  2.598076e+000
      vertex  0.000000e+000 -3.659808e+001  1.500000e+000
    endloop
  endfacet
  facet normal -1.000000e+000  -0.000000e+000  0.000000e+000
    outer loop
      vertex  0.000000e+000 -5.200000e+001  2.000000e+001
      vertex  0.000000e+000 -3.659808e+001  1.500000e+000
      vertex  0.000000e+000 -3.700000e+001 -1.243450e-014
    endloop
  endfacet
  facet normal -1.000000e+000  -0.000000e+000  -0.000000e+000
    outer loop
      vertex  0.000000e+000 -5.200000e+001  2.000000e+001
      vertex  0.000000e+000 -3.700000e+001 -1.243450e-014
      vertex  0.000000e+000 -3.700000e+001 -2.000000e+001
    endloop
  endfacet
  facet normal -1.000000e+000  0.000000e+000  0.000000e+000
    outer loop
      vertex  0.000000e+000 -5.200000e+001  2.000000e+001
      vertex  0.000000e+000 -3.700000e+001 -2.000000e+001
      vertex  0.000000e+000 -5.200000e+001 -2.000000e+001
    endloop
  endfacet
  facet normal -1.000000e+000  0.000000e+000  0.000000e+000
    outer loop
      vertex  0.000000e+000  2.600000e+001 -5.000000e+000
      vertex  0.000000e+000  2.559808e+001 -3.500000e+000
      vertex  0.000000e+000  3.226091e+001 -4.468875e+000
    endloop
  endfacet
  facet normal -9.999999e-001  0.000000e+000  0.000000e+000
    outer loop
      vertex  0.000000e+000  2.600000e+001 -5.000000e+000
      vertex  0.000000e+000  3.226091e+001 -4.468875e+000
      vertex  0.000000e+000  3.009141e+001 -5.654080e+000
    endloop
  endfacet
  facet normal -1.000000e+000  -0.000000e+000  0.000000e+000
    outer loop
      vertex  0.000000e+000  2.600000e+001 -5.000000e+000
      vertex  0.000000e+000  3.009141e+001 -5.654080e+000
      vertex  0.000000e+000  2.903289e+001 -7.888133e+000
    endloop
  endfacet
  facet normal -1.000000e+000  -0.000000e+000  0.000000e+000
    outer loop
      vertex  0.000000e+000  2.600000e+001 -5.000000e+000
      vertex  0.000000e+000  2.903289e+001 -7.888133e+000
      vertex  0.000000e+000  2.600000e+001 -2.000000e+001
    endloop
  endfacet
  facet normal -1.000000e+000  0.000000e+000  0.000000e+000
    outer loop
      vertex  0.000000e+000  5.200000e+001 -2.000000e+001
      vertex  0.000000e+000  3.373909e+001 -1.233113e+001
      vertex  0.000000e+000  3.590860e+001 -1.114592e+001
    endloop
  endfacet
  facet normal -1.000000e+000  0.000000e+000  0.000000e+000
    outer loop
      vertex  0.000000e+000  5.200000e+001 -2.000000e+001
      vertex  0.000000e+000  3.590860e+001 -1.114592e+001
      vertex  0.000000e+000  3.696711e+001 -8.911867e+000
    endloop
  endfacet
  facet normal -1.000000e+000  1.271783e-016  1.724237e-016
    outer loop
      vertex  0.000000e+000  5.200000e+001 -2.000000e+001
      vertex  0.000000e+000  3.696711e+001 -8.911867e+000
      vertex  3.608225e-016  3.651033e+001 -6.482298e+000
    endloop
  endfacet
  facet normal -1.000000e+000 -2.762163e-015 -3.138416e-015
    outer loop
      vertex  0.000000e+000  5.200000e+001 -2.000000e+001
      vertex  3.608225e-016  3.651033e+001 -6.482298e+000
      vertex  0.000000e+000  3.471272e+001 -4.785226e+000
    endloop
  endfacet
  facet normal -1.000000e+000  0.000000e+000  0.000000e+000
    outer loop
      vertex  0.000000e+000  5.200000e+001 -2.000000e+001
      vertex  0.000000e+000  3.471272e+001 -4.785226e+000
      vertex  0.000000e+000  5.200000e+001  2.000000e+001
    endloop
  endfacet
  facet normal  1.000000e+000  -0.000000e+000  -0.000000e+000
    outer loop
      vertex  1.000000e+000  2.450000e+001 -2.401924e+000
      vertex  1.000000e+000  2.559808e+001 -3.500000e+000
      vertex  1.000000e+000  3.226091e+001 -4.468875e+000
    endloop
  endfacet
  facet normal  1.000000e+000  0.000000e+000  0.000000e+000
    outer loop
      vertex  1.000000e+000  2.600000e+001 -2.000000e+001
      vertex  1.000000e+000  5.200000e+001 -2.000000e+001
      vertex  1.000000e+000  3.373909e+001 -1.233113e+001
    endloop
  endfacet
  facet normal  1.000000e+000  0.000000e+000  0.000000e+000
    outer loop
      vertex  1.000000e+000  2.600000e+001 -2.000000e+001
      vertex  1.000000e+000  3.373909e+001 -1.233113e+001
      vertex  1.000000e+000  3.128728e+001 -1.201477e+001
    endloop
  endfacet
  facet normal  9.999999e-001  0.000000e+000  0.000000e+000
    outer loop
      vertex  1.000000e+000  2.600000e+001 -2.000000e+001
      vertex  1.000000e+000  3.128728e+001 -1.201477e+001
      vertex  1.000000e+000  2.948967e+001 -1.031770e+001
    endloop
  endfacet
  facet normal  1.000000e+000  0.000000e+000  0.000000e+000
    outer loop
      vertex  1.000000e+000  2.600000e+001 -2.000000e+001
      vertex  1.000000e+000  2.948967e+001 -1.031770e+001
      vertex  1.000000e+000  2.903289e+001 -7.888133e+000
    endloop
  endfacet
  facet normal  1.000000e+000  0.000000e+000  0.000000e+000
    outer loop
      vertex  1.000000e+000  2.300000e+001 -2.000000e+000
      vertex  1.000000e+000  2.450000e+001 -2.401924e+000
      vertex  1.000000e+000 -5.200000e+001  2.000000e+001
    endloop
  endfacet
  facet normal  9.999999e-001  0.000000e+000  0.000000e+000
    outer loop
      vertex  1.000000e+000  2.300000e+001 -2.000000e+000
      vertex  1.000000e+000 -5.200000e+001  2.000000e+001
      vertex  1.000000e+000 -9.916080e+000  3.000000e+000
    endloop
  endfacet
  facet normal  1.000000e+000  0.000000e+000  0.000000e+000
    outer loop
      vertex  1.000000e+000  2.300000e+001 -2.000000e+000
      vertex  1.000000e+000 -9.916080e+000  3.000000e+000
      vertex  1.000000e+000 -7.979588e+000  2.291288e+000
    endloop
  endfacet
  facet normal  1.000000e+000  0.000000e+000  0.000000e+000
    outer loop
      vertex  1.000000e+000  2.300000e+001 -2.000000e+000
      vertex  1.000000e+000 -7.979588e+000  2.291288e+000
      vertex  1.000000e+000 -6.958040e+000  5.000000e-001
    endloop
  endfacet
  facet normal  1.000000e+000  0.000000e+000  0.000000e+000
    outer loop
      vertex  1.000000e+000  2.300000e+001 -2.000000e+000
      vertex  1.000000e+000 -6.958040e+000  5.000000e-001
      vertex  1.000000e+000 -5.936491e+000 -1.291288e+000
    endloop
  endfacet
  facet normal  1.000000e+000  0.000000e+000  0.000000e+000
    outer loop
      vertex  1.000000e+000  2.300000e+001 -2.000000e+000
      vertex  1.000000e+000 -5.936491e+000 -1.291288e+000
      vertex  1.000000e+000 -4.000000e+000 -2.000000e+000
    endloop
  endfacet
  facet normal  1.000000e+000  -0.000000e+000  -0.000000e+000
    outer loop
      vertex  1.000000e+000 -5.200000e+001  2.000000e+001
      vertex  1.000000e+000  2.450000e+001 -2.401924e+000
      vertex  1.000000e+000  3.226091e+001 -4.468875e+000
    endloop
  endfacet
  facet normal  1.000000e+000  -0.000000e+000  -0.000000e+000
    outer loop
      vertex  1.000000e+000 -5.200000e+001  2.000000e+001
      vertex  1.000000e+000  3.226091e+001 -4.468875e+000
      vertex  1.000000e+000  3.471272e+001 -4.785226e+000
    endloop
  endfacet
  facet normal  9.999999e-001  0.000000e+000  -0.000000e+000
    outer loop
      vertex  1.000000e+000 -5.200000e+001  2.000000e+001
      vertex  1.000000e+000  3.471272e+001 -4.785226e+000
      vertex  1.000000e+000  5.200000e+001  2.000000e+001
    endloop
  endfacet
  facet normal  1.000000e+000  0.000000e+000  0.000000e+000
    outer loop
      vertex  1.000000e+000  2.600000e+001 -5.000000e+000
      vertex  1.000000e+000  2.600000e+001 -2.000000e+001
      vertex  1.000000e+000  2.903289e+001 -7.888133e+000
    endloop
  endfacet
  facet normal  1.000000e+000  0.000000e+000  -0.000000e+000
    outer loop
      vertex  1.000000e+000  2.600000e+001 -5.000000e+000
      vertex  1.000000e+000  2.903289e+001 -7.888133e+000
      vertex  1.000000e+000  3.009141e+001 -5.654080e+000
    endloop
  endfacet
  facet normal  9.999999e-001  0.000000e+000  -0.000000e+000
    outer loop
      vertex  1.000000e+000  2.600000e+001 -5.000000e+000
      vertex  1.000000e+000  3.009141e+001 -5.654080e+000
      vertex  1.000000e+000  3.226091e+001 -4.468875e+000
    endloop
  endfacet
  facet normal  1.000000e+000  0.000000e+000  0.000000e+000
    outer loop
      vertex  1.000000e+000  2.600000e+001 -5.000000e+000
      vertex  1.000000e+000  3.226091e+001 -4.468875e+000
      vertex  1.000000e+000  2.559808e+001 -3.500000e+000
    endloop
  endfacet
  facet normal  1.000000e+000  0.000000e+000  0.000000e+000
    outer loop
      vertex  1.000000e+000 -5.200000e+001  2.000000e+001
      vertex  1.000000e+000 -5.200000e+001 -2.000000e+001
      vertex  1.000000e+000 -3.700000e+001 -2.000000e+001
    endloop
  endfacet
  facet normal  1.000000e+000  0.000000e+000  -0.000000e+000
    outer loop
      vertex  1.000000e+000 -5.200000e+001  2.000000e+001
      vertex  1.000000e+000 -3.700000e+001 -2.000000e+001
      vertex  1.000000e+000 -3.700000e+001 -1.065814e-014
    endloop
  endfacet
  facet normal  1.000000e+000  0.000000e+000  -0.000000e+000
    outer loop
      vertex  1.000000e+000 -5.200000e+001  2.000000e+001
      vertex  1.000000e+000 -3.700000e+001 -1.065814e-014
      vertex  1.000000e+000 -3.659808e+001  1.500000e+000
    endloop
  endfacet
  facet normal  1.000000e+000  0.000000e+000  -0.000000e+000
    outer loop
      vertex  1.000000e+000 -5.200000e+001  2.000000e+001
      vertex  1.000000e+000 -3.659808e+001  1.500000e+000
      vertex  1.000000e+000 -3.550000e+001  2.598076e+000
    endloop
  endfacet
  facet normal  1.000000e+000  0.000000e+000  -0.000000e+000
    outer loop
      vertex  1.000000e+000 -5.200000e+001  2.000000e+001
      vertex  1.000000e+000 -3.550000e+001  2.598076e+000
      vertex  1.000000e+000 -3.400000e+001  3.000000e+000
    endloop
  endfacet
  facet normal  1.000000e+000  0.000000e+000  -0.000000e+000
    outer loop
      vertex  1.000000e+000 -5.200000e+001  2.000000e+001
      vertex  1.000000e+000 -3.400000e+001  3.000000e+000
      vertex  1.000000e+000 -9.916080e+000  3.000000e+000
    endloop
  endfacet
  facet normal  1.000000e+000  0.000000e+000  0.000000e+000
    outer loop
      vertex  1.000000e+000  5.200000e+001 -2.000000e+001
      vertex  1.000000e+000  5.200000e+001  2.000000e+001
      vertex  1.000000e+000  3.471272e+001 -4.785226e+000
    endloop
  endfacet
  facet normal  1.000000e+000  0.000000e+000  0.000000e+000
    outer loop
      vertex  1.000000e+000  5.200000e+001 -2.000000e+001
      vertex  1.000000e+000  3.471272e+001 -4.785226e+000
      vertex  1.000000e+000  3.651033e+001 -6.482298e+000
    endloop
  endfacet
  facet normal  1.000000e+000  0.000000e+000  0.000000e+000
    outer loop
      vertex  1.000000e+000  5.200000e+001 -2.000000e+001
      vertex  1.000000e+000  3.651033e+001 -6.482298e+000
      vertex  1.000000e+000  3.696711e+001 -8.911867e+000
    endloop
  endfacet
  facet normal  1.000000e+000  0.000000e+000  0.000000e+000
    outer loop
      vertex  1.000000e+000  5.200000e+001 -2.000000e+001
      vertex  1.000000e+000  3.696711e+001 -8.911867e+000
      vertex  1.000000e+000  3.590860e+001 -1.114592e+001
    endloop
  endfacet
  facet normal  1.000000e+000  0.000000e+000  0.000000e+000
    outer loop
      vertex  1.000000e+000  5.200000e+001 -2.000000e+001
      vertex  1.000000e+000  3.590860e+001 -1.114592e+001
      vertex  1.000000e+000  3.373909e+001 -1.233113e+001
    endloop
  endfacet
  facet normal  4.597553e-016  9.659258e-001 -2.588193e-001
    outer loop
      vertex  0.000000e+000 -3.659808e+001  1.500000e+000
      vertex  1.000000e+000 -3.700000e+001 -1.065814e-014
      vertex  0.000000e+000 -3.700000e+001 -1.243450e-014
    endloop
  endfacet
  facet normal  0.000000e+000  9.659258e-001 -2.588193e-001
    outer loop
      vertex  1.000000e+000 -3.700000e+001 -1.065814e-014
      vertex  0.000000e+000 -3.659808e+001  1.500000e+000
      vertex  1.000000e+000 -3.659808e+001  1.500000e+000
    endloop
  endfacet
  facet normal  0.000000e+000  7.071069e-001 -7.071067e-001
    outer loop
      vertex  1.000000e+000 -3.659808e+001  1.500000e+000
      vertex  0.000000e+000 -3.659808e+001  1.500000e+000
      vertex  0.000000e+000 -3.550000e+001  2.598076e+000
    endloop
  endfacet
  facet normal  0.000000e+000  7.071069e-001 -7.071067e-001
    outer loop
      vertex  1.000000e+000 -3.659808e+001  1.500000e+000
      vertex  0.000000e+000 -3.550000e+001  2.598076e+000
      vertex  1.000000e+000 -3.550000e+001  2.598076e+000
    endloop
  endfacet
  facet normal  0.000000e+000  2.588191e-001 -9.659258e-001
    outer loop
      vertex  1.000000e+000 -3.550000e+001  2.598076e+000
      vertex  0.000000e+000 -3.550000e+001  2.598076e+000
      vertex  0.000000e+000 -3.400000e+001  3.000000e+000
    endloop
  endfacet
  facet normal  0.000000e+000  2.588191e-001 -9.659258e-001
    outer loop
      vertex  1.000000e+000 -3.550000e+001  2.598076e+000
      vertex  0.000000e+000 -3.400000e+001  3.000000e+000
      vertex  1.000000e+000 -3.400000e+001  3.000000e+000
    endloop
  endfacet
  facet normal  -0.000000e+000 -3.436840e-001 -9.390854e-001
    outer loop
      vertex  0.000000e+000 -4.000000e+000 -2.000000e+000
      vertex  1.000000e+000 -4.000000e+000 -2.000000e+000
      vertex  0.000000e+000 -5.936491e+000 -1.291288e+000
    endloop
  endfacet
  facet normal  0.000000e+000 -3.436840e-001 -9.390854e-001
    outer loop
      vertex  0.000000e+000 -5.936491e+000 -1.291288e+000
      vertex  1.000000e+000 -4.000000e+000 -2.000000e+000
      vertex  1.000000e+000 -5.936491e+000 -1.291288e+000
    endloop
  endfacet
  facet normal  -0.000000e+000 -8.686700e-001 -4.953912e-001
    outer loop
      vertex  0.000000e+000 -5.936491e+000 -1.291288e+000
      vertex  1.000000e+000 -5.936491e+000 -1.291288e+000
      vertex  0.000000e+000 -6.958040e+000  5.000000e-001
    endloop
  endfacet
  facet normal  0.000000e+000 -8.686700e-001 -4.953912e-001
    outer loop
      vertex  0.000000e+000 -6.958040e+000  5.000000e-001
      vertex  1.000000e+000 -5.936491e+000 -1.291288e+000
      vertex  1.000000e+000 -6.958040e+000  5.000000e-001
    endloop
  endfacet
  facet normal  0.000000e+000 -8.686700e-001 -4.953912e-001
    outer loop
      vertex  1.000000e+000 -6.958040e+000  5.000000e-001
      vertex  1.000000e+000 -7.979588e+000  2.291288e+000
      vertex  0.000000e+000 -6.958040e+000  5.000000e-001
    endloop
  endfacet
  facet normal  0.000000e+000 -8.686700e-001 -4.953912e-001
    outer loop
      vertex  0.000000e+000 -6.958040e+000  5.000000e-001
      vertex  1.000000e+000 -7.979588e+000  2.291288e+000
      vertex  0.000000e+000 -7.979588e+000  2.291288e+000
    endloop
  endfacet
  facet normal  0.000000e+000 -3.436840e-001 -9.390854e-001
    outer loop
      vertex  1.000000e+000 -7.979588e+000  2.291288e+000
      vertex  1.000000e+000 -9.916080e+000  3.000000e+000
      vertex  0.000000e+000 -7.979588e+000  2.291288e+000
    endloop
  endfacet
  facet normal  0.000000e+000 -3.436840e-001 -9.390854e-001
    outer loop
      vertex  0.000000e+000 -7.979588e+000  2.291288e+000
      vertex  1.000000e+000 -9.916080e+000  3.000000e+000
      vertex  0.000000e+000 -9.916080e+000  3.000000e+000
    endloop
  endfacet
  facet normal  0.000000e+000  0.000000e+000 -1.000000e+000
    outer loop
      vertex  1.000000e+000  2.300000e+001 -2.000000e+000
      vertex  1.000000e+000 -4.000000e+000 -2.000000e+000
      vertex  0.000000e+000  2.300000e+001 -2.000000e+000
    endloop
  endfacet
  facet normal  0.000000e+000  0.000000e+000 -1.000000e+000
    outer loop
      vertex  0.000000e+000  2.300000e+001 -2.000000e+000
      vertex  1.000000e+000 -4.000000e+000 -2.000000e+000
      vertex  0.000000e+000 -4.000000e+000 -2.000000e+000
    endloop
  endfacet
  facet normal  0.000000e+000 -1.000000e+000  0.000000e+000
    outer loop
      vertex  1.000000e+000  2.600000e+001 -5.000000e+000
      vertex  0.000000e+000  2.600000e+001 -5.000000e+000
      vertex  1.000000e+000  2.600000e+001 -2.000000e+001
    endloop
  endfacet
  facet normal  0.000000e+000 -1.000000e+000  0.000000e+000
    outer loop
      vertex  1.000000e+000  2.600000e+001 -2.000000e+001
      vertex  0.000000e+000  2.600000e+001 -5.000000e+000
      vertex  0.000000e+000  2.600000e+001 -2.000000e+001
    endloop
  endfacet
  facet normal  -0.000000e+000 -2.588191e-001 -9.659258e-001
    outer loop
      vertex  0.000000e+000  2.450000e+001 -2.401924e+000
      vertex  1.000000e+000  2.300000e+001 -2.000000e+000
      vertex  0.000000e+000  2.300000e+001 -2.000000e+000
    endloop
  endfacet
  facet normal  0.000000e+000 -2.588191e-001 -9.659258e-001
    outer loop
      vertex  1.000000e+000  2.300000e+001 -2.000000e+000
      vertex  0.000000e+000  2.450000e+001 -2.401924e+000
      vertex  1.000000e+000  2.450000e+001 -2.401924e+000
    endloop
  endfacet
  facet normal  -0.000000e+000 -7.071069e-001 -7.071067e-001
    outer loop
      vertex  1.000000e+000  2.450000e+001 -2.401924e+000
      vertex  0.000000e+000  2.450000e+001 -2.401924e+000
      vertex  0.000000e+000  2.559808e+001 -3.500000e+000
    endloop
  endfacet
  facet normal  0.000000e+000 -7.071069e-001 -7.071067e-001
    outer loop
      vertex  1.000000e+000  2.450000e+001 -2.401924e+000
      vertex  0.000000e+000  2.559808e+001 -3.500000e+000
      vertex  1.000000e+000  2.559808e+001 -3.500000e+000
    endloop
  endfacet
  facet normal  -0.000000e+000 -9.659258e-001 -2.588193e-001
    outer loop
      vertex  1.000000e+000  2.559808e+001 -3.500000e+000
      vertex  0.000000e+000  2.559808e+001 -3.500000e+000
      vertex  0.000000e+000  2.600000e+001 -5.000000e+000
    endloop
  endfacet
  facet normal  0.000000e+000 -9.659258e-001 -2.588193e-001
    outer loop
      vertex  1.000000e+000  2.559808e+001 -3.500000e+000
      vertex  0.000000e+000  2.600000e+001 -5.000000e+000
      vertex  1.000000e+000  2.600000e+001 -5.000000e+000
    endloop
  endfacet
  facet normal  0.000000e+000  0.000000e+000 -1.000000e+000
    outer loop
      vertex  1.000000e+000 -3.700000e+001 -2.000000e+001
      vertex  1.000000e+000 -5.200000e+001 -2.000000e+001
      vertex  0.000000e+000 -3.700000e+001 -2.000000e+001
    endloop
  endfacet
  facet normal  0.000000e+000  0.000000e+000 -1.000000e+000
    outer loop
      vertex  0.000000e+000 -3.700000e+001 -2.000000e+001
      vertex  1.000000e+000 -5.200000e+001 -2.000000e+001
      vertex  0.000000e+000 -5.200000e+001 -2.000000e+001
    endloop
  endfacet
  facet normal  0.000000e+000  0.000000e+000 -1.000000e+000
    outer loop
      vertex  1.000000e+000  5.200000e+001 -2.000000e+001
      vertex  1.000000e+000  2.600000e+001 -2.000000e+001
      vertex  0.000000e+000  5.200000e+001 -2.000000e+001
    endloop
  endfacet
  facet normal  0.000000e+000  0.000000e+000 -1.000000e+000
    outer loop
      vertex  0.000000e+000  5.200000e+001 -2.000000e+001
      vertex  1.000000e+000  2.600000e+001 -2.000000e+001
      vertex  0.000000e+000  2.600000e+001 -2.000000e+001
    endloop
  endfacet
  facet normal  0.000000e+000  9.036935e-001 -4.281801e-001
    outer loop
      vertex  0.000000e+000  3.009141e+001 -5.654080e+000
      vertex  1.000000e+000  2.903289e+001 -7.888133e+000
      vertex  0.000000e+000  2.903289e+001 -7.888133e+000
    endloop
  endfacet
  facet normal  -0.000000e+000  9.827813e-001  1.847727e-001
    outer loop
      vertex  0.000000e+000  2.903289e+001 -7.888133e+000
      vertex  1.000000e+000  2.903289e+001 -7.888133e+000
      vertex  1.000000e+000  2.948967e+001 -1.031770e+001
    endloop
  endfacet
  facet normal  0.000000e+000  9.827813e-001  1.847727e-001
    outer loop
      vertex  0.000000e+000  2.903289e+001 -7.888133e+000
      vertex  1.000000e+000  2.948967e+001 -1.031770e+001
      vertex  3.608225e-016  2.948967e+001 -1.031770e+001
    endloop
  endfacet
  facet normal  0.000000e+000  9.036935e-001 -4.281801e-001
    outer loop
      vertex  1.000000e+000  2.903289e+001 -7.888133e+000
      vertex  0.000000e+000  3.009141e+001 -5.654080e+000
      vertex  1.000000e+000  3.009141e+001 -5.654080e+000
    endloop
  endfacet
  facet normal  0.000000e+000  4.794254e-001 -8.775827e-001
    outer loop
      vertex  1.000000e+000  3.009141e+001 -5.654080e+000
      vertex  0.000000e+000  3.009141e+001 -5.654080e+000
      vertex  0.000000e+000  3.226091e+001 -4.468875e+000
    endloop
  endfacet
  facet normal  0.000000e+000  4.794254e-001 -8.775827e-001
    outer loop
      vertex  1.000000e+000  3.009141e+001 -5.654080e+000
      vertex  0.000000e+000  3.226091e+001 -4.468875e+000
      vertex  1.000000e+000  3.226091e+001 -4.468875e+000
    endloop
  endfacet
  facet normal  -0.000000e+000 -1.279668e-001 -9.917785e-001
    outer loop
      vertex  1.000000e+000  3.226091e+001 -4.468875e+000
      vertex  0.000000e+000  3.226091e+001 -4.468875e+000
      vertex  0.000000e+000  3.471272e+001 -4.785226e+000
    endloop
  endfacet
  facet normal  0.000000e+000 -1.279668e-001 -9.917785e-001
    outer loop
      vertex  1.000000e+000  3.226091e+001 -4.468875e+000
      vertex  0.000000e+000  3.471272e+001 -4.785226e+000
      vertex  1.000000e+000  3.471272e+001 -4.785226e+000
    endloop
  endfacet
  facet normal  -0.000000e+000 -6.864799e-001 -7.271488e-001
    outer loop
      vertex  1.000000e+000  3.471272e+001 -4.785226e+000
      vertex  0.000000e+000  3.471272e+001 -4.785226e+000
      vertex  3.608225e-016  3.651033e+001 -6.482298e+000
    endloop
  endfacet
  facet normal  0.000000e+000 -6.864799e-001 -7.271488e-001
    outer loop
      vertex  1.000000e+000  3.471272e+001 -4.785226e+000
      vertex  3.608225e-016  3.651033e+001 -6.482298e+000
      vertex  1.000000e+000  3.651033e+001 -6.482298e+000
    endloop
  endfacet
  facet normal  0.000000e+000 -9.036937e-001  4.281795e-001
    outer loop
      vertex  0.000000e+000  3.590860e+001 -1.114592e+001
      vertex  1.000000e+000  3.696711e+001 -8.911867e+000
      vertex  0.000000e+000  3.696711e+001 -8.911867e+000
    endloop
  endfacet
  facet normal  0.000000e+000 -9.827813e-001 -1.847727e-001
    outer loop
      vertex  0.000000e+000  3.696711e+001 -8.911867e+000
      vertex  1.000000e+000  3.696711e+001 -8.911867e+000
      vertex  1.000000e+000  3.651033e+001 -6.482298e+000
    endloop
  endfacet
  facet normal  -0.000000e+000 -9.827813e-001 -1.847727e-001
    outer loop
      vertex  0.000000e+000  3.696711e+001 -8.911867e+000
      vertex  1.000000e+000  3.651033e+001 -6.482298e+000
      vertex  3.608225e-016  3.651033e+001 -6.482298e+000
    endloop
  endfacet
  facet normal  0.000000e+000 -9.036937e-001  4.281795e-001
    outer loop
      vertex  1.000000e+000  3.696711e+001 -8.911867e+000
      vertex  0.000000e+000  3.590860e+001 -1.114592e+001
      vertex  1.000000e+000  3.590860e+001 -1.114592e+001
    endloop
  endfacet
  facet normal  0.000000e+000 -4.794252e-001  8.775827e-001
    outer loop
      vertex  1.000000e+000  3.590860e+001 -1.114592e+001
      vertex  0.000000e+000  3.590860e+001 -1.114592e+001
      vertex  0.000000e+000  3.373909e+001 -1.233113e+001
    endloop
  endfacet
  facet normal  0.000000e+000 -4.794252e-001  8.775827e-001
    outer loop
      vertex  1.000000e+000  3.590860e+001 -1.114592e+001
      vertex  0.000000e+000  3.373909e+001 -1.233113e+001
      vertex  1.000000e+000  3.373909e+001 -1.233113e+001
    endloop
  endfacet
  facet normal  0.000000e+000  1.279668e-001  9.917785e-001
    outer loop
      vertex  1.000000e+000  3.373909e+001 -1.233113e+001
      vertex  0.000000e+000  3.373909e+001 -1.233113e+001
      vertex  0.000000e+000  3.128728e+001 -1.201477e+001
    endloop
  endfacet
  facet normal  -0.000000e+000  1.279668e-001  9.917785e-001
    outer loop
      vertex  1.000000e+000  3.373909e+001 -1.233113e+001
      vertex  0.000000e+000  3.128728e+001 -1.201477e+001
      vertex  1.000000e+000  3.128728e+001 -1.201477e+001
    endloop
  endfacet
  facet normal  0.000000e+000  6.864799e-001  7.271488e-001
    outer loop
      vertex  1.000000e+000  3.128728e+001 -1.201477e+001
      vertex  0.000000e+000  3.128728e+001 -1.201477e+001
      vertex  3.608225e-016  2.948967e+001 -1.031770e+001
    endloop
  endfacet
  facet normal  -0.000000e+000  6.864799e-001  7.271488e-001
    outer loop
      vertex  1.000000e+000  3.128728e+001 -1.201477e+001
      vertex  3.608225e-016  2.948967e+001 -1.031770e+001
      vertex  1.000000e+000  2.948967e+001 -1.031770e+001
    endloop
  endfacet
  facet normal  0.000000e+000  1.000000e+000  -0.000000e+000
    outer loop
      vertex  1.000000e+000  5.200000e+001  2.000000e+001
      vertex  1.000000e+000  5.200000e+001 -2.000000e+001
      vertex  0.000000e+000  5.200000e+001  2.000000e+001
    endloop
  endfacet
  facet normal  0.000000e+000  1.000000e+000  0.000000e+000
    outer loop
      vertex  0.000000e+000  5.200000e+001  2.000000e+001
      vertex  1.000000e+000  5.200000e+001 -2.000000e+001
      vertex  0.000000e+000  5.200000e+001 -2.000000e+001
    endloop
  endfacet
  facet normal  0.000000e+000 -1.000000e+000  -0.000000e+000
    outer loop
      vertex  1.000000e+000 -5.200000e+001 -2.000000e+001
      vertex  1.000000e+000 -5.200000e+001  2.000000e+001
      vertex  0.000000e+000 -5.200000e+001 -2.000000e+001
    endloop
  endfacet
  facet normal  0.000000e+000 -1.000000e+000  0.000000e+000
    outer loop
      vertex  0.000000e+000 -5.200000e+001 -2.000000e+001
      vertex  1.000000e+000 -5.200000e+001  2.000000e+001
      vertex  0.000000e+000 -5.200000e+001  2.000000e+001
    endloop
  endfacet
  facet normal  0.000000e+000  0.000000e+000  1.000000e+000
    outer loop
      vertex  1.000000e+000 -5.200000e+001  2.000000e+001
      vertex  1.000000e+000  5.200000e+001  2.000000e+001
      vertex  0.000000e+000 -5.200000e+001  2.000000e+001
    endloop
  endfacet
  facet normal  0.000000e+000  0.000000e+000  1.000000e+000
    outer loop
      vertex  0.000000e+000 -5.200000e+001  2.000000e+001
      vertex  1.000000e+000  5.200000e+001  2.000000e+001
      vertex  0.000000e+000  5.200000e+001  2.000000e+001
    endloop
  endfacet
endsolid CATIA STL
