solid CATIA STL
  facet normal -9.999999e-001  0.000000e+000  0.000000e+000
    outer loop
      vertex -7.000000e+001 -5.446410e+001 -2.100000e+001
      vertex -7.000000e+001 -5.500000e+001 -1.900000e+001
      vertex -7.000000e+001 -5.200000e+001 -2.000000e+001
    endloop
  endfacet
  facet normal -1.000000e+000  0.000000e+000  0.000000e+000
    outer loop
      vertex -7.000000e+001 -5.200000e+001  2.000000e+001
      vertex -7.000000e+001 -5.200000e+001 -2.000000e+001
      vertex -7.000000e+001 -5.500000e+001 -1.900000e+001
    endloop
  endfacet
  facet normal -1.000000e+000  0.000000e+000  0.000000e+000
    outer loop
      vertex -7.000000e+001 -5.200000e+001  2.000000e+001
      vertex -7.000000e+001 -5.500000e+001 -1.900000e+001
      vertex -7.000000e+001 -5.500000e+001  1.900000e+001
    endloop
  endfacet
  facet normal -9.999999e-001  0.000000e+000  0.000000e+000
    outer loop
      vertex -7.000000e+001 -5.200000e+001  2.000000e+001
      vertex -7.000000e+001 -5.500000e+001  1.900000e+001
      vertex -7.000000e+001 -5.446410e+001  2.100000e+001
    endloop
  endfacet
  facet normal -1.000000e+000  0.000000e+000  0.000000e+000
    outer loop
      vertex -7.000000e+001 -5.200000e+001  2.000000e+001
      vertex -7.000000e+001 -5.446410e+001  2.100000e+001
      vertex -7.000000e+001 -5.300000e+001  2.246410e+001
    endloop
  endfacet
  facet normal -1.000000e+000  0.000000e+000  0.000000e+000
    outer loop
      vertex -7.000000e+001 -5.200000e+001  2.000000e+001
      vertex -7.000000e+001 -5.300000e+001  2.246410e+001
      vertex -7.000000e+001 -5.100000e+001  2.300000e+001
    endloop
  endfacet
  facet normal -1.000000e+000  0.000000e+000  -0.000000e+000
    outer loop
      vertex -7.000000e+001 -5.200000e+001  2.000000e+001
      vertex -7.000000e+001 -5.100000e+001  2.300000e+001
      vertex -7.000000e+001  5.100000e+001  2.300000e+001
    endloop
  endfacet
  facet normal -1.000000e+000  0.000000e+000  -0.000000e+000
    outer loop
      vertex -7.000000e+001 -5.200000e+001  2.000000e+001
      vertex -7.000000e+001  5.100000e+001  2.300000e+001
      vertex -7.000000e+001  5.200000e+001  2.000000e+001
    endloop
  endfacet
  facet normal -1.000000e+000  0.000000e+000  0.000000e+000
    outer loop
      vertex -7.000000e+001  5.100000e+001 -2.300000e+001
      vertex -7.000000e+001  5.446410e+001 -2.100000e+001
      vertex -7.000000e+001  5.300000e+001 -2.246410e+001
    endloop
  endfacet
  facet normal -1.000000e+000  0.000000e+000  0.000000e+000
    outer loop
      vertex -7.000000e+001  5.446410e+001 -2.100000e+001
      vertex -7.000000e+001  5.100000e+001 -2.300000e+001
      vertex -7.000000e+001  5.200000e+001 -2.000000e+001
    endloop
  endfacet
  facet normal -1.000000e+000  0.000000e+000  0.000000e+000
    outer loop
      vertex -7.000000e+001  5.200000e+001 -2.000000e+001
      vertex -7.000000e+001  5.100000e+001 -2.300000e+001
      vertex -7.000000e+001 -5.100000e+001 -2.300000e+001
    endloop
  endfacet
  facet normal -1.000000e+000  0.000000e+000  0.000000e+000
    outer loop
      vertex -7.000000e+001  5.200000e+001 -2.000000e+001
      vertex -7.000000e+001 -5.100000e+001 -2.300000e+001
      vertex -7.000000e+001 -5.200000e+001 -2.000000e+001
    endloop
  endfacet
  facet normal -1.000000e+000  0.000000e+000  -0.000000e+000
    outer loop
      vertex -7.000000e+001 -5.200000e+001 -2.000000e+001
      vertex -7.000000e+001 -5.100000e+001 -2.300000e+001
      vertex -7.000000e+001 -5.300000e+001 -2.246410e+001
    endloop
  endfacet
  facet normal -1.000000e+000  0.000000e+000  0.000000e+000
    outer loop
      vertex -7.000000e+001 -5.200000e+001 -2.000000e+001
      vertex -7.000000e+001 -5.300000e+001 -2.246410e+001
      vertex -7.000000e+001 -5.446410e+001 -2.100000e+001
    endloop
  endfacet
  facet normal -9.999999e-001  0.000000e+000  0.000000e+000
    outer loop
      vertex -7.000000e+001  5.500000e+001  1.900000e+001
      vertex -7.000000e+001  5.200000e+001  2.000000e+001
      vertex -7.000000e+001  5.446410e+001  2.100000e+001
    endloop
  endfacet
  facet normal -1.000000e+000  -0.000000e+000  0.000000e+000
    outer loop
      vertex -7.000000e+001  5.446410e+001  2.100000e+001
      vertex -7.000000e+001  5.200000e+001  2.000000e+001
      vertex -7.000000e+001  5.100000e+001  2.300000e+001
    endloop
  endfacet
  facet normal -1.000000e+000  0.000000e+000  0.000000e+000
    outer loop
      vertex -7.000000e+001  5.446410e+001  2.100000e+001
      vertex -7.000000e+001  5.100000e+001  2.300000e+001
      vertex -7.000000e+001  5.300000e+001  2.246410e+001
    endloop
  endfacet
  facet normal -9.999999e-001  0.000000e+000  0.000000e+000
    outer loop
      vertex -7.000000e+001  5.446410e+001 -2.100000e+001
      vertex -7.000000e+001  5.200000e+001 -2.000000e+001
      vertex -7.000000e+001  5.500000e+001 -1.900000e+001
    endloop
  endfacet
  facet normal -1.000000e+000  -0.000000e+000  0.000000e+000
    outer loop
      vertex -7.000000e+001  5.500000e+001 -1.900000e+001
      vertex -7.000000e+001  5.200000e+001 -2.000000e+001
      vertex -7.000000e+001  5.200000e+001  2.000000e+001
    endloop
  endfacet
  facet normal -1.000000e+000  0.000000e+000  0.000000e+000
    outer loop
      vertex -7.000000e+001  5.500000e+001 -1.900000e+001
      vertex -7.000000e+001  5.200000e+001  2.000000e+001
      vertex -7.000000e+001  5.500000e+001  1.900000e+001
    endloop
  endfacet
  facet normal  1.000000e+000  0.000000e+000  0.000000e+000
    outer loop
      vertex -6.100000e+001  5.200000e+001 -2.000000e+001
      vertex -6.100000e+001  5.000000e+001 -1.800000e+001
      vertex -6.100000e+001 -5.200000e+001 -2.000000e+001
    endloop
  endfacet
  facet normal  1.000000e+000  0.000000e+000  0.000000e+000
    outer loop
      vertex -6.100000e+001 -5.200000e+001 -2.000000e+001
      vertex -6.100000e+001  5.000000e+001 -1.800000e+001
      vertex -6.100000e+001 -5.000000e+001 -1.800000e+001
    endloop
  endfacet
  facet normal  1.000000e+000  0.000000e+000  0.000000e+000
    outer loop
      vertex -6.100000e+001 -5.200000e+001 -2.000000e+001
      vertex -6.100000e+001 -5.000000e+001 -1.800000e+001
      vertex -6.100000e+001 -5.200000e+001  2.000000e+001
    endloop
  endfacet
  facet normal  1.000000e+000  0.000000e+000  0.000000e+000
    outer loop
      vertex -6.100000e+001 -5.200000e+001  2.000000e+001
      vertex -6.100000e+001 -5.000000e+001 -1.800000e+001
      vertex -6.100000e+001 -5.000000e+001  1.800000e+001
    endloop
  endfacet
  facet normal  1.000000e+000  0.000000e+000  -0.000000e+000
    outer loop
      vertex -6.100000e+001 -5.200000e+001  2.000000e+001
      vertex -6.100000e+001 -5.000000e+001  1.800000e+001
      vertex -6.100000e+001  5.200000e+001  2.000000e+001
    endloop
  endfacet
  facet normal  1.000000e+000  0.000000e+000  0.000000e+000
    outer loop
      vertex -6.100000e+001  5.200000e+001  2.000000e+001
      vertex -6.100000e+001 -5.000000e+001  1.800000e+001
      vertex -6.100000e+001  5.000000e+001  1.800000e+001
    endloop
  endfacet
  facet normal  1.000000e+000  -0.000000e+000  0.000000e+000
    outer loop
      vertex -6.100000e+001  5.200000e+001  2.000000e+001
      vertex -6.100000e+001  5.000000e+001  1.800000e+001
      vertex -6.100000e+001  5.200000e+001 -2.000000e+001
    endloop
  endfacet
  facet normal  1.000000e+000  0.000000e+000  0.000000e+000
    outer loop
      vertex -6.100000e+001  5.200000e+001 -2.000000e+001
      vertex -6.100000e+001  5.000000e+001  1.800000e+001
      vertex -6.100000e+001  5.000000e+001 -1.800000e+001
    endloop
  endfacet
  facet normal  9.999999e-001  0.000000e+000  0.000000e+000
    outer loop
      vertex  7.000000e+001 -5.200000e+001 -2.000000e+001
      vertex  7.000000e+001 -5.500000e+001 -1.900000e+001
      vertex  7.000000e+001 -5.446410e+001 -2.100000e+001
    endloop
  endfacet
  facet normal  1.000000e+000  0.000000e+000  0.000000e+000
    outer loop
      vertex  7.000000e+001 -5.200000e+001  2.000000e+001
      vertex  7.000000e+001  5.200000e+001  2.000000e+001
      vertex  7.000000e+001  5.100000e+001  2.300000e+001
    endloop
  endfacet
  facet normal  1.000000e+000  0.000000e+000  0.000000e+000
    outer loop
      vertex  7.000000e+001 -5.200000e+001  2.000000e+001
      vertex  7.000000e+001  5.100000e+001  2.300000e+001
      vertex  7.000000e+001 -5.100000e+001  2.300000e+001
    endloop
  endfacet
  facet normal  1.000000e+000  0.000000e+000  0.000000e+000
    outer loop
      vertex  7.000000e+001 -5.200000e+001  2.000000e+001
      vertex  7.000000e+001 -5.100000e+001  2.300000e+001
      vertex  7.000000e+001 -5.300000e+001  2.246410e+001
    endloop
  endfacet
  facet normal  1.000000e+000  0.000000e+000  0.000000e+000
    outer loop
      vertex  7.000000e+001 -5.200000e+001  2.000000e+001
      vertex  7.000000e+001 -5.300000e+001  2.246410e+001
      vertex  7.000000e+001 -5.446410e+001  2.100000e+001
    endloop
  endfacet
  facet normal  9.999999e-001  0.000000e+000  0.000000e+000
    outer loop
      vertex  7.000000e+001 -5.200000e+001  2.000000e+001
      vertex  7.000000e+001 -5.446410e+001  2.100000e+001
      vertex  7.000000e+001 -5.500000e+001  1.900000e+001
    endloop
  endfacet
  facet normal  1.000000e+000  -0.000000e+000  0.000000e+000
    outer loop
      vertex  7.000000e+001 -5.200000e+001  2.000000e+001
      vertex  7.000000e+001 -5.500000e+001  1.900000e+001
      vertex  7.000000e+001 -5.500000e+001 -1.900000e+001
    endloop
  endfacet
  facet normal  1.000000e+000  -0.000000e+000  0.000000e+000
    outer loop
      vertex  7.000000e+001 -5.200000e+001  2.000000e+001
      vertex  7.000000e+001 -5.500000e+001 -1.900000e+001
      vertex  7.000000e+001 -5.200000e+001 -2.000000e+001
    endloop
  endfacet
  facet normal  1.000000e+000  0.000000e+000  0.000000e+000
    outer loop
      vertex  7.000000e+001  5.300000e+001 -2.246410e+001
      vertex  7.000000e+001  5.446410e+001 -2.100000e+001
      vertex  7.000000e+001  5.100000e+001 -2.300000e+001
    endloop
  endfacet
  facet normal  1.000000e+000  0.000000e+000  0.000000e+000
    outer loop
      vertex  7.000000e+001  5.100000e+001 -2.300000e+001
      vertex  7.000000e+001  5.446410e+001 -2.100000e+001
      vertex  7.000000e+001  5.200000e+001 -2.000000e+001
    endloop
  endfacet
  facet normal  1.000000e+000  0.000000e+000  0.000000e+000
    outer loop
      vertex  7.000000e+001  5.100000e+001 -2.300000e+001
      vertex  7.000000e+001  5.200000e+001 -2.000000e+001
      vertex  7.000000e+001 -5.100000e+001 -2.300000e+001
    endloop
  endfacet
  facet normal  1.000000e+000  0.000000e+000  -0.000000e+000
    outer loop
      vertex  7.000000e+001 -5.100000e+001 -2.300000e+001
      vertex  7.000000e+001  5.200000e+001 -2.000000e+001
      vertex  7.000000e+001 -5.200000e+001 -2.000000e+001
    endloop
  endfacet
  facet normal  1.000000e+000  0.000000e+000  0.000000e+000
    outer loop
      vertex  7.000000e+001 -5.100000e+001 -2.300000e+001
      vertex  7.000000e+001 -5.200000e+001 -2.000000e+001
      vertex  7.000000e+001 -5.300000e+001 -2.246410e+001
    endloop
  endfacet
  facet normal  1.000000e+000  0.000000e+000  -0.000000e+000
    outer loop
      vertex  7.000000e+001 -5.300000e+001 -2.246410e+001
      vertex  7.000000e+001 -5.200000e+001 -2.000000e+001
      vertex  7.000000e+001 -5.446410e+001 -2.100000e+001
    endloop
  endfacet
  facet normal  1.000000e+000  0.000000e+000  0.000000e+000
    outer loop
      vertex  7.000000e+001  5.300000e+001  2.246410e+001
      vertex  7.000000e+001  5.100000e+001  2.300000e+001
      vertex  7.000000e+001  5.446410e+001  2.100000e+001
    endloop
  endfacet
  facet normal  1.000000e+000  0.000000e+000  0.000000e+000
    outer loop
      vertex  7.000000e+001  5.446410e+001  2.100000e+001
      vertex  7.000000e+001  5.100000e+001  2.300000e+001
      vertex  7.000000e+001  5.200000e+001  2.000000e+001
    endloop
  endfacet
  facet normal  9.999999e-001  -0.000000e+000  0.000000e+000
    outer loop
      vertex  7.000000e+001  5.446410e+001  2.100000e+001
      vertex  7.000000e+001  5.200000e+001  2.000000e+001
      vertex  7.000000e+001  5.500000e+001  1.900000e+001
    endloop
  endfacet
  facet normal  1.000000e+000  0.000000e+000  0.000000e+000
    outer loop
      vertex  7.000000e+001  5.500000e+001  1.900000e+001
      vertex  7.000000e+001  5.200000e+001  2.000000e+001
      vertex  7.000000e+001  5.500000e+001 -1.900000e+001
    endloop
  endfacet
  facet normal  1.000000e+000  0.000000e+000  0.000000e+000
    outer loop
      vertex  7.000000e+001  5.500000e+001 -1.900000e+001
      vertex  7.000000e+001  5.200000e+001  2.000000e+001
      vertex  7.000000e+001  5.200000e+001 -2.000000e+001
    endloop
  endfacet
  facet normal  9.999999e-001  -0.000000e+000  0.000000e+000
    outer loop
      vertex  7.000000e+001  5.500000e+001 -1.900000e+001
      vertex  7.000000e+001  5.200000e+001 -2.000000e+001
      vertex  7.000000e+001  5.446410e+001 -2.100000e+001
    endloop
  endfacet
  facet normal -1.000000e+000  -0.000000e+000  0.000000e+000
    outer loop
      vertex  6.100000e+001 -5.200000e+001  2.000000e+001
      vertex  6.100000e+001 -5.000000e+001 -1.800000e+001
      vertex  6.100000e+001 -5.200000e+001 -2.000000e+001
    endloop
  endfacet
  facet normal -1.000000e+000  0.000000e+000  0.000000e+000
    outer loop
      vertex  6.100000e+001 -5.200000e+001 -2.000000e+001
      vertex  6.100000e+001 -5.000000e+001 -1.800000e+001
      vertex  6.100000e+001  5.000000e+001 -1.800000e+001
    endloop
  endfacet
  facet normal -1.000000e+000  0.000000e+000  -0.000000e+000
    outer loop
      vertex  6.100000e+001 -5.200000e+001 -2.000000e+001
      vertex  6.100000e+001  5.000000e+001 -1.800000e+001
      vertex  6.100000e+001  5.200000e+001 -2.000000e+001
    endloop
  endfacet
  facet normal -1.000000e+000  0.000000e+000  0.000000e+000
    outer loop
      vertex  6.100000e+001 -5.000000e+001 -1.800000e+001
      vertex  6.100000e+001 -5.200000e+001  2.000000e+001
      vertex  6.100000e+001 -5.000000e+001  1.800000e+001
    endloop
  endfacet
  facet normal -1.000000e+000  0.000000e+000  0.000000e+000
    outer loop
      vertex  6.100000e+001 -5.000000e+001  1.800000e+001
      vertex  6.100000e+001 -5.200000e+001  2.000000e+001
      vertex  6.100000e+001  5.200000e+001  2.000000e+001
    endloop
  endfacet
  facet normal -1.000000e+000  0.000000e+000  0.000000e+000
    outer loop
      vertex  6.100000e+001 -5.000000e+001  1.800000e+001
      vertex  6.100000e+001  5.200000e+001  2.000000e+001
      vertex  6.100000e+001  5.000000e+001  1.800000e+001
    endloop
  endfacet
  facet normal -1.000000e+000  0.000000e+000  0.000000e+000
    outer loop
      vertex  6.100000e+001  5.000000e+001  1.800000e+001
      vertex  6.100000e+001  5.200000e+001  2.000000e+001
      vertex  6.100000e+001  5.200000e+001 -2.000000e+001
    endloop
  endfacet
  facet normal -1.000000e+000  0.000000e+000  0.000000e+000
    outer loop
      vertex  6.100000e+001  5.000000e+001  1.800000e+001
      vertex  6.100000e+001  5.200000e+001 -2.000000e+001
      vertex  6.100000e+001  5.000000e+001 -1.800000e+001
    endloop
  endfacet
  facet normal  0.000000e+000  1.000000e+000  0.000000e+000
    outer loop
      vertex  6.100000e+001 -5.200000e+001 -2.000000e+001
      vertex -6.100000e+001 -5.200000e+001 -2.000000e+001
      vertex  6.100000e+001 -5.200000e+001  2.000000e+001
    endloop
  endfacet
  facet normal  0.000000e+000  1.000000e+000  0.000000e+000
    outer loop
      vertex  6.100000e+001 -5.200000e+001  2.000000e+001
      vertex -6.100000e+001 -5.200000e+001 -2.000000e+001
      vertex -6.100000e+001 -5.200000e+001  2.000000e+001
    endloop
  endfacet
  facet normal  0.000000e+000  0.000000e+000  1.000000e+000
    outer loop
      vertex -6.100000e+001  5.200000e+001 -2.000000e+001
      vertex -6.100000e+001 -5.200000e+001 -2.000000e+001
      vertex  6.100000e+001  5.200000e+001 -2.000000e+001
    endloop
  endfacet
  facet normal  0.000000e+000  0.000000e+000  1.000000e+000
    outer loop
      vertex  6.100000e+001  5.200000e+001 -2.000000e+001
      vertex -6.100000e+001 -5.200000e+001 -2.000000e+001
      vertex  6.100000e+001 -5.200000e+001 -2.000000e+001
    endloop
  endfacet
  facet normal  0.000000e+000 -1.000000e+000  0.000000e+000
    outer loop
      vertex  6.100000e+001  5.200000e+001  2.000000e+001
      vertex -6.100000e+001  5.200000e+001  2.000000e+001
      vertex  6.100000e+001  5.200000e+001 -2.000000e+001
    endloop
  endfacet
  facet normal  0.000000e+000 -1.000000e+000  0.000000e+000
    outer loop
      vertex  6.100000e+001  5.200000e+001 -2.000000e+001
      vertex -6.100000e+001  5.200000e+001  2.000000e+001
      vertex -6.100000e+001  5.200000e+001 -2.000000e+001
    endloop
  endfacet
  facet normal  0.000000e+000  0.000000e+000 -1.000000e+000
    outer loop
      vertex  7.000000e+001  5.100000e+001 -2.300000e+001
      vertex  7.000000e+001 -5.100000e+001 -2.300000e+001
      vertex -7.000000e+001  5.100000e+001 -2.300000e+001
    endloop
  endfacet
  facet normal  0.000000e+000  0.000000e+000 -1.000000e+000
    outer loop
      vertex -7.000000e+001  5.100000e+001 -2.300000e+001
      vertex  7.000000e+001 -5.100000e+001 -2.300000e+001
      vertex -7.000000e+001 -5.100000e+001 -2.300000e+001
    endloop
  endfacet
  facet normal  0.000000e+000  9.659255e-001 -2.588198e-001
    outer loop
      vertex -7.000000e+001  5.500000e+001 -1.900000e+001
      vertex  7.000000e+001  5.500000e+001 -1.900000e+001
      vertex -7.000000e+001  5.446410e+001 -2.100000e+001
    endloop
  endfacet
  facet normal  0.000000e+000  9.659255e-001 -2.588198e-001
    outer loop
      vertex -7.000000e+001  5.446410e+001 -2.100000e+001
      vertex  7.000000e+001  5.500000e+001 -1.900000e+001
      vertex  7.000000e+001  5.446410e+001 -2.100000e+001
    endloop
  endfacet
  facet normal  0.000000e+000  7.071072e-001 -7.071064e-001
    outer loop
      vertex -7.000000e+001  5.446410e+001 -2.100000e+001
      vertex  7.000000e+001  5.446410e+001 -2.100000e+001
      vertex -7.000000e+001  5.300000e+001 -2.246410e+001
    endloop
  endfacet
  facet normal  0.000000e+000  7.071072e-001 -7.071064e-001
    outer loop
      vertex -7.000000e+001  5.300000e+001 -2.246410e+001
      vertex  7.000000e+001  5.446410e+001 -2.100000e+001
      vertex  7.000000e+001  5.300000e+001 -2.246410e+001
    endloop
  endfacet
  facet normal  0.000000e+000  2.588190e-001 -9.659259e-001
    outer loop
      vertex -7.000000e+001  5.300000e+001 -2.246410e+001
      vertex  7.000000e+001  5.300000e+001 -2.246410e+001
      vertex -7.000000e+001  5.100000e+001 -2.300000e+001
    endloop
  endfacet
  facet normal  0.000000e+000  2.588190e-001 -9.659259e-001
    outer loop
      vertex -7.000000e+001  5.100000e+001 -2.300000e+001
      vertex  7.000000e+001  5.300000e+001 -2.246410e+001
      vertex  7.000000e+001  5.100000e+001 -2.300000e+001
    endloop
  endfacet
  facet normal  0.000000e+000  1.000000e+000  0.000000e+000
    outer loop
      vertex -7.000000e+001  5.500000e+001  1.900000e+001
      vertex  7.000000e+001  5.500000e+001  1.900000e+001
      vertex -7.000000e+001  5.500000e+001 -1.900000e+001
    endloop
  endfacet
  facet normal  0.000000e+000  1.000000e+000  0.000000e+000
    outer loop
      vertex -7.000000e+001  5.500000e+001 -1.900000e+001
      vertex  7.000000e+001  5.500000e+001  1.900000e+001
      vertex  7.000000e+001  5.500000e+001 -1.900000e+001
    endloop
  endfacet
  facet normal  0.000000e+000  2.588190e-001  9.659259e-001
    outer loop
      vertex -7.000000e+001  5.100000e+001  2.300000e+001
      vertex  7.000000e+001  5.100000e+001  2.300000e+001
      vertex -7.000000e+001  5.300000e+001  2.246410e+001
    endloop
  endfacet
  facet normal  -0.000000e+000  2.588190e-001  9.659259e-001
    outer loop
      vertex -7.000000e+001  5.300000e+001  2.246410e+001
      vertex  7.000000e+001  5.100000e+001  2.300000e+001
      vertex  7.000000e+001  5.300000e+001  2.246410e+001
    endloop
  endfacet
  facet normal  0.000000e+000  7.071072e-001  7.071064e-001
    outer loop
      vertex -7.000000e+001  5.300000e+001  2.246410e+001
      vertex  7.000000e+001  5.300000e+001  2.246410e+001
      vertex -7.000000e+001  5.446410e+001  2.100000e+001
    endloop
  endfacet
  facet normal  -0.000000e+000  7.071072e-001  7.071064e-001
    outer loop
      vertex -7.000000e+001  5.446410e+001  2.100000e+001
      vertex  7.000000e+001  5.300000e+001  2.246410e+001
      vertex  7.000000e+001  5.446410e+001  2.100000e+001
    endloop
  endfacet
  facet normal  0.000000e+000  9.659255e-001  2.588198e-001
    outer loop
      vertex -7.000000e+001  5.446410e+001  2.100000e+001
      vertex  7.000000e+001  5.446410e+001  2.100000e+001
      vertex -7.000000e+001  5.500000e+001  1.900000e+001
    endloop
  endfacet
  facet normal  -0.000000e+000  9.659255e-001  2.588198e-001
    outer loop
      vertex -7.000000e+001  5.500000e+001  1.900000e+001
      vertex  7.000000e+001  5.446410e+001  2.100000e+001
      vertex  7.000000e+001  5.500000e+001  1.900000e+001
    endloop
  endfacet
  facet normal  0.000000e+000  0.000000e+000  1.000000e+000
    outer loop
      vertex  7.000000e+001 -5.100000e+001  2.300000e+001
      vertex  7.000000e+001  5.100000e+001  2.300000e+001
      vertex -7.000000e+001 -5.100000e+001  2.300000e+001
    endloop
  endfacet
  facet normal  0.000000e+000  0.000000e+000  1.000000e+000
    outer loop
      vertex -7.000000e+001 -5.100000e+001  2.300000e+001
      vertex  7.000000e+001  5.100000e+001  2.300000e+001
      vertex -7.000000e+001  5.100000e+001  2.300000e+001
    endloop
  endfacet
  facet normal  0.000000e+000 -9.659255e-001  2.588198e-001
    outer loop
      vertex -7.000000e+001 -5.500000e+001  1.900000e+001
      vertex  7.000000e+001 -5.500000e+001  1.900000e+001
      vertex -7.000000e+001 -5.446410e+001  2.100000e+001
    endloop
  endfacet
  facet normal  0.000000e+000 -9.659255e-001  2.588198e-001
    outer loop
      vertex -7.000000e+001 -5.446410e+001  2.100000e+001
      vertex  7.000000e+001 -5.500000e+001  1.900000e+001
      vertex  7.000000e+001 -5.446410e+001  2.100000e+001
    endloop
  endfacet
  facet normal  0.000000e+000 -7.071072e-001  7.071064e-001
    outer loop
      vertex -7.000000e+001 -5.446410e+001  2.100000e+001
      vertex  7.000000e+001 -5.446410e+001  2.100000e+001
      vertex -7.000000e+001 -5.300000e+001  2.246410e+001
    endloop
  endfacet
  facet normal  0.000000e+000 -7.071072e-001  7.071064e-001
    outer loop
      vertex -7.000000e+001 -5.300000e+001  2.246410e+001
      vertex  7.000000e+001 -5.446410e+001  2.100000e+001
      vertex  7.000000e+001 -5.300000e+001  2.246410e+001
    endloop
  endfacet
  facet normal  0.000000e+000 -2.588190e-001  9.659259e-001
    outer loop
      vertex -7.000000e+001 -5.300000e+001  2.246410e+001
      vertex  7.000000e+001 -5.300000e+001  2.246410e+001
      vertex -7.000000e+001 -5.100000e+001  2.300000e+001
    endloop
  endfacet
  facet normal  0.000000e+000 -2.588190e-001  9.659259e-001
    outer loop
      vertex -7.000000e+001 -5.100000e+001  2.300000e+001
      vertex  7.000000e+001 -5.300000e+001  2.246410e+001
      vertex  7.000000e+001 -5.100000e+001  2.300000e+001
    endloop
  endfacet
  facet normal  0.000000e+000 -1.000000e+000  0.000000e+000
    outer loop
      vertex -7.000000e+001 -5.500000e+001 -1.900000e+001
      vertex  7.000000e+001 -5.500000e+001 -1.900000e+001
      vertex -7.000000e+001 -5.500000e+001  1.900000e+001
    endloop
  endfacet
  facet normal  0.000000e+000 -1.000000e+000  0.000000e+000
    outer loop
      vertex -7.000000e+001 -5.500000e+001  1.900000e+001
      vertex  7.000000e+001 -5.500000e+001 -1.900000e+001
      vertex  7.000000e+001 -5.500000e+001  1.900000e+001
    endloop
  endfacet
  facet normal  -0.000000e+000 -2.588190e-001 -9.659259e-001
    outer loop
      vertex -7.000000e+001 -5.100000e+001 -2.300000e+001
      vertex  7.000000e+001 -5.100000e+001 -2.300000e+001
      vertex -7.000000e+001 -5.300000e+001 -2.246410e+001
    endloop
  endfacet
  facet normal  0.000000e+000 -2.588190e-001 -9.659259e-001
    outer loop
      vertex -7.000000e+001 -5.300000e+001 -2.246410e+001
      vertex  7.000000e+001 -5.100000e+001 -2.300000e+001
      vertex  7.000000e+001 -5.300000e+001 -2.246410e+001
    endloop
  endfacet
  facet normal  -0.000000e+000 -7.071072e-001 -7.071064e-001
    outer loop
      vertex -7.000000e+001 -5.300000e+001 -2.246410e+001
      vertex  7.000000e+001 -5.300000e+001 -2.246410e+001
      vertex -7.000000e+001 -5.446410e+001 -2.100000e+001
    endloop
  endfacet
  facet normal  0.000000e+000 -7.071072e-001 -7.071064e-001
    outer loop
      vertex -7.000000e+001 -5.446410e+001 -2.100000e+001
      vertex  7.000000e+001 -5.300000e+001 -2.246410e+001
      vertex  7.000000e+001 -5.446410e+001 -2.100000e+001
    endloop
  endfacet
  facet normal  -0.000000e+000 -9.659255e-001 -2.588198e-001
    outer loop
      vertex -7.000000e+001 -5.446410e+001 -2.100000e+001
      vertex  7.000000e+001 -5.446410e+001 -2.100000e+001
      vertex -7.000000e+001 -5.500000e+001 -1.900000e+001
    endloop
  endfacet
  facet normal  0.000000e+000 -9.659255e-001 -2.588198e-001
    outer loop
      vertex -7.000000e+001 -5.500000e+001 -1.900000e+001
      vertex  7.000000e+001 -5.446410e+001 -2.100000e+001
      vertex  7.000000e+001 -5.500000e+001 -1.900000e+001
    endloop
  endfacet
  facet normal  0.000000e+000  0.000000e+000 -1.000000e+000
    outer loop
      vertex -6.100000e+001 -5.200000e+001  2.000000e+001
      vertex -6.100000e+001  5.200000e+001  2.000000e+001
      vertex  6.100000e+001 -5.200000e+001  2.000000e+001
    endloop
  endfacet
  facet normal  0.000000e+000  0.000000e+000 -1.000000e+000
    outer loop
      vertex  6.100000e+001 -5.200000e+001  2.000000e+001
      vertex -6.100000e+001  5.200000e+001  2.000000e+001
      vertex  6.100000e+001  5.200000e+001  2.000000e+001
    endloop
  endfacet
  facet normal -3.611875e-001  9.324932e-001  0.000000e+000
    outer loop
      vertex -6.585069e+001 -5.163679e+001  1.963679e+001
      vertex -6.674689e+001 -5.198392e+001 -1.998392e+001
      vertex -6.674689e+001 -5.198392e+001  1.998392e+001
    endloop
  endfacet
  facet normal -6.339895e-002  9.979882e-001  0.000000e+000
    outer loop
      vertex -6.674689e+001 -5.198392e+001  1.998392e+001
      vertex -6.674689e+001 -5.198392e+001 -1.998392e+001
      vertex -6.700000e+001 -5.200000e+001 -2.000000e+001
    endloop
  endfacet
  facet normal -6.339895e-002  9.979883e-001  0.000000e+000
    outer loop
      vertex -6.674689e+001 -5.198392e+001  1.998392e+001
      vertex -6.700000e+001 -5.200000e+001 -2.000000e+001
      vertex -6.700000e+001 -5.200000e+001  2.000000e+001
    endloop
  endfacet
  facet normal -3.611875e-001  9.324932e-001  0.000000e+000
    outer loop
      vertex -6.674689e+001 -5.198392e+001 -1.998392e+001
      vertex -6.585069e+001 -5.163679e+001  1.963679e+001
      vertex -6.585069e+001 -5.163679e+001 -1.963679e+001
    endloop
  endfacet
  facet normal -6.855977e-001  7.279807e-001  0.000000e+000
    outer loop
      vertex -6.585069e+001 -5.163679e+001 -1.963679e+001
      vertex -6.585069e+001 -5.163679e+001  1.963679e+001
      vertex -6.543501e+001 -5.124532e+001  1.924532e+001
    endloop
  endfacet
  facet normal -6.855977e-001  7.279807e-001  0.000000e+000
    outer loop
      vertex -6.585069e+001 -5.163679e+001 -1.963679e+001
      vertex -6.543501e+001 -5.124532e+001  1.924532e+001
      vertex -6.543501e+001 -5.124532e+001 -1.924532e+001
    endloop
  endfacet
  facet normal -9.440585e-001  3.297779e-001  0.000000e+000
    outer loop
      vertex -6.543501e+001 -5.124532e+001 -1.924532e+001
      vertex -6.543501e+001 -5.124532e+001  1.924532e+001
      vertex -6.500000e+001 -5.000000e+001  1.800000e+001
    endloop
  endfacet
  facet normal -9.440585e-001  3.297779e-001  0.000000e+000
    outer loop
      vertex -6.543501e+001 -5.124532e+001 -1.924532e+001
      vertex -6.500000e+001 -5.000000e+001  1.800000e+001
      vertex -6.500000e+001 -5.000000e+001 -1.800000e+001
    endloop
  endfacet
  facet normal -3.611858e-001  0.000000e+000 -9.324939e-001
    outer loop
      vertex -6.585069e+001  5.163679e+001  1.963679e+001
      vertex -6.674689e+001 -5.198392e+001  1.998392e+001
      vertex -6.674689e+001  5.198392e+001  1.998392e+001
    endloop
  endfacet
  facet normal -6.340644e-002  -0.000000e+000 -9.979878e-001
    outer loop
      vertex -6.674689e+001  5.198392e+001  1.998392e+001
      vertex -6.674689e+001 -5.198392e+001  1.998392e+001
      vertex -6.700000e+001 -5.200000e+001  2.000000e+001
    endloop
  endfacet
  facet normal -6.340645e-002  0.000000e+000 -9.979879e-001
    outer loop
      vertex -6.674689e+001  5.198392e+001  1.998392e+001
      vertex -6.700000e+001 -5.200000e+001  2.000000e+001
      vertex -6.700000e+001  5.200000e+001  2.000000e+001
    endloop
  endfacet
  facet normal -3.611858e-001  -0.000000e+000 -9.324939e-001
    outer loop
      vertex -6.674689e+001 -5.198392e+001  1.998392e+001
      vertex -6.585069e+001  5.163679e+001  1.963679e+001
      vertex -6.585069e+001 -5.163679e+001  1.963679e+001
    endloop
  endfacet
  facet normal -6.855994e-001  0.000000e+000 -7.279791e-001
    outer loop
      vertex -6.585069e+001 -5.163679e+001  1.963679e+001
      vertex -6.585069e+001  5.163679e+001  1.963679e+001
      vertex -6.543501e+001  5.124532e+001  1.924531e+001
    endloop
  endfacet
  facet normal -6.855976e-001 -1.354771e-008 -7.279807e-001
    outer loop
      vertex -6.585069e+001 -5.163679e+001  1.963679e+001
      vertex -6.543501e+001  5.124532e+001  1.924531e+001
      vertex -6.543501e+001 -5.124532e+001  1.924532e+001
    endloop
  endfacet
  facet normal -9.440585e-001 -6.137169e-009 -3.297784e-001
    outer loop
      vertex -6.543501e+001 -5.124532e+001  1.924532e+001
      vertex -6.543501e+001  5.124532e+001  1.924531e+001
      vertex -6.500000e+001  5.000000e+001  1.800000e+001
    endloop
  endfacet
  facet normal -9.440585e-001  -0.000000e+000 -3.297779e-001
    outer loop
      vertex -6.543501e+001 -5.124532e+001  1.924532e+001
      vertex -6.500000e+001  5.000000e+001  1.800000e+001
      vertex -6.500000e+001 -5.000000e+001  1.800000e+001
    endloop
  endfacet
  facet normal -3.611875e-001 -9.324932e-001  -0.000000e+000
    outer loop
      vertex -6.585069e+001  5.163679e+001 -1.963679e+001
      vertex -6.674689e+001  5.198392e+001  1.998392e+001
      vertex -6.674689e+001  5.198392e+001 -1.998392e+001
    endloop
  endfacet
  facet normal -6.339895e-002 -9.979882e-001  0.000000e+000
    outer loop
      vertex -6.674689e+001  5.198392e+001 -1.998392e+001
      vertex -6.674689e+001  5.198392e+001  1.998392e+001
      vertex -6.700000e+001  5.200000e+001  2.000000e+001
    endloop
  endfacet
  facet normal -6.339895e-002 -9.979883e-001  -0.000000e+000
    outer loop
      vertex -6.674689e+001  5.198392e+001 -1.998392e+001
      vertex -6.700000e+001  5.200000e+001  2.000000e+001
      vertex -6.700000e+001  5.200000e+001 -2.000000e+001
    endloop
  endfacet
  facet normal -3.611875e-001 -9.324932e-001  0.000000e+000
    outer loop
      vertex -6.674689e+001  5.198392e+001  1.998392e+001
      vertex -6.585069e+001  5.163679e+001 -1.963679e+001
      vertex -6.585069e+001  5.163679e+001  1.963679e+001
    endloop
  endfacet
  facet normal -6.855977e-001 -7.279807e-001  -0.000000e+000
    outer loop
      vertex -6.585069e+001  5.163679e+001  1.963679e+001
      vertex -6.585069e+001  5.163679e+001 -1.963679e+001
      vertex -6.543501e+001  5.124532e+001 -1.924532e+001
    endloop
  endfacet
  facet normal -6.855977e-001 -7.279807e-001  0.000000e+000
    outer loop
      vertex -6.585069e+001  5.163679e+001  1.963679e+001
      vertex -6.543501e+001  5.124532e+001 -1.924532e+001
      vertex -6.543501e+001  5.124532e+001  1.924531e+001
    endloop
  endfacet
  facet normal -9.440585e-001 -3.297779e-001  -0.000000e+000
    outer loop
      vertex -6.543501e+001  5.124532e+001  1.924531e+001
      vertex -6.543501e+001  5.124532e+001 -1.924532e+001
      vertex -6.500000e+001  5.000000e+001 -1.800000e+001
    endloop
  endfacet
  facet normal -9.440585e-001 -3.297779e-001  0.000000e+000
    outer loop
      vertex -6.543501e+001  5.124532e+001  1.924531e+001
      vertex -6.500000e+001  5.000000e+001 -1.800000e+001
      vertex -6.500000e+001  5.000000e+001  1.800000e+001
    endloop
  endfacet
  facet normal -3.611858e-001  0.000000e+000  9.324939e-001
    outer loop
      vertex -6.585069e+001 -5.163679e+001 -1.963679e+001
      vertex -6.674689e+001  5.198392e+001 -1.998392e+001
      vertex -6.674689e+001 -5.198392e+001 -1.998392e+001
    endloop
  endfacet
  facet normal -6.340644e-002  0.000000e+000  9.979878e-001
    outer loop
      vertex -6.674689e+001 -5.198392e+001 -1.998392e+001
      vertex -6.674689e+001  5.198392e+001 -1.998392e+001
      vertex -6.700000e+001  5.200000e+001 -2.000000e+001
    endloop
  endfacet
  facet normal -6.340645e-002  0.000000e+000  9.979879e-001
    outer loop
      vertex -6.674689e+001 -5.198392e+001 -1.998392e+001
      vertex -6.700000e+001  5.200000e+001 -2.000000e+001
      vertex -6.700000e+001 -5.200000e+001 -2.000000e+001
    endloop
  endfacet
  facet normal -3.611858e-001  0.000000e+000  9.324939e-001
    outer loop
      vertex -6.674689e+001  5.198392e+001 -1.998392e+001
      vertex -6.585069e+001 -5.163679e+001 -1.963679e+001
      vertex -6.585069e+001  5.163679e+001 -1.963679e+001
    endloop
  endfacet
  facet normal -6.855977e-001  0.000000e+000  7.279806e-001
    outer loop
      vertex -6.585069e+001  5.163679e+001 -1.963679e+001
      vertex -6.585069e+001 -5.163679e+001 -1.963679e+001
      vertex -6.543501e+001 -5.124532e+001 -1.924532e+001
    endloop
  endfacet
  facet normal -6.855977e-001  0.000000e+000  7.279807e-001
    outer loop
      vertex -6.585069e+001  5.163679e+001 -1.963679e+001
      vertex -6.543501e+001 -5.124532e+001 -1.924532e+001
      vertex -6.543501e+001  5.124532e+001 -1.924532e+001
    endloop
  endfacet
  facet normal -9.440585e-001  0.000000e+000  3.297779e-001
    outer loop
      vertex -6.543501e+001  5.124532e+001 -1.924532e+001
      vertex -6.543501e+001 -5.124532e+001 -1.924532e+001
      vertex -6.500000e+001 -5.000000e+001 -1.800000e+001
    endloop
  endfacet
  facet normal -9.440585e-001  0.000000e+000  3.297779e-001
    outer loop
      vertex -6.543501e+001  5.124532e+001 -1.924532e+001
      vertex -6.500000e+001 -5.000000e+001 -1.800000e+001
      vertex -6.500000e+001  5.000000e+001 -1.800000e+001
    endloop
  endfacet
  facet normal  0.000000e+000 -1.000000e+000  0.000000e+000
    outer loop
      vertex -6.700000e+001  5.200000e+001  2.000000e+001
      vertex -7.000000e+001  5.200000e+001  2.000000e+001
      vertex -6.700000e+001  5.200000e+001 -2.000000e+001
    endloop
  endfacet
  facet normal  0.000000e+000 -1.000000e+000  0.000000e+000
    outer loop
      vertex -6.700000e+001  5.200000e+001 -2.000000e+001
      vertex -7.000000e+001  5.200000e+001  2.000000e+001
      vertex -7.000000e+001  5.200000e+001 -2.000000e+001
    endloop
  endfacet
  facet normal  0.000000e+000  0.000000e+000  1.000000e+000
    outer loop
      vertex -7.000000e+001  5.200000e+001 -2.000000e+001
      vertex -7.000000e+001 -5.200000e+001 -2.000000e+001
      vertex -6.700000e+001  5.200000e+001 -2.000000e+001
    endloop
  endfacet
  facet normal  0.000000e+000  0.000000e+000  1.000000e+000
    outer loop
      vertex -6.700000e+001  5.200000e+001 -2.000000e+001
      vertex -7.000000e+001 -5.200000e+001 -2.000000e+001
      vertex -6.700000e+001 -5.200000e+001 -2.000000e+001
    endloop
  endfacet
  facet normal  0.000000e+000  1.000000e+000  0.000000e+000
    outer loop
      vertex -6.700000e+001 -5.200000e+001 -2.000000e+001
      vertex -7.000000e+001 -5.200000e+001 -2.000000e+001
      vertex -6.700000e+001 -5.200000e+001  2.000000e+001
    endloop
  endfacet
  facet normal  0.000000e+000  1.000000e+000  0.000000e+000
    outer loop
      vertex -6.700000e+001 -5.200000e+001  2.000000e+001
      vertex -7.000000e+001 -5.200000e+001 -2.000000e+001
      vertex -7.000000e+001 -5.200000e+001  2.000000e+001
    endloop
  endfacet
  facet normal  0.000000e+000  0.000000e+000 -1.000000e+000
    outer loop
      vertex -7.000000e+001 -5.200000e+001  2.000000e+001
      vertex -7.000000e+001  5.200000e+001  2.000000e+001
      vertex -6.700000e+001 -5.200000e+001  2.000000e+001
    endloop
  endfacet
  facet normal  0.000000e+000  0.000000e+000 -1.000000e+000
    outer loop
      vertex -6.700000e+001 -5.200000e+001  2.000000e+001
      vertex -7.000000e+001  5.200000e+001  2.000000e+001
      vertex -6.700000e+001  5.200000e+001  2.000000e+001
    endloop
  endfacet
  facet normal  0.000000e+000  0.000000e+000  1.000000e+000
    outer loop
      vertex -6.500000e+001  5.000000e+001 -1.800000e+001
      vertex -6.500000e+001 -5.000000e+001 -1.800000e+001
      vertex -6.100000e+001  5.000000e+001 -1.800000e+001
    endloop
  endfacet
  facet normal  0.000000e+000  0.000000e+000  1.000000e+000
    outer loop
      vertex -6.100000e+001  5.000000e+001 -1.800000e+001
      vertex -6.500000e+001 -5.000000e+001 -1.800000e+001
      vertex -6.100000e+001 -5.000000e+001 -1.800000e+001
    endloop
  endfacet
  facet normal  0.000000e+000  1.000000e+000  0.000000e+000
    outer loop
      vertex -6.100000e+001 -5.000000e+001 -1.800000e+001
      vertex -6.500000e+001 -5.000000e+001 -1.800000e+001
      vertex -6.100000e+001 -5.000000e+001  1.800000e+001
    endloop
  endfacet
  facet normal  0.000000e+000  1.000000e+000  0.000000e+000
    outer loop
      vertex -6.100000e+001 -5.000000e+001  1.800000e+001
      vertex -6.500000e+001 -5.000000e+001 -1.800000e+001
      vertex -6.500000e+001 -5.000000e+001  1.800000e+001
    endloop
  endfacet
  facet normal  0.000000e+000  0.000000e+000 -1.000000e+000
    outer loop
      vertex -6.500000e+001 -5.000000e+001  1.800000e+001
      vertex -6.500000e+001  5.000000e+001  1.800000e+001
      vertex -6.100000e+001 -5.000000e+001  1.800000e+001
    endloop
  endfacet
  facet normal  0.000000e+000  0.000000e+000 -1.000000e+000
    outer loop
      vertex -6.100000e+001 -5.000000e+001  1.800000e+001
      vertex -6.500000e+001  5.000000e+001  1.800000e+001
      vertex -6.100000e+001  5.000000e+001  1.800000e+001
    endloop
  endfacet
  facet normal  0.000000e+000 -1.000000e+000  0.000000e+000
    outer loop
      vertex -6.100000e+001  5.000000e+001  1.800000e+001
      vertex -6.500000e+001  5.000000e+001  1.800000e+001
      vertex -6.100000e+001  5.000000e+001 -1.800000e+001
    endloop
  endfacet
  facet normal  0.000000e+000 -1.000000e+000  0.000000e+000
    outer loop
      vertex -6.100000e+001  5.000000e+001 -1.800000e+001
      vertex -6.500000e+001  5.000000e+001  1.800000e+001
      vertex -6.500000e+001  5.000000e+001 -1.800000e+001
    endloop
  endfacet
  facet normal  0.000000e+000 -1.000000e+000  0.000000e+000
    outer loop
      vertex  7.000000e+001  5.200000e+001  2.000000e+001
      vertex  6.700000e+001  5.200000e+001  2.000000e+001
      vertex  7.000000e+001  5.200000e+001 -2.000000e+001
    endloop
  endfacet
  facet normal  0.000000e+000 -1.000000e+000  0.000000e+000
    outer loop
      vertex  7.000000e+001  5.200000e+001 -2.000000e+001
      vertex  6.700000e+001  5.200000e+001  2.000000e+001
      vertex  6.700000e+001  5.200000e+001 -2.000000e+001
    endloop
  endfacet
  facet normal  0.000000e+000  0.000000e+000  1.000000e+000
    outer loop
      vertex  6.700000e+001  5.200000e+001 -2.000000e+001
      vertex  6.700000e+001 -5.200000e+001 -2.000000e+001
      vertex  7.000000e+001  5.200000e+001 -2.000000e+001
    endloop
  endfacet
  facet normal  0.000000e+000  0.000000e+000  1.000000e+000
    outer loop
      vertex  7.000000e+001  5.200000e+001 -2.000000e+001
      vertex  6.700000e+001 -5.200000e+001 -2.000000e+001
      vertex  7.000000e+001 -5.200000e+001 -2.000000e+001
    endloop
  endfacet
  facet normal  0.000000e+000  1.000000e+000  0.000000e+000
    outer loop
      vertex  7.000000e+001 -5.200000e+001 -2.000000e+001
      vertex  6.700000e+001 -5.200000e+001 -2.000000e+001
      vertex  7.000000e+001 -5.200000e+001  2.000000e+001
    endloop
  endfacet
  facet normal  0.000000e+000  1.000000e+000  0.000000e+000
    outer loop
      vertex  7.000000e+001 -5.200000e+001  2.000000e+001
      vertex  6.700000e+001 -5.200000e+001 -2.000000e+001
      vertex  6.700000e+001 -5.200000e+001  2.000000e+001
    endloop
  endfacet
  facet normal  0.000000e+000  0.000000e+000 -1.000000e+000
    outer loop
      vertex  6.700000e+001 -5.200000e+001  2.000000e+001
      vertex  6.700000e+001  5.200000e+001  2.000000e+001
      vertex  7.000000e+001 -5.200000e+001  2.000000e+001
    endloop
  endfacet
  facet normal  0.000000e+000  0.000000e+000 -1.000000e+000
    outer loop
      vertex  7.000000e+001 -5.200000e+001  2.000000e+001
      vertex  6.700000e+001  5.200000e+001  2.000000e+001
      vertex  7.000000e+001  5.200000e+001  2.000000e+001
    endloop
  endfacet
  facet normal  0.000000e+000  0.000000e+000  1.000000e+000
    outer loop
      vertex  6.100000e+001  5.000000e+001 -1.800000e+001
      vertex  6.100000e+001 -5.000000e+001 -1.800000e+001
      vertex  6.500000e+001  5.000000e+001 -1.800000e+001
    endloop
  endfacet
  facet normal  0.000000e+000  0.000000e+000  1.000000e+000
    outer loop
      vertex  6.500000e+001  5.000000e+001 -1.800000e+001
      vertex  6.100000e+001 -5.000000e+001 -1.800000e+001
      vertex  6.500000e+001 -5.000000e+001 -1.800000e+001
    endloop
  endfacet
  facet normal  0.000000e+000  1.000000e+000  0.000000e+000
    outer loop
      vertex  6.500000e+001 -5.000000e+001 -1.800000e+001
      vertex  6.100000e+001 -5.000000e+001 -1.800000e+001
      vertex  6.500000e+001 -5.000000e+001  1.800000e+001
    endloop
  endfacet
  facet normal  0.000000e+000  1.000000e+000  0.000000e+000
    outer loop
      vertex  6.500000e+001 -5.000000e+001  1.800000e+001
      vertex  6.100000e+001 -5.000000e+001 -1.800000e+001
      vertex  6.100000e+001 -5.000000e+001  1.800000e+001
    endloop
  endfacet
  facet normal  0.000000e+000  0.000000e+000 -1.000000e+000
    outer loop
      vertex  6.100000e+001 -5.000000e+001  1.800000e+001
      vertex  6.100000e+001  5.000000e+001  1.800000e+001
      vertex  6.500000e+001 -5.000000e+001  1.800000e+001
    endloop
  endfacet
  facet normal  0.000000e+000  0.000000e+000 -1.000000e+000
    outer loop
      vertex  6.500000e+001 -5.000000e+001  1.800000e+001
      vertex  6.100000e+001  5.000000e+001  1.800000e+001
      vertex  6.500000e+001  5.000000e+001  1.800000e+001
    endloop
  endfacet
  facet normal  0.000000e+000 -1.000000e+000  0.000000e+000
    outer loop
      vertex  6.500000e+001  5.000000e+001  1.800000e+001
      vertex  6.100000e+001  5.000000e+001  1.800000e+001
      vertex  6.500000e+001  5.000000e+001 -1.800000e+001
    endloop
  endfacet
  facet normal  0.000000e+000 -1.000000e+000  0.000000e+000
    outer loop
      vertex  6.500000e+001  5.000000e+001 -1.800000e+001
      vertex  6.100000e+001  5.000000e+001  1.800000e+001
      vertex  6.100000e+001  5.000000e+001 -1.800000e+001
    endloop
  endfacet
  facet normal  3.611875e-001  9.324932e-001  0.000000e+000
    outer loop
      vertex  6.585069e+001 -5.163679e+001 -1.963679e+001
      vertex  6.674689e+001 -5.198392e+001  1.998392e+001
      vertex  6.674689e+001 -5.198392e+001 -1.998392e+001
    endloop
  endfacet
  facet normal  6.339895e-002  9.979882e-001  -0.000000e+000
    outer loop
      vertex  6.674689e+001 -5.198392e+001 -1.998392e+001
      vertex  6.674689e+001 -5.198392e+001  1.998392e+001
      vertex  6.700000e+001 -5.200000e+001  2.000000e+001
    endloop
  endfacet
  facet normal  6.339895e-002  9.979883e-001  0.000000e+000
    outer loop
      vertex  6.674689e+001 -5.198392e+001 -1.998392e+001
      vertex  6.700000e+001 -5.200000e+001  2.000000e+001
      vertex  6.700000e+001 -5.200000e+001 -2.000000e+001
    endloop
  endfacet
  facet normal  3.611875e-001  9.324932e-001  -0.000000e+000
    outer loop
      vertex  6.674689e+001 -5.198392e+001  1.998392e+001
      vertex  6.585069e+001 -5.163679e+001 -1.963679e+001
      vertex  6.585069e+001 -5.163679e+001  1.963679e+001
    endloop
  endfacet
  facet normal  6.855977e-001  7.279807e-001  0.000000e+000
    outer loop
      vertex  6.585069e+001 -5.163679e+001  1.963679e+001
      vertex  6.585069e+001 -5.163679e+001 -1.963679e+001
      vertex  6.543501e+001 -5.124532e+001 -1.924532e+001
    endloop
  endfacet
  facet normal  6.855977e-001  7.279807e-001  -0.000000e+000
    outer loop
      vertex  6.585069e+001 -5.163679e+001  1.963679e+001
      vertex  6.543501e+001 -5.124532e+001 -1.924532e+001
      vertex  6.543501e+001 -5.124532e+001  1.924532e+001
    endloop
  endfacet
  facet normal  9.440585e-001  3.297779e-001  0.000000e+000
    outer loop
      vertex  6.543501e+001 -5.124532e+001  1.924532e+001
      vertex  6.543501e+001 -5.124532e+001 -1.924532e+001
      vertex  6.500000e+001 -5.000000e+001 -1.800000e+001
    endloop
  endfacet
  facet normal  9.440585e-001  3.297779e-001  -0.000000e+000
    outer loop
      vertex  6.543501e+001 -5.124532e+001  1.924532e+001
      vertex  6.500000e+001 -5.000000e+001 -1.800000e+001
      vertex  6.500000e+001 -5.000000e+001  1.800000e+001
    endloop
  endfacet
  facet normal  3.611858e-001  0.000000e+000 -9.324939e-001
    outer loop
      vertex  6.585069e+001 -5.163679e+001  1.963679e+001
      vertex  6.674689e+001  5.198392e+001  1.998392e+001
      vertex  6.674689e+001 -5.198392e+001  1.998392e+001
    endloop
  endfacet
  facet normal  6.340644e-002  0.000000e+000 -9.979878e-001
    outer loop
      vertex  6.674689e+001 -5.198392e+001  1.998392e+001
      vertex  6.674689e+001  5.198392e+001  1.998392e+001
      vertex  6.700000e+001  5.200000e+001  2.000000e+001
    endloop
  endfacet
  facet normal  6.340645e-002  0.000000e+000 -9.979879e-001
    outer loop
      vertex  6.674689e+001 -5.198392e+001  1.998392e+001
      vertex  6.700000e+001  5.200000e+001  2.000000e+001
      vertex  6.700000e+001 -5.200000e+001  2.000000e+001
    endloop
  endfacet
  facet normal  3.611858e-001  0.000000e+000 -9.324939e-001
    outer loop
      vertex  6.674689e+001  5.198392e+001  1.998392e+001
      vertex  6.585069e+001 -5.163679e+001  1.963679e+001
      vertex  6.585069e+001  5.163679e+001  1.963679e+001
    endloop
  endfacet
  facet normal  6.855977e-001  0.000000e+000 -7.279806e-001
    outer loop
      vertex  6.585069e+001  5.163679e+001  1.963679e+001
      vertex  6.585069e+001 -5.163679e+001  1.963679e+001
      vertex  6.543501e+001 -5.124532e+001  1.924532e+001
    endloop
  endfacet
  facet normal  6.855994e-001 -1.354767e-008 -7.279790e-001
    outer loop
      vertex  6.585069e+001  5.163679e+001  1.963679e+001
      vertex  6.543501e+001 -5.124532e+001  1.924532e+001
      vertex  6.543501e+001  5.124532e+001  1.924531e+001
    endloop
  endfacet
  facet normal  9.440585e-001 -6.137161e-009 -3.297780e-001
    outer loop
      vertex  6.543501e+001  5.124532e+001  1.924531e+001
      vertex  6.543501e+001 -5.124532e+001  1.924532e+001
      vertex  6.500000e+001 -5.000000e+001  1.800000e+001
    endloop
  endfacet
  facet normal  9.440584e-001  0.000000e+000 -3.297784e-001
    outer loop
      vertex  6.543501e+001  5.124532e+001  1.924531e+001
      vertex  6.500000e+001 -5.000000e+001  1.800000e+001
      vertex  6.500000e+001  5.000000e+001  1.800000e+001
    endloop
  endfacet
  facet normal  3.611875e-001 -9.324932e-001  0.000000e+000
    outer loop
      vertex  6.585069e+001  5.163679e+001  1.963679e+001
      vertex  6.674689e+001  5.198392e+001 -1.998392e+001
      vertex  6.674689e+001  5.198392e+001  1.998392e+001
    endloop
  endfacet
  facet normal  6.339895e-002 -9.979882e-001  0.000000e+000
    outer loop
      vertex  6.674689e+001  5.198392e+001  1.998392e+001
      vertex  6.674689e+001  5.198392e+001 -1.998392e+001
      vertex  6.700000e+001  5.200000e+001 -2.000000e+001
    endloop
  endfacet
  facet normal  6.339895e-002 -9.979883e-001  0.000000e+000
    outer loop
      vertex  6.674689e+001  5.198392e+001  1.998392e+001
      vertex  6.700000e+001  5.200000e+001 -2.000000e+001
      vertex  6.700000e+001  5.200000e+001  2.000000e+001
    endloop
  endfacet
  facet normal  3.611875e-001 -9.324932e-001  0.000000e+000
    outer loop
      vertex  6.674689e+001  5.198392e+001 -1.998392e+001
      vertex  6.585069e+001  5.163679e+001  1.963679e+001
      vertex  6.585069e+001  5.163679e+001 -1.963679e+001
    endloop
  endfacet
  facet normal  6.855977e-001 -7.279807e-001  0.000000e+000
    outer loop
      vertex  6.585069e+001  5.163679e+001 -1.963679e+001
      vertex  6.585069e+001  5.163679e+001  1.963679e+001
      vertex  6.543501e+001  5.124532e+001  1.924531e+001
    endloop
  endfacet
  facet normal  6.855977e-001 -7.279807e-001  0.000000e+000
    outer loop
      vertex  6.585069e+001  5.163679e+001 -1.963679e+001
      vertex  6.543501e+001  5.124532e+001  1.924531e+001
      vertex  6.543501e+001  5.124532e+001 -1.924532e+001
    endloop
  endfacet
  facet normal  9.440585e-001 -3.297779e-001  0.000000e+000
    outer loop
      vertex  6.543501e+001  5.124532e+001 -1.924532e+001
      vertex  6.543501e+001  5.124532e+001  1.924531e+001
      vertex  6.500000e+001  5.000000e+001  1.800000e+001
    endloop
  endfacet
  facet normal  9.440585e-001 -3.297779e-001  0.000000e+000
    outer loop
      vertex  6.543501e+001  5.124532e+001 -1.924532e+001
      vertex  6.500000e+001  5.000000e+001  1.800000e+001
      vertex  6.500000e+001  5.000000e+001 -1.800000e+001
    endloop
  endfacet
  facet normal  3.611858e-001  -0.000000e+000  9.324939e-001
    outer loop
      vertex  6.585069e+001  5.163679e+001 -1.963679e+001
      vertex  6.674689e+001 -5.198392e+001 -1.998392e+001
      vertex  6.674689e+001  5.198392e+001 -1.998392e+001
    endloop
  endfacet
  facet normal  6.340644e-002  0.000000e+000  9.979878e-001
    outer loop
      vertex  6.674689e+001  5.198392e+001 -1.998392e+001
      vertex  6.674689e+001 -5.198392e+001 -1.998392e+001
      vertex  6.700000e+001 -5.200000e+001 -2.000000e+001
    endloop
  endfacet
  facet normal  6.340645e-002  -0.000000e+000  9.979879e-001
    outer loop
      vertex  6.674689e+001  5.198392e+001 -1.998392e+001
      vertex  6.700000e+001 -5.200000e+001 -2.000000e+001
      vertex  6.700000e+001  5.200000e+001 -2.000000e+001
    endloop
  endfacet
  facet normal  3.611858e-001  0.000000e+000  9.324939e-001
    outer loop
      vertex  6.674689e+001 -5.198392e+001 -1.998392e+001
      vertex  6.585069e+001  5.163679e+001 -1.963679e+001
      vertex  6.585069e+001 -5.163679e+001 -1.963679e+001
    endloop
  endfacet
  facet normal  6.855977e-001  -0.000000e+000  7.279806e-001
    outer loop
      vertex  6.585069e+001 -5.163679e+001 -1.963679e+001
      vertex  6.585069e+001  5.163679e+001 -1.963679e+001
      vertex  6.543501e+001  5.124532e+001 -1.924532e+001
    endloop
  endfacet
  facet normal  6.855977e-001  0.000000e+000  7.279807e-001
    outer loop
      vertex  6.585069e+001 -5.163679e+001 -1.963679e+001
      vertex  6.543501e+001  5.124532e+001 -1.924532e+001
      vertex  6.543501e+001 -5.124532e+001 -1.924532e+001
    endloop
  endfacet
  facet normal  9.440585e-001  -0.000000e+000  3.297779e-001
    outer loop
      vertex  6.543501e+001 -5.124532e+001 -1.924532e+001
      vertex  6.543501e+001  5.124532e+001 -1.924532e+001
      vertex  6.500000e+001  5.000000e+001 -1.800000e+001
    endloop
  endfacet
  facet normal  9.440585e-001  0.000000e+000  3.297779e-001
    outer loop
      vertex  6.543501e+001 -5.124532e+001 -1.924532e+001
      vertex  6.500000e+001  5.000000e+001 -1.800000e+001
      vertex  6.500000e+001 -5.000000e+001 -1.800000e+001
    endloop
  endfacet
endsolid CATIA STL
