solid CATIA STL
  facet normal  1.000000e+000  0.000000e+000  0.000000e+000
    outer loop
      vertex  1.000000e+000 -5.200000e+001 -2.000000e+001
      vertex  1.000000e+000  5.200000e+001 -2.000000e+001
      vertex  1.000000e+000  3.700000e+001 -6.000000e+000
    endloop
  endfacet
  facet normal  1.000000e+000  0.000000e+000  0.000000e+000
    outer loop
      vertex  1.000000e+000 -5.200000e+001 -2.000000e+001
      vertex  1.000000e+000  3.700000e+001 -6.000000e+000
      vertex  1.000000e+000  2.800000e+001 -6.000000e+000
    endloop
  endfacet
  facet normal  1.000000e+000  0.000000e+000  0.000000e+000
    outer loop
      vertex  1.000000e+000 -5.200000e+001 -2.000000e+001
      vertex  1.000000e+000  2.800000e+001 -6.000000e+000
      vertex  1.000000e+000  1.370385e+001 -2.398874e+000
    endloop
  endfacet
  facet normal  1.000000e+000  0.000000e+000  0.000000e+000
    outer loop
      vertex  1.000000e+000 -5.200000e+001 -2.000000e+001
      vertex  1.000000e+000  1.370385e+001 -2.398874e+000
      vertex  1.000000e+000  1.180144e+001 -2.193956e+000
    endloop
  endfacet
  facet normal  1.000000e+000  0.000000e+000  0.000000e+000
    outer loop
      vertex  1.000000e+000 -5.200000e+001 -2.000000e+001
      vertex  1.000000e+000  1.180144e+001 -2.193956e+000
      vertex  1.000000e+000 -2.129615e+001 -2.398874e+000
    endloop
  endfacet
  facet normal  1.000000e+000  0.000000e+000  0.000000e+000
    outer loop
      vertex  1.000000e+000 -5.200000e+001 -2.000000e+001
      vertex  1.000000e+000 -2.129615e+001 -2.398874e+000
      vertex  1.000000e+000 -2.319856e+001 -2.193956e+000
    endloop
  endfacet
  facet normal  1.000000e+000  0.000000e+000  0.000000e+000
    outer loop
      vertex  1.000000e+000 -5.200000e+001 -2.000000e+001
      vertex  1.000000e+000 -2.319856e+001 -2.193956e+000
      vertex  1.000000e+000 -3.129615e+001 -2.398874e+000
    endloop
  endfacet
  facet normal  1.000000e+000  0.000000e+000  0.000000e+000
    outer loop
      vertex  1.000000e+000 -5.200000e+001 -2.000000e+001
      vertex  1.000000e+000 -3.129615e+001 -2.398874e+000
      vertex  1.000000e+000 -3.319856e+001 -2.193956e+000
    endloop
  endfacet
  facet normal  1.000000e+000  0.000000e+000  0.000000e+000
    outer loop
      vertex  1.000000e+000 -5.200000e+001 -2.000000e+001
      vertex  1.000000e+000 -3.319856e+001 -2.193956e+000
      vertex  1.000000e+000 -3.439887e+001 -7.038488e-001
    endloop
  endfacet
  facet normal  1.000000e+000  0.000000e+000  -0.000000e+000
    outer loop
      vertex  1.000000e+000 -5.200000e+001 -2.000000e+001
      vertex  1.000000e+000 -3.439887e+001 -7.038488e-001
      vertex  1.000000e+000 -3.419396e+001  1.198564e+000
    endloop
  endfacet
  facet normal  1.000000e+000  0.000000e+000  0.000000e+000
    outer loop
      vertex  1.000000e+000 -5.200000e+001  2.000000e+001
      vertex  1.000000e+000 -5.200000e+001 -2.000000e+001
      vertex  1.000000e+000 -3.419396e+001  1.198564e+000
    endloop
  endfacet
  facet normal  1.000000e+000  0.000000e+000  -0.000000e+000
    outer loop
      vertex  1.000000e+000 -5.200000e+001  2.000000e+001
      vertex  1.000000e+000 -3.419396e+001  1.198564e+000
      vertex  1.000000e+000 -3.270385e+001  2.398874e+000
    endloop
  endfacet
  facet normal  1.000000e+000  -0.000000e+000  -0.000000e+000
    outer loop
      vertex  1.000000e+000 -5.200000e+001  2.000000e+001
      vertex  1.000000e+000 -3.270385e+001  2.398874e+000
      vertex  1.000000e+000 -3.080144e+001  2.193956e+000
    endloop
  endfacet
  facet normal  1.000000e+000  0.000000e+000  -0.000000e+000
    outer loop
      vertex  1.000000e+000 -5.200000e+001  2.000000e+001
      vertex  1.000000e+000 -3.080144e+001  2.193956e+000
      vertex  1.000000e+000 -2.270385e+001  2.398874e+000
    endloop
  endfacet
  facet normal  9.999999e-001  -0.000000e+000  -0.000000e+000
    outer loop
      vertex  1.000000e+000 -5.200000e+001  2.000000e+001
      vertex  1.000000e+000 -2.270385e+001  2.398874e+000
      vertex  1.000000e+000 -2.080144e+001  2.193956e+000
    endloop
  endfacet
  facet normal  1.000000e+000  -0.000000e+000  -0.000000e+000
    outer loop
      vertex  1.000000e+000 -5.200000e+001  2.000000e+001
      vertex  1.000000e+000 -2.080144e+001  2.193956e+000
      vertex  1.000000e+000  1.080604e+001  1.198564e+000
    endloop
  endfacet
  facet normal  1.000000e+000  0.000000e+000  -0.000000e+000
    outer loop
      vertex  1.000000e+000 -5.200000e+001  2.000000e+001
      vertex  1.000000e+000  1.080604e+001  1.198564e+000
      vertex  1.000000e+000  1.229615e+001  2.398874e+000
    endloop
  endfacet
  facet normal  1.000000e+000  -0.000000e+000  -0.000000e+000
    outer loop
      vertex  1.000000e+000 -5.200000e+001  2.000000e+001
      vertex  1.000000e+000  1.229615e+001  2.398874e+000
      vertex  1.000000e+000  1.419856e+001  2.193956e+000
    endloop
  endfacet
  facet normal  1.000000e+000  0.000000e+000  -0.000000e+000
    outer loop
      vertex  1.000000e+000 -5.200000e+001  2.000000e+001
      vertex  1.000000e+000  1.419856e+001  2.193956e+000
      vertex  1.000000e+000  2.800000e+001  6.000000e+000
    endloop
  endfacet
  facet normal  1.000000e+000  0.000000e+000  -0.000000e+000
    outer loop
      vertex  1.000000e+000 -5.200000e+001  2.000000e+001
      vertex  1.000000e+000  2.800000e+001  6.000000e+000
      vertex  1.000000e+000  3.700000e+001  6.000000e+000
    endloop
  endfacet
  facet normal  1.000000e+000  0.000000e+000  -0.000000e+000
    outer loop
      vertex  1.000000e+000 -5.200000e+001  2.000000e+001
      vertex  1.000000e+000  3.700000e+001  6.000000e+000
      vertex  1.000000e+000  5.200000e+001  2.000000e+001
    endloop
  endfacet
  facet normal  1.000000e+000  0.000000e+000  0.000000e+000
    outer loop
      vertex  1.000000e+000  2.800000e+001 -6.000000e+000
      vertex  1.000000e+000  2.800000e+001  6.000000e+000
      vertex  1.000000e+000  1.419856e+001  2.193956e+000
    endloop
  endfacet
  facet normal  1.000000e+000  0.000000e+000  0.000000e+000
    outer loop
      vertex  1.000000e+000  2.800000e+001 -6.000000e+000
      vertex  1.000000e+000  1.419856e+001  2.193956e+000
      vertex  1.000000e+000  1.539887e+001  7.038488e-001
    endloop
  endfacet
  facet normal  9.999999e-001  0.000000e+000  0.000000e+000
    outer loop
      vertex  1.000000e+000  2.800000e+001 -6.000000e+000
      vertex  1.000000e+000  1.539887e+001  7.038488e-001
      vertex  1.000000e+000  1.519396e+001 -1.198564e+000
    endloop
  endfacet
  facet normal  1.000000e+000  0.000000e+000  0.000000e+000
    outer loop
      vertex  1.000000e+000  2.800000e+001 -6.000000e+000
      vertex  1.000000e+000  1.519396e+001 -1.198564e+000
      vertex  1.000000e+000  1.370385e+001 -2.398874e+000
    endloop
  endfacet
  facet normal  1.000000e+000  -0.000000e+000  0.000000e+000
    outer loop
      vertex  1.000000e+000 -2.270385e+001  2.398874e+000
      vertex  1.000000e+000 -3.080144e+001  2.193956e+000
      vertex  1.000000e+000 -2.419396e+001  1.198564e+000
    endloop
  endfacet
  facet normal  1.000000e+000  0.000000e+000  0.000000e+000
    outer loop
      vertex  1.000000e+000 -2.419396e+001  1.198564e+000
      vertex  1.000000e+000 -3.080144e+001  2.193956e+000
      vertex  1.000000e+000 -2.960113e+001  7.038488e-001
    endloop
  endfacet
  facet normal  1.000000e+000  -0.000000e+000  0.000000e+000
    outer loop
      vertex  1.000000e+000 -2.419396e+001  1.198564e+000
      vertex  1.000000e+000 -2.960113e+001  7.038488e-001
      vertex  1.000000e+000 -2.439887e+001 -7.038488e-001
    endloop
  endfacet
  facet normal  1.000000e+000  0.000000e+000  0.000000e+000
    outer loop
      vertex  1.000000e+000 -2.439887e+001 -7.038488e-001
      vertex  1.000000e+000 -2.960113e+001  7.038488e-001
      vertex  1.000000e+000 -2.980604e+001 -1.198564e+000
    endloop
  endfacet
  facet normal  1.000000e+000  -0.000000e+000  0.000000e+000
    outer loop
      vertex  1.000000e+000 -2.439887e+001 -7.038488e-001
      vertex  1.000000e+000 -2.980604e+001 -1.198564e+000
      vertex  1.000000e+000 -2.319856e+001 -2.193956e+000
    endloop
  endfacet
  facet normal  1.000000e+000  0.000000e+000  0.000000e+000
    outer loop
      vertex  1.000000e+000 -2.319856e+001 -2.193956e+000
      vertex  1.000000e+000 -2.980604e+001 -1.198564e+000
      vertex  1.000000e+000 -3.129615e+001 -2.398874e+000
    endloop
  endfacet
  facet normal  1.000000e+000  0.000000e+000  0.000000e+000
    outer loop
      vertex  1.000000e+000 -2.129615e+001 -2.398874e+000
      vertex  1.000000e+000  1.180144e+001 -2.193956e+000
      vertex  1.000000e+000 -1.980604e+001 -1.198564e+000
    endloop
  endfacet
  facet normal  1.000000e+000  -0.000000e+000  0.000000e+000
    outer loop
      vertex  1.000000e+000 -1.980604e+001 -1.198564e+000
      vertex  1.000000e+000  1.180144e+001 -2.193956e+000
      vertex  1.000000e+000  1.060113e+001 -7.038488e-001
    endloop
  endfacet
  facet normal  1.000000e+000  0.000000e+000  0.000000e+000
    outer loop
      vertex  1.000000e+000 -1.980604e+001 -1.198564e+000
      vertex  1.000000e+000  1.060113e+001 -7.038488e-001
      vertex  1.000000e+000 -1.960113e+001  7.038488e-001
    endloop
  endfacet
  facet normal  1.000000e+000  -0.000000e+000  0.000000e+000
    outer loop
      vertex  1.000000e+000 -1.960113e+001  7.038488e-001
      vertex  1.000000e+000  1.060113e+001 -7.038488e-001
      vertex  1.000000e+000  1.080604e+001  1.198564e+000
    endloop
  endfacet
  facet normal  1.000000e+000  0.000000e+000  0.000000e+000
    outer loop
      vertex  1.000000e+000 -1.960113e+001  7.038488e-001
      vertex  1.000000e+000  1.080604e+001  1.198564e+000
      vertex  1.000000e+000 -2.080144e+001  2.193956e+000
    endloop
  endfacet
  facet normal  1.000000e+000  0.000000e+000  0.000000e+000
    outer loop
      vertex  1.000000e+000  3.700000e+001  6.000000e+000
      vertex  1.000000e+000  3.700000e+001 -6.000000e+000
      vertex  1.000000e+000  5.200000e+001  2.000000e+001
    endloop
  endfacet
  facet normal  1.000000e+000  0.000000e+000  0.000000e+000
    outer loop
      vertex  1.000000e+000  5.200000e+001  2.000000e+001
      vertex  1.000000e+000  3.700000e+001 -6.000000e+000
      vertex  1.000000e+000  5.200000e+001 -2.000000e+001
    endloop
  endfacet
  facet normal -1.000000e+000 -7.254531e-017  6.617274e-017
    outer loop
      vertex  0.000000e+000 -5.200000e+001 -2.000000e+001
      vertex  1.110223e-016 -3.419396e+001  1.198564e+000
      vertex  0.000000e+000 -3.439887e+001 -7.038488e-001
    endloop
  endfacet
  facet normal -1.000000e+000  0.000000e+000  -0.000000e+000
    outer loop
      vertex  0.000000e+000 -5.200000e+001 -2.000000e+001
      vertex  0.000000e+000 -3.439887e+001 -7.038488e-001
      vertex  0.000000e+000 -3.319856e+001 -2.193956e+000
    endloop
  endfacet
  facet normal -1.000000e+000  0.000000e+000  -0.000000e+000
    outer loop
      vertex  0.000000e+000 -5.200000e+001 -2.000000e+001
      vertex  0.000000e+000 -3.319856e+001 -2.193956e+000
      vertex  0.000000e+000 -3.129615e+001 -2.398874e+000
    endloop
  endfacet
  facet normal -1.000000e+000  0.000000e+000  -0.000000e+000
    outer loop
      vertex  0.000000e+000 -5.200000e+001 -2.000000e+001
      vertex  0.000000e+000 -3.129615e+001 -2.398874e+000
      vertex  0.000000e+000 -2.319856e+001 -2.193956e+000
    endloop
  endfacet
  facet normal -1.000000e+000  0.000000e+000  -0.000000e+000
    outer loop
      vertex  0.000000e+000 -5.200000e+001 -2.000000e+001
      vertex  0.000000e+000 -2.319856e+001 -2.193956e+000
      vertex  0.000000e+000 -2.129615e+001 -2.398874e+000
    endloop
  endfacet
  facet normal -1.000000e+000  0.000000e+000  -0.000000e+000
    outer loop
      vertex  0.000000e+000 -5.200000e+001 -2.000000e+001
      vertex  0.000000e+000 -2.129615e+001 -2.398874e+000
      vertex  0.000000e+000  1.180144e+001 -2.193956e+000
    endloop
  endfacet
  facet normal -1.000000e+000  0.000000e+000  -0.000000e+000
    outer loop
      vertex  0.000000e+000 -5.200000e+001 -2.000000e+001
      vertex  0.000000e+000  1.180144e+001 -2.193956e+000
      vertex  0.000000e+000  1.370385e+001 -2.398874e+000
    endloop
  endfacet
  facet normal -1.000000e+000 -8.004804e-018  2.988141e-017
    outer loop
      vertex  0.000000e+000 -5.200000e+001 -2.000000e+001
      vertex  0.000000e+000  1.370385e+001 -2.398874e+000
      vertex -2.220446e-016  2.800000e+001 -6.000000e+000
    endloop
  endfacet
  facet normal -1.000000e+000  0.000000e+000 -1.586033e-017
    outer loop
      vertex  0.000000e+000 -5.200000e+001 -2.000000e+001
      vertex -2.220446e-016  2.800000e+001 -6.000000e+000
      vertex -2.220446e-016  3.700000e+001 -6.000000e+000
    endloop
  endfacet
  facet normal -1.000000e+000  0.000000e+000 -1.586033e-017
    outer loop
      vertex  0.000000e+000 -5.200000e+001 -2.000000e+001
      vertex -2.220446e-016  3.700000e+001 -6.000000e+000
      vertex  0.000000e+000  5.200000e+001 -2.000000e+001
    endloop
  endfacet
  facet normal -1.000000e+000  0.000000e+000  1.586033e-017
    outer loop
      vertex  0.000000e+000 -5.200000e+001  2.000000e+001
      vertex  0.000000e+000  5.200000e+001  2.000000e+001
      vertex -2.220446e-016  3.700000e+001  6.000000e+000
    endloop
  endfacet
  facet normal -1.000000e+000  0.000000e+000  1.586033e-017
    outer loop
      vertex  0.000000e+000 -5.200000e+001  2.000000e+001
      vertex -2.220446e-016  3.700000e+001  6.000000e+000
      vertex -2.220446e-016  2.800000e+001  6.000000e+000
    endloop
  endfacet
  facet normal -1.000000e+000 -7.943956e-018 -2.953371e-017
    outer loop
      vertex  0.000000e+000 -5.200000e+001  2.000000e+001
      vertex -2.220446e-016  2.800000e+001  6.000000e+000
      vertex  0.000000e+000  1.419856e+001  2.193956e+000
    endloop
  endfacet
  facet normal -1.000000e+000  0.000000e+000  0.000000e+000
    outer loop
      vertex  0.000000e+000 -5.200000e+001  2.000000e+001
      vertex  0.000000e+000  1.419856e+001  2.193956e+000
      vertex  0.000000e+000  1.229615e+001  2.398874e+000
    endloop
  endfacet
  facet normal -1.000000e+000 -1.889809e-017 -6.903391e-017
    outer loop
      vertex  0.000000e+000 -5.200000e+001  2.000000e+001
      vertex  0.000000e+000  1.229615e+001  2.398874e+000
      vertex  1.110223e-016  1.080604e+001  1.198564e+000
    endloop
  endfacet
  facet normal -1.000000e+000  3.717669e-018  6.513853e-018
    outer loop
      vertex  0.000000e+000 -5.200000e+001  2.000000e+001
      vertex  1.110223e-016  1.080604e+001  1.198564e+000
      vertex  0.000000e+000 -2.080144e+001  2.193956e+000
    endloop
  endfacet
  facet normal -1.000000e+000  0.000000e+000  0.000000e+000
    outer loop
      vertex  0.000000e+000 -5.200000e+001  2.000000e+001
      vertex  0.000000e+000 -2.080144e+001  2.193956e+000
      vertex  0.000000e+000 -2.270385e+001  2.398874e+000
    endloop
  endfacet
  facet normal -1.000000e+000  -0.000000e+000  0.000000e+000
    outer loop
      vertex  0.000000e+000 -5.200000e+001  2.000000e+001
      vertex  0.000000e+000 -2.270385e+001  2.398874e+000
      vertex  0.000000e+000 -3.080144e+001  2.193956e+000
    endloop
  endfacet
  facet normal -1.000000e+000  0.000000e+000  0.000000e+000
    outer loop
      vertex  0.000000e+000 -5.200000e+001  2.000000e+001
      vertex  0.000000e+000 -3.080144e+001  2.193956e+000
      vertex  0.000000e+000 -3.270385e+001  2.398874e+000
    endloop
  endfacet
  facet normal -1.000000e+000 -3.956588e-017 -4.337616e-017
    outer loop
      vertex  0.000000e+000 -5.200000e+001  2.000000e+001
      vertex  0.000000e+000 -3.270385e+001  2.398874e+000
      vertex  1.110223e-016 -3.419396e+001  1.198564e+000
    endloop
  endfacet
  facet normal -1.000000e+000  6.235091e-018  0.000000e+000
    outer loop
      vertex  0.000000e+000 -5.200000e+001  2.000000e+001
      vertex  1.110223e-016 -3.419396e+001  1.198564e+000
      vertex  0.000000e+000 -5.200000e+001 -2.000000e+001
    endloop
  endfacet
  facet normal -9.999999e-001  5.916878e-018  8.514926e-017
    outer loop
      vertex -2.220446e-016  2.800000e+001 -6.000000e+000
      vertex  0.000000e+000  1.370385e+001 -2.398874e+000
      vertex  1.110223e-016  1.519396e+001 -1.198564e+000
    endloop
  endfacet
  facet normal -9.999999e-001 -4.603031e-017 -5.340054e-017
    outer loop
      vertex -2.220446e-016  2.800000e+001 -6.000000e+000
      vertex  1.110223e-016  1.519396e+001 -1.198564e+000
      vertex  0.000000e+000  1.539887e+001  7.038488e-001
    endloop
  endfacet
  facet normal -1.000000e+000 -3.083506e-017 -2.483824e-017
    outer loop
      vertex -2.220446e-016  2.800000e+001 -6.000000e+000
      vertex  0.000000e+000  1.539887e+001  7.038488e-001
      vertex  0.000000e+000  1.419856e+001  2.193956e+000
    endloop
  endfacet
  facet normal -1.000000e+000 -1.608851e-017  0.000000e+000
    outer loop
      vertex -2.220446e-016  2.800000e+001 -6.000000e+000
      vertex  0.000000e+000  1.419856e+001  2.193956e+000
      vertex -2.220446e-016  2.800000e+001  6.000000e+000
    endloop
  endfacet
  facet normal -1.000000e+000  2.416591e-018 -9.549471e-017
    outer loop
      vertex  1.110223e-016 -2.419396e+001  1.198564e+000
      vertex  0.000000e+000 -3.080144e+001  2.193956e+000
      vertex  0.000000e+000 -2.270385e+001  2.398874e+000
    endloop
  endfacet
  facet normal -1.000000e+000  1.912308e-017  1.540400e-017
    outer loop
      vertex  0.000000e+000 -3.080144e+001  2.193956e+000
      vertex  1.110223e-016 -2.419396e+001  1.198564e+000
      vertex  0.000000e+000 -2.960113e+001  7.038488e-001
    endloop
  endfacet
  facet normal -1.000000e+000  1.534427e-017  5.670588e-017
    outer loop
      vertex  0.000000e+000 -2.960113e+001  7.038488e-001
      vertex  1.110223e-016 -2.419396e+001  1.198564e+000
      vertex  0.000000e+000 -2.439887e+001 -7.038488e-001
    endloop
  endfacet
  facet normal -1.000000e+000 -1.534427e-017 -5.670588e-017
    outer loop
      vertex  0.000000e+000 -2.960113e+001  7.038488e-001
      vertex  0.000000e+000 -2.439887e+001 -7.038488e-001
      vertex  1.110223e-016 -2.980604e+001 -1.198564e+000
    endloop
  endfacet
  facet normal -1.000000e+000 -1.912308e-017 -1.540400e-017
    outer loop
      vertex  1.110223e-016 -2.980604e+001 -1.198564e+000
      vertex  0.000000e+000 -2.439887e+001 -7.038488e-001
      vertex  0.000000e+000 -2.319856e+001 -2.193956e+000
    endloop
  endfacet
  facet normal -1.000000e+000 -2.416591e-018  9.549471e-017
    outer loop
      vertex  1.110223e-016 -2.980604e+001 -1.198564e+000
      vertex  0.000000e+000 -2.319856e+001 -2.193956e+000
      vertex  0.000000e+000 -3.129615e+001 -2.398874e+000
    endloop
  endfacet
  facet normal -1.000000e+000  3.603956e-018  2.903055e-018
    outer loop
      vertex  0.000000e+000 -2.080144e+001  2.193956e+000
      vertex  1.110223e-016  1.080604e+001  1.198564e+000
      vertex  0.000000e+000 -1.960113e+001  7.038488e-001
    endloop
  endfacet
  facet normal -1.000000e+000  2.706454e-018  5.806716e-017
    outer loop
      vertex  0.000000e+000 -1.960113e+001  7.038488e-001
      vertex  1.110223e-016  1.080604e+001  1.198564e+000
      vertex  0.000000e+000  1.060113e+001 -7.038488e-001
    endloop
  endfacet
  facet normal -1.000000e+000 -2.706454e-018 -5.806716e-017
    outer loop
      vertex  0.000000e+000 -1.960113e+001  7.038488e-001
      vertex  0.000000e+000  1.060113e+001 -7.038488e-001
      vertex  1.110223e-016 -1.980604e+001 -1.198564e+000
    endloop
  endfacet
  facet normal -1.000000e+000 -3.603956e-018 -2.903055e-018
    outer loop
      vertex  1.110223e-016 -1.980604e+001 -1.198564e+000
      vertex  0.000000e+000  1.060113e+001 -7.038488e-001
      vertex  0.000000e+000  1.180144e+001 -2.193956e+000
    endloop
  endfacet
  facet normal -1.000000e+000 -5.770996e-019  9.321111e-017
    outer loop
      vertex  1.110223e-016 -1.980604e+001 -1.198564e+000
      vertex  0.000000e+000  1.180144e+001 -2.193956e+000
      vertex  0.000000e+000 -2.129615e+001 -2.398874e+000
    endloop
  endfacet
  facet normal -1.000000e+000  1.480297e-017  0.000000e+000
    outer loop
      vertex -2.220446e-016  3.700000e+001  6.000000e+000
      vertex  0.000000e+000  5.200000e+001  2.000000e+001
      vertex -2.220446e-016  3.700000e+001 -6.000000e+000
    endloop
  endfacet
  facet normal -1.000000e+000  1.480297e-017  0.000000e+000
    outer loop
      vertex -2.220446e-016  3.700000e+001 -6.000000e+000
      vertex  0.000000e+000  5.200000e+001  2.000000e+001
      vertex  0.000000e+000  5.200000e+001 -2.000000e+001
    endloop
  endfacet
  facet normal  0.000000e+000  1.000000e+000  0.000000e+000
    outer loop
      vertex -2.220446e-016  2.800000e+001  6.000000e+000
      vertex  1.000000e+000  2.800000e+001  6.000000e+000
      vertex -2.220446e-016  2.800000e+001 -6.000000e+000
    endloop
  endfacet
  facet normal  0.000000e+000  1.000000e+000  0.000000e+000
    outer loop
      vertex -2.220446e-016  2.800000e+001 -6.000000e+000
      vertex  1.000000e+000  2.800000e+001  6.000000e+000
      vertex  1.000000e+000  2.800000e+001 -6.000000e+000
    endloop
  endfacet
  facet normal  0.000000e+000  0.000000e+000  1.000000e+000
    outer loop
      vertex -2.220446e-016  3.700000e+001 -6.000000e+000
      vertex -2.220446e-016  2.800000e+001 -6.000000e+000
      vertex  1.000000e+000  3.700000e+001 -6.000000e+000
    endloop
  endfacet
  facet normal  0.000000e+000  0.000000e+000  1.000000e+000
    outer loop
      vertex  1.000000e+000  3.700000e+001 -6.000000e+000
      vertex -2.220446e-016  2.800000e+001 -6.000000e+000
      vertex  1.000000e+000  2.800000e+001 -6.000000e+000
    endloop
  endfacet
  facet normal  0.000000e+000 -1.000000e+000  0.000000e+000
    outer loop
      vertex -2.220446e-016  3.700000e+001 -6.000000e+000
      vertex  1.000000e+000  3.700000e+001 -6.000000e+000
      vertex -2.220446e-016  3.700000e+001  6.000000e+000
    endloop
  endfacet
  facet normal  0.000000e+000 -1.000000e+000  0.000000e+000
    outer loop
      vertex -2.220446e-016  3.700000e+001  6.000000e+000
      vertex  1.000000e+000  3.700000e+001 -6.000000e+000
      vertex  1.000000e+000  3.700000e+001  6.000000e+000
    endloop
  endfacet
  facet normal  0.000000e+000  0.000000e+000 -1.000000e+000
    outer loop
      vertex -2.220446e-016  2.800000e+001  6.000000e+000
      vertex -2.220446e-016  3.700000e+001  6.000000e+000
      vertex  1.000000e+000  2.800000e+001  6.000000e+000
    endloop
  endfacet
  facet normal  0.000000e+000  0.000000e+000 -1.000000e+000
    outer loop
      vertex  1.000000e+000  2.800000e+001  6.000000e+000
      vertex -2.220446e-016  3.700000e+001  6.000000e+000
      vertex  1.000000e+000  3.700000e+001  6.000000e+000
    endloop
  endfacet
  facet normal  -0.000000e+000  7.787676e-001  6.273125e-001
    outer loop
      vertex  1.000000e+000  1.180144e+001 -2.193956e+000
      vertex  0.000000e+000  1.060113e+001 -7.038488e-001
      vertex  1.000000e+000  1.060113e+001 -7.038488e-001
    endloop
  endfacet
  facet normal  0.000000e+000  9.942487e-001 -1.070952e-001
    outer loop
      vertex  1.000000e+000  1.060113e+001 -7.038488e-001
      vertex  0.000000e+000  1.060113e+001 -7.038488e-001
      vertex  1.110223e-016  1.080604e+001  1.198564e+000
    endloop
  endfacet
  facet normal  0.000000e+000  9.942487e-001 -1.070952e-001
    outer loop
      vertex  1.000000e+000  1.060113e+001 -7.038488e-001
      vertex  1.110223e-016  1.080604e+001  1.198564e+000
      vertex  1.000000e+000  1.080604e+001  1.198564e+000
    endloop
  endfacet
  facet normal  0.000000e+000  7.787676e-001  6.273125e-001
    outer loop
      vertex  0.000000e+000  1.060113e+001 -7.038488e-001
      vertex  1.000000e+000  1.180144e+001 -2.193956e+000
      vertex  0.000000e+000  1.180144e+001 -2.193956e+000
    endloop
  endfacet
  facet normal  -0.000000e+000  1.070952e-001  9.942488e-001
    outer loop
      vertex  0.000000e+000  1.180144e+001 -2.193956e+000
      vertex  1.000000e+000  1.180144e+001 -2.193956e+000
      vertex  1.000000e+000  1.370385e+001 -2.398874e+000
    endloop
  endfacet
  facet normal  0.000000e+000  1.070952e-001  9.942488e-001
    outer loop
      vertex  0.000000e+000  1.180144e+001 -2.193956e+000
      vertex  1.000000e+000  1.370385e+001 -2.398874e+000
      vertex  0.000000e+000  1.370385e+001 -2.398874e+000
    endloop
  endfacet
  facet normal  0.000000e+000 -6.273123e-001  7.787676e-001
    outer loop
      vertex  0.000000e+000  1.370385e+001 -2.398874e+000
      vertex  1.000000e+000  1.370385e+001 -2.398874e+000
      vertex  1.000000e+000  1.519396e+001 -1.198564e+000
    endloop
  endfacet
  facet normal  0.000000e+000 -6.273123e-001  7.787676e-001
    outer loop
      vertex  0.000000e+000  1.370385e+001 -2.398874e+000
      vertex  1.000000e+000  1.519396e+001 -1.198564e+000
      vertex  1.110223e-016  1.519396e+001 -1.198564e+000
    endloop
  endfacet
  facet normal  0.000000e+000 -7.787676e-001 -6.273125e-001
    outer loop
      vertex  1.000000e+000  1.419856e+001  2.193956e+000
      vertex  0.000000e+000  1.539887e+001  7.038488e-001
      vertex  1.000000e+000  1.539887e+001  7.038488e-001
    endloop
  endfacet
  facet normal  0.000000e+000 -9.942487e-001  1.070952e-001
    outer loop
      vertex  1.000000e+000  1.539887e+001  7.038488e-001
      vertex  0.000000e+000  1.539887e+001  7.038488e-001
      vertex  1.110223e-016  1.519396e+001 -1.198564e+000
    endloop
  endfacet
  facet normal  0.000000e+000 -9.942487e-001  1.070952e-001
    outer loop
      vertex  1.000000e+000  1.539887e+001  7.038488e-001
      vertex  1.110223e-016  1.519396e+001 -1.198564e+000
      vertex  1.000000e+000  1.519396e+001 -1.198564e+000
    endloop
  endfacet
  facet normal  -0.000000e+000 -7.787676e-001 -6.273125e-001
    outer loop
      vertex  0.000000e+000  1.539887e+001  7.038488e-001
      vertex  1.000000e+000  1.419856e+001  2.193956e+000
      vertex  0.000000e+000  1.419856e+001  2.193956e+000
    endloop
  endfacet
  facet normal  0.000000e+000 -1.070952e-001 -9.942488e-001
    outer loop
      vertex  0.000000e+000  1.419856e+001  2.193956e+000
      vertex  1.000000e+000  1.419856e+001  2.193956e+000
      vertex  1.000000e+000  1.229615e+001  2.398874e+000
    endloop
  endfacet
  facet normal  -0.000000e+000 -1.070952e-001 -9.942488e-001
    outer loop
      vertex  0.000000e+000  1.419856e+001  2.193956e+000
      vertex  1.000000e+000  1.229615e+001  2.398874e+000
      vertex  0.000000e+000  1.229615e+001  2.398874e+000
    endloop
  endfacet
  facet normal  0.000000e+000  6.273123e-001 -7.787676e-001
    outer loop
      vertex  0.000000e+000  1.229615e+001  2.398874e+000
      vertex  1.000000e+000  1.229615e+001  2.398874e+000
      vertex  1.000000e+000  1.080604e+001  1.198564e+000
    endloop
  endfacet
  facet normal  0.000000e+000  6.273123e-001 -7.787676e-001
    outer loop
      vertex  0.000000e+000  1.229615e+001  2.398874e+000
      vertex  1.000000e+000  1.080604e+001  1.198564e+000
      vertex  1.110223e-016  1.080604e+001  1.198564e+000
    endloop
  endfacet
  facet normal  -0.000000e+000  7.787678e-001  6.273122e-001
    outer loop
      vertex  1.000000e+000 -2.319856e+001 -2.193956e+000
      vertex  0.000000e+000 -2.439887e+001 -7.038488e-001
      vertex  1.000000e+000 -2.439887e+001 -7.038488e-001
    endloop
  endfacet
  facet normal  0.000000e+000  9.942487e-001 -1.070952e-001
    outer loop
      vertex  1.000000e+000 -2.439887e+001 -7.038488e-001
      vertex  0.000000e+000 -2.439887e+001 -7.038488e-001
      vertex  1.110223e-016 -2.419396e+001  1.198564e+000
    endloop
  endfacet
  facet normal  0.000000e+000  9.942487e-001 -1.070952e-001
    outer loop
      vertex  1.000000e+000 -2.439887e+001 -7.038488e-001
      vertex  1.110223e-016 -2.419396e+001  1.198564e+000
      vertex  1.000000e+000 -2.419396e+001  1.198564e+000
    endloop
  endfacet
  facet normal  0.000000e+000  7.787678e-001  6.273122e-001
    outer loop
      vertex  0.000000e+000 -2.439887e+001 -7.038488e-001
      vertex  1.000000e+000 -2.319856e+001 -2.193956e+000
      vertex  0.000000e+000 -2.319856e+001 -2.193956e+000
    endloop
  endfacet
  facet normal  -0.000000e+000  1.070952e-001  9.942488e-001
    outer loop
      vertex  0.000000e+000 -2.319856e+001 -2.193956e+000
      vertex  1.000000e+000 -2.319856e+001 -2.193956e+000
      vertex  1.000000e+000 -2.129615e+001 -2.398874e+000
    endloop
  endfacet
  facet normal  0.000000e+000  1.070952e-001  9.942488e-001
    outer loop
      vertex  0.000000e+000 -2.319856e+001 -2.193956e+000
      vertex  1.000000e+000 -2.129615e+001 -2.398874e+000
      vertex  0.000000e+000 -2.129615e+001 -2.398874e+000
    endloop
  endfacet
  facet normal  0.000000e+000 -6.273122e-001  7.787680e-001
    outer loop
      vertex  0.000000e+000 -2.129615e+001 -2.398874e+000
      vertex  1.000000e+000 -2.129615e+001 -2.398874e+000
      vertex  1.000000e+000 -1.980604e+001 -1.198564e+000
    endloop
  endfacet
  facet normal  0.000000e+000 -6.273122e-001  7.787680e-001
    outer loop
      vertex  0.000000e+000 -2.129615e+001 -2.398874e+000
      vertex  1.000000e+000 -1.980604e+001 -1.198564e+000
      vertex  1.110223e-016 -1.980604e+001 -1.198564e+000
    endloop
  endfacet
  facet normal  0.000000e+000 -7.787678e-001 -6.273122e-001
    outer loop
      vertex  1.000000e+000 -2.080144e+001  2.193956e+000
      vertex  0.000000e+000 -1.960113e+001  7.038488e-001
      vertex  1.000000e+000 -1.960113e+001  7.038488e-001
    endloop
  endfacet
  facet normal  0.000000e+000 -9.942487e-001  1.070952e-001
    outer loop
      vertex  1.000000e+000 -1.960113e+001  7.038488e-001
      vertex  0.000000e+000 -1.960113e+001  7.038488e-001
      vertex  1.110223e-016 -1.980604e+001 -1.198564e+000
    endloop
  endfacet
  facet normal  0.000000e+000 -9.942487e-001  1.070952e-001
    outer loop
      vertex  1.000000e+000 -1.960113e+001  7.038488e-001
      vertex  1.110223e-016 -1.980604e+001 -1.198564e+000
      vertex  1.000000e+000 -1.980604e+001 -1.198564e+000
    endloop
  endfacet
  facet normal  -0.000000e+000 -7.787678e-001 -6.273122e-001
    outer loop
      vertex  0.000000e+000 -1.960113e+001  7.038488e-001
      vertex  1.000000e+000 -2.080144e+001  2.193956e+000
      vertex  0.000000e+000 -2.080144e+001  2.193956e+000
    endloop
  endfacet
  facet normal  0.000000e+000 -1.070952e-001 -9.942488e-001
    outer loop
      vertex  0.000000e+000 -2.080144e+001  2.193956e+000
      vertex  1.000000e+000 -2.080144e+001  2.193956e+000
      vertex  1.000000e+000 -2.270385e+001  2.398874e+000
    endloop
  endfacet
  facet normal  -0.000000e+000 -1.070952e-001 -9.942488e-001
    outer loop
      vertex  0.000000e+000 -2.080144e+001  2.193956e+000
      vertex  1.000000e+000 -2.270385e+001  2.398874e+000
      vertex  0.000000e+000 -2.270385e+001  2.398874e+000
    endloop
  endfacet
  facet normal  0.000000e+000  6.273122e-001 -7.787680e-001
    outer loop
      vertex  0.000000e+000 -2.270385e+001  2.398874e+000
      vertex  1.000000e+000 -2.270385e+001  2.398874e+000
      vertex  1.000000e+000 -2.419396e+001  1.198564e+000
    endloop
  endfacet
  facet normal  0.000000e+000  6.273122e-001 -7.787680e-001
    outer loop
      vertex  0.000000e+000 -2.270385e+001  2.398874e+000
      vertex  1.000000e+000 -2.419396e+001  1.198564e+000
      vertex  1.110223e-016 -2.419396e+001  1.198564e+000
    endloop
  endfacet
  facet normal  -0.000000e+000  7.787678e-001  6.273122e-001
    outer loop
      vertex  1.000000e+000 -3.319856e+001 -2.193956e+000
      vertex  0.000000e+000 -3.439887e+001 -7.038488e-001
      vertex  1.000000e+000 -3.439887e+001 -7.038488e-001
    endloop
  endfacet
  facet normal  0.000000e+000  9.942490e-001 -1.070933e-001
    outer loop
      vertex  1.000000e+000 -3.439887e+001 -7.038488e-001
      vertex  0.000000e+000 -3.439887e+001 -7.038488e-001
      vertex  1.110223e-016 -3.419396e+001  1.198564e+000
    endloop
  endfacet
  facet normal  0.000000e+000  9.942490e-001 -1.070933e-001
    outer loop
      vertex  1.000000e+000 -3.439887e+001 -7.038488e-001
      vertex  1.110223e-016 -3.419396e+001  1.198564e+000
      vertex  1.000000e+000 -3.419396e+001  1.198564e+000
    endloop
  endfacet
  facet normal  0.000000e+000  7.787678e-001  6.273122e-001
    outer loop
      vertex  0.000000e+000 -3.439887e+001 -7.038488e-001
      vertex  1.000000e+000 -3.319856e+001 -2.193956e+000
      vertex  0.000000e+000 -3.319856e+001 -2.193956e+000
    endloop
  endfacet
  facet normal  -0.000000e+000  1.070953e-001  9.942488e-001
    outer loop
      vertex  0.000000e+000 -3.319856e+001 -2.193956e+000
      vertex  1.000000e+000 -3.319856e+001 -2.193956e+000
      vertex  1.000000e+000 -3.129615e+001 -2.398874e+000
    endloop
  endfacet
  facet normal  0.000000e+000  1.070953e-001  9.942488e-001
    outer loop
      vertex  0.000000e+000 -3.319856e+001 -2.193956e+000
      vertex  1.000000e+000 -3.129615e+001 -2.398874e+000
      vertex  0.000000e+000 -3.129615e+001 -2.398874e+000
    endloop
  endfacet
  facet normal  0.000000e+000 -6.273122e-001  7.787680e-001
    outer loop
      vertex  0.000000e+000 -3.129615e+001 -2.398874e+000
      vertex  1.000000e+000 -3.129615e+001 -2.398874e+000
      vertex  1.000000e+000 -2.980604e+001 -1.198564e+000
    endloop
  endfacet
  facet normal  0.000000e+000 -6.273122e-001  7.787680e-001
    outer loop
      vertex  0.000000e+000 -3.129615e+001 -2.398874e+000
      vertex  1.000000e+000 -2.980604e+001 -1.198564e+000
      vertex  1.110223e-016 -2.980604e+001 -1.198564e+000
    endloop
  endfacet
  facet normal  0.000000e+000 -7.787678e-001 -6.273122e-001
    outer loop
      vertex  1.000000e+000 -3.080144e+001  2.193956e+000
      vertex  0.000000e+000 -2.960113e+001  7.038488e-001
      vertex  1.000000e+000 -2.960113e+001  7.038488e-001
    endloop
  endfacet
  facet normal  0.000000e+000 -9.942487e-001  1.070952e-001
    outer loop
      vertex  1.000000e+000 -2.960113e+001  7.038488e-001
      vertex  0.000000e+000 -2.960113e+001  7.038488e-001
      vertex  1.110223e-016 -2.980604e+001 -1.198564e+000
    endloop
  endfacet
  facet normal  0.000000e+000 -9.942487e-001  1.070952e-001
    outer loop
      vertex  1.000000e+000 -2.960113e+001  7.038488e-001
      vertex  1.110223e-016 -2.980604e+001 -1.198564e+000
      vertex  1.000000e+000 -2.980604e+001 -1.198564e+000
    endloop
  endfacet
  facet normal  -0.000000e+000 -7.787678e-001 -6.273122e-001
    outer loop
      vertex  0.000000e+000 -2.960113e+001  7.038488e-001
      vertex  1.000000e+000 -3.080144e+001  2.193956e+000
      vertex  0.000000e+000 -3.080144e+001  2.193956e+000
    endloop
  endfacet
  facet normal  0.000000e+000 -1.070950e-001 -9.942487e-001
    outer loop
      vertex  0.000000e+000 -3.080144e+001  2.193956e+000
      vertex  1.000000e+000 -3.080144e+001  2.193956e+000
      vertex  1.000000e+000 -3.270385e+001  2.398874e+000
    endloop
  endfacet
  facet normal  -0.000000e+000 -1.070950e-001 -9.942487e-001
    outer loop
      vertex  0.000000e+000 -3.080144e+001  2.193956e+000
      vertex  1.000000e+000 -3.270385e+001  2.398874e+000
      vertex  0.000000e+000 -3.270385e+001  2.398874e+000
    endloop
  endfacet
  facet normal  0.000000e+000  6.273122e-001 -7.787680e-001
    outer loop
      vertex  0.000000e+000 -3.270385e+001  2.398874e+000
      vertex  1.000000e+000 -3.270385e+001  2.398874e+000
      vertex  1.000000e+000 -3.419396e+001  1.198564e+000
    endloop
  endfacet
  facet normal  0.000000e+000  6.273122e-001 -7.787680e-001
    outer loop
      vertex  0.000000e+000 -3.270385e+001  2.398874e+000
      vertex  1.000000e+000 -3.419396e+001  1.198564e+000
      vertex  1.110223e-016 -3.419396e+001  1.198564e+000
    endloop
  endfacet
  facet normal  0.000000e+000  1.000000e+000  -0.000000e+000
    outer loop
      vertex  1.000000e+000  5.200000e+001  2.000000e+001
      vertex  1.000000e+000  5.200000e+001 -2.000000e+001
      vertex  0.000000e+000  5.200000e+001  2.000000e+001
    endloop
  endfacet
  facet normal  0.000000e+000  1.000000e+000  0.000000e+000
    outer loop
      vertex  0.000000e+000  5.200000e+001  2.000000e+001
      vertex  1.000000e+000  5.200000e+001 -2.000000e+001
      vertex  0.000000e+000  5.200000e+001 -2.000000e+001
    endloop
  endfacet
  facet normal  0.000000e+000  0.000000e+000 -1.000000e+000
    outer loop
      vertex  1.000000e+000  5.200000e+001 -2.000000e+001
      vertex  1.000000e+000 -5.200000e+001 -2.000000e+001
      vertex  0.000000e+000  5.200000e+001 -2.000000e+001
    endloop
  endfacet
  facet normal  0.000000e+000  0.000000e+000 -1.000000e+000
    outer loop
      vertex  0.000000e+000  5.200000e+001 -2.000000e+001
      vertex  1.000000e+000 -5.200000e+001 -2.000000e+001
      vertex  0.000000e+000 -5.200000e+001 -2.000000e+001
    endloop
  endfacet
  facet normal  0.000000e+000 -1.000000e+000  -0.000000e+000
    outer loop
      vertex  1.000000e+000 -5.200000e+001 -2.000000e+001
      vertex  1.000000e+000 -5.200000e+001  2.000000e+001
      vertex  0.000000e+000 -5.200000e+001 -2.000000e+001
    endloop
  endfacet
  facet normal  0.000000e+000 -1.000000e+000  0.000000e+000
    outer loop
      vertex  0.000000e+000 -5.200000e+001 -2.000000e+001
      vertex  1.000000e+000 -5.200000e+001  2.000000e+001
      vertex  0.000000e+000 -5.200000e+001  2.000000e+001
    endloop
  endfacet
  facet normal  0.000000e+000  0.000000e+000  1.000000e+000
    outer loop
      vertex  1.000000e+000 -5.200000e+001  2.000000e+001
      vertex  1.000000e+000  5.200000e+001  2.000000e+001
      vertex  0.000000e+000 -5.200000e+001  2.000000e+001
    endloop
  endfacet
  facet normal  0.000000e+000  0.000000e+000  1.000000e+000
    outer loop
      vertex  0.000000e+000 -5.200000e+001  2.000000e+001
      vertex  1.000000e+000  5.200000e+001  2.000000e+001
      vertex  0.000000e+000  5.200000e+001  2.000000e+001
    endloop
  endfacet
endsolid CATIA STL
